<svg id="Calque_3" data-name="Calque 3" xmlns="http://www.w3.org/2000/svg" viewBox="0 0 190 190"><defs><style>.cls-1{fill:#fff;}.cls-2{fill:#62edff;}</style></defs><polygon class="cls-1" points="142.27 13.12 47.73 13.12 0.45 95 47.73 176.88 142.27 176.88 189.55 95 142.27 13.12"/><path class="cls-2" d="M134,40.16c-.24.19-5.83,8-12.36,17.22C107,78.1,96.84,93,91.38,101.86c-.78,1.27-2.26,3.8-2.26,3.86a4.27,4.27,0,0,0,.93.4c.5.18,1.63.69,2.51,1.13a29.28,29.28,0,0,1,5.91,3.83c.58.46,1.07.83,1.08.82s.92-1.53,1.66-2.82c5.64-9.85,17.3-33.3,31.8-63.95,1.07-2.24,2-4.23,2-4.4a.5.5,0,0,0-.17-.53A.59.59,0,0,0,134,40.16Z"/><path class="cls-2" d="M87.62,108.72c-1.32,3.16-2.65,6.12-5.35,11.92-2.27,4.86-3.53,7.67-3.45,7.73a5.64,5.64,0,0,0,.59.12,9.29,9.29,0,0,1,4.82,2.88,5.57,5.57,0,0,0,.51.55,77,77,0,0,0,5-6.6c3.44-4.74,5.52-7.55,7.21-9.71,1.51-1.94,1.47-1.86,1.24-2s-.57-.45-1-.84A28.11,28.11,0,0,0,88.87,108l-.78-.25A8.12,8.12,0,0,0,87.62,108.72Z"/><path class="cls-2" d="M75.26,129.4A9.17,9.17,0,0,0,69.42,133,10.6,10.6,0,0,0,68,135.89a27.77,27.77,0,0,1-1.89,5.54,12.27,12.27,0,0,1-2.37,3.37c-1.8,1.81-3.95,2.88-7.31,3.63-.85.2-1.15.3-1.26.44a.67.67,0,0,0,.07.92l.22.22,4.15,0c2.26,0,4.81-.09,5.63-.14,9.6-.55,15.11-2.2,18.21-5.46a8,8,0,0,0,2.31-5.59,8.74,8.74,0,0,0-2.13-6.3,9.43,9.43,0,0,0-4.68-2.9A10.11,10.11,0,0,0,75.26,129.4Z"/></svg>