<svg id="Calque_3" data-name="Calque 3" xmlns="http://www.w3.org/2000/svg" viewBox="0 0 190 190"><defs><style>.cls-1{fill:#fff;}.cls-2{fill:#62edff;}</style></defs><polygon class="cls-1" points="142.27 13.12 47.73 13.12 0.45 95 47.73 176.88 142.27 176.88 189.55 95 142.27 13.12"/><path class="cls-2" d="M134.84,49.07c0,.06-1,.63-2.11,1.29C115.37,60.39,104,69.8,89.74,86c-2.49,2.82-3.73,4.29-5.39,6.35-.68.85-.91,1.1-1,1.06a14.86,14.86,0,0,0-2.68-.54c-3.77-.31-8,1.41-12.27,5A49,49,0,0,0,59,109c-.56.89-1.84,3.1-1.8,3.1l.69-.3c3.58-1.55,5.45-2.07,7.45-2.08a9,9,0,0,1,4,.94,19.66,19.66,0,0,1,2.5,1.6l.21.18-.26.82a18.67,18.67,0,0,0-.69,2.83c-.23,1.33-.28,1.18.72,2.06a12,12,0,0,0,1,.77,9.83,9.83,0,0,0,1.05-1.23C77.63,113,85.3,104,87.37,102c1.31-1.26,2.12-1.74,2.57-1.52.7.34.39,1.45-.88,3.14-.7.94-1.28,1.62-3.1,3.68-.72.82-1.77,2-2.34,2.7-2.33,2.76-5,5.71-7.76,8.59a20.9,20.9,0,0,0-1.51,1.67,8.49,8.49,0,0,0,.85.8c1,.83.8.8,2.12.38a21.4,21.4,0,0,0,2.85-1.14c.64-.32.65-.32,1.41.5a10.29,10.29,0,0,1,2.77,5,8.45,8.45,0,0,1,.16,1.94,19.38,19.38,0,0,1-1,5.62c-.2.73-.35,1.34-.35,1.35s1.75-1.31,2.62-2a55.12,55.12,0,0,0,7.34-7.41c4.25-5.29,6.34-10.35,6.07-14.65a10.44,10.44,0,0,0-1-3.94l-.25-.55.77-.8c3-3.07,8.72-9.77,12.55-14.62A151.42,151.42,0,0,0,134,51.27c.44-1.08.84-2,.9-2.1S135,49,135,49,134.88,49,134.84,49.07ZM115.91,68.86a3.75,3.75,0,0,1,2.49,3.54A3.48,3.48,0,0,1,117.34,75a3.52,3.52,0,0,1-2.76,1.16,3.78,3.78,0,0,1-2.93-6.12A4.24,4.24,0,0,1,114,68.67,5.06,5.06,0,0,1,115.91,68.86Z"/><path class="cls-2" d="M117.14,73.05a3.92,3.92,0,0,1-2.45,1,4.1,4.1,0,0,1-2.67-.73l-.46-.32.11.27a3.09,3.09,0,0,0,1.6,1.69,2.12,2.12,0,0,0,1.24.23,2.06,2.06,0,0,0,1.31-.26,3.13,3.13,0,0,0,1.63-2l.07-.27Z"/><path class="cls-2" d="M88.48,101.68c-.65.35-1.61,1.29-3.58,3.5-3.6,4.06-8,9.27-10.93,13.09-1.67,2.14-4.5,5.94-4.42,5.94s6.74-6.6,8.77-8.78c1.84-2,3.78-4.15,5.75-6.44.82-1,1.81-2.11,2.22-2.56a22.52,22.52,0,0,0,2.88-3.75,1.16,1.16,0,0,0,0-1C89,101.49,88.82,101.5,88.48,101.68Z"/><path class="cls-2" d="M68.45,121a56.23,56.23,0,0,0-8,7.74,25.49,25.49,0,0,0-5.25,10A12.83,12.83,0,0,0,55,141a7.24,7.24,0,0,0,2-.42,24.65,24.65,0,0,0,9.26-6.46,53.37,53.37,0,0,0,6.82-9.26,6.07,6.07,0,0,0,.37-.74s-.75.86-1.64,1.93a41.69,41.69,0,0,1-4.6,4.84,20.78,20.78,0,0,1-4.53,3.07,4.91,4.91,0,0,1-1.85.48,4.8,4.8,0,0,1,0-1.54,22.66,22.66,0,0,1,4.72-8.41c.28-.32.74-.87,1-1.23s1-1.14,1.61-1.75a11,11,0,0,0,1-1.09A8.94,8.94,0,0,0,68.45,121Z"/><path class="cls-2" d="M69.47,121.78a36.49,36.49,0,0,0-3.86,3.81c-1.77,2.12-3,4.67-3.09,6.4l0,.47.22,0a7.94,7.94,0,0,0,1.9-.67c2.17-1.09,4.17-3,6.38-6a19.87,19.87,0,0,0,1.53-2.46,14.17,14.17,0,0,0-1,1.13,17.17,17.17,0,0,1-4.24,3.82,3.39,3.39,0,0,1-1.38.57l-.25,0v-.48c0-1.47,1.73-4.22,4-6.49a3.29,3.29,0,0,0,.55-.63A5.8,5.8,0,0,0,69.47,121.78Z"/></svg>