<?xml version="1.0" encoding="utf-8"?>
<!-- Generator: Adobe Illustrator 26.0.1, SVG Export Plug-In . SVG Version: 6.00 Build 0)  -->
<svg version="1.1" id="Calque_1" xmlns="http://www.w3.org/2000/svg" xmlns:xlink="http://www.w3.org/1999/xlink" x="0px" y="0px"
	 viewBox="0 0 246 320" style="enable-background:new 0 0 246 320;" xml:space="preserve">
<style type="text/css">
	.st0{font-family:'MyriadPro-Regular';}
	.st1{font-size:12px;}
</style>
<text transform="matrix(1 0 0 1 77.6362 104.0908)" class="st0 st1">PROJET </text>
<text transform="matrix(1 0 0 1 107.818 178.9999)" class="st0 st1">PROJET </text>
<text transform="matrix(1 0 0 1 130.7271 125.1817)" class="st0 st1">PROJET </text>
<text transform="matrix(1 0 0 1 154.7271 217.1817)" class="st0 st1">PROJET </text>
<text transform="matrix(1 0 0 1 76.5453 245.1817)" class="st0 st1">PROJET </text>
<text transform="matrix(1 0 0 1 158.7271 294.9999)" class="st0 st1">PROJET </text>
<text transform="matrix(1 0 0 1 88.909 289.1817)" class="st0 st1">PROJET </text>
<text transform="matrix(1 0 0 1 159.8181 86.6363)" class="st0 st1">PROJET </text>
<text transform="matrix(1 0 0 1 72.909 50.6363)" class="st0 st1">PROJET </text>
<text transform="matrix(1 0 0 1 161.9999 30.2726)" class="st0 st1">PROJET </text>
<text transform="matrix(1 0 0 1 49.6362 138.9999)" class="st0 st1">PROJET </text>
<text transform="matrix(1 0 0 1 20.909 186.9999)" class="st0 st1">PROJET </text>
<text transform="matrix(1 0 0 1 18.7271 276.8181)" class="st0 st1">PROJET </text>
<text transform="matrix(1 0 0 1 188.5453 158.2726)" class="st0 st1">PROJET </text>
</svg>
