<svg id="Calque_1" data-name="Calque 1" xmlns="http://www.w3.org/2000/svg" viewBox="0 0 1380.22 1767.98"><defs><style>.cls-1{fill:#ffd6f3;}.cls-2{fill:none;}.cls-3{fill:#74efff;}</style></defs><path class="cls-1" d="M848.15,1452.91h-1.63q-17.91,0-17.91-18.45,0-3.24,2.17-18.18t20.62-67.57q11.94-34.74,26.05-80.87Q944.22,1041,1071.21,652.93q58.07-179.64,96.61-319.13,30.93-112.87,30.93-134.06,0-4.87-1.62-4.88-14.66,0-97.43,79.24T923.59,457.55q-102,115.07-156.85,155.76-30.4,22.79-50.48,22.79-15.75,0-25-14.65Q671.76,590,671.76,489.57v-5.43a223.23,223.23,0,0,0-2.18-33.92q-2.18-13.85-5.42-13.84-12.49,0-55.63,62.14T511.65,652.66q-53.73,92-101.49,187-39.63,78.71-67.3,111.26T287.5,983.45c-5.07,0-7.6-7.4-7.6-22.25q0-50.48,38-213.29,35.28-147.63,58.62-238.81t39.07-139.48q15.74-48.3,27.68-67.57T469,277.9Q482.89,273,491,273,503,273,503,288.21q-.54,15.21-13.56,49.39-4.89,14.11-9.23,28.76-46.68,160.67-77.61,305-11.4,51.57-11.4,64a3.11,3.11,0,0,0,.55,2.18l.54.54q3.79,0,13.3-13t22-35.82q46.11-81.94,108.81-172.86t91.46-117.5a204.25,204.25,0,0,1,32-20.63Q689.13,362,708.66,362a25.81,25.81,0,0,1,13.3,4.07q6.78,4.08,10.86,30.94t7.87,87.11q4.88,66.75,11.94,74.9h.54q4.88,0,40.43-34.74t87.11-91.72q97.69-107.46,191.86-195.39T1215,121.05q22.79-11.94,38.53-11.94,6.51,0,18.45,4.34t12,33.65q0,21.71-39.9,158.75T1153.71,595.4q-19,57-66.22,201.08T990.34,1095.8Q940.41,1251,912.73,1340.57q-17.91,57-35.28,84.66T848.15,1452.91Z" transform="translate(-270.11 -96.48)"/><path class="cls-2" d="M848.15,1452.91h-1.63q-17.91,0-17.91-18.45,0-3.24,2.17-18.18t20.62-67.57q11.94-34.74,26.05-80.87Q944.22,1041,1071.21,652.93q58.07-179.64,96.61-319.13,30.93-112.87,30.93-134.06,0-4.87-1.62-4.88-14.66,0-97.43,79.24T923.59,457.55q-102,115.07-156.85,155.76-30.4,22.79-50.48,22.79-15.75,0-25-14.65Q671.76,590,671.76,489.57v-5.43a223.23,223.23,0,0,0-2.18-33.92q-2.18-13.85-5.42-13.84-12.49,0-55.63,62.14T511.65,652.66q-53.73,92-101.49,187-39.63,78.71-67.3,111.26T287.5,983.45c-5.07,0-7.6-7.4-7.6-22.25q0-50.48,38-213.29,35.28-147.63,58.62-238.81t39.07-139.48q15.74-48.3,27.68-67.57T469,277.9Q482.89,273,491,273,503,273,503,288.21q-.54,15.21-13.56,49.39-4.89,14.11-9.23,28.76-46.68,160.67-77.61,305-11.4,51.57-11.4,64a3.11,3.11,0,0,0,.55,2.18l.54.54q3.79,0,13.3-13t22-35.82q46.11-81.94,108.81-172.86t91.46-117.5a204.25,204.25,0,0,1,32-20.63Q689.13,362,708.66,362a25.81,25.81,0,0,1,13.3,4.07q6.78,4.08,10.86,30.94t7.87,87.11q4.88,66.75,11.94,74.9h.54q4.88,0,40.43-34.74t87.11-91.72q97.69-107.46,191.86-195.39T1215,121.05q22.79-11.94,38.53-11.94,6.51,0,18.45,4.34t12,33.65q0,21.71-39.9,158.75T1153.71,595.4q-19,57-66.22,201.08T990.34,1095.8Q940.41,1251,912.73,1340.57q-17.91,57-35.28,84.66T848.15,1452.91Z" transform="translate(-270.11 -96.48)"/><path class="cls-3" d="M861.91,1460.44c-.86.48-1.59.93-2.37,1.32l-2.18,1c-.7.3-1.39.55-2,.79a16.84,16.84,0,0,1-1.67.59c-1.06.32-1.85.59-2.46.79a8.55,8.55,0,0,0-1.38.5c-1.18.6,0,1.14-1.71,1.4,1.22,0,2.4-.16,3.49-.3s2-.41,2.87-.64,1.57-.53,2.3-.79l1-.4.85-.41a25.52,25.52,0,0,0,4.51-2.79c1.75-1.49,2-2.12,1.79-2.27C864.45,1459,861.57,1460.4,861.91,1460.44Z" transform="translate(-270.11 -96.48)"/><polygon class="cls-3" points="662.88 1203.89 662.75 1207 668.39 1182.54 662.88 1203.89"/><path class="cls-3" d="M981,1149c-7.82,13.26-16.86,55-26.57,81.6l-2.16,4.21-1.22,13C961,1215,972.78,1171.82,981,1149Z" transform="translate(-270.11 -96.48)"/><path class="cls-3" d="M1013.89,1070.69c-2.89,4.56,4.56-17.77-6.49,18.65.73-1.78,1-2.27,1.43-3.3C1009.86,1082.78,1011.32,1078.29,1013.89,1070.69Z" transform="translate(-270.11 -96.48)"/><path class="cls-3" d="M1008.83,1086c-5.07,15.94,4.44-10.06,0,0Z" transform="translate(-270.11 -96.48)"/><path class="cls-3" d="M1031.93,1012.36l-5.66,21.32c2.18-4.13,8.4-22.72,6.7-15.62C1039.32,996.37,1037.13,1000.54,1031.93,1012.36Z" transform="translate(-270.11 -96.48)"/><path class="cls-3" d="M1036,991.72l-3,11C1033.88,1000.94,1034.92,998.1,1036,991.72Z" transform="translate(-270.11 -96.48)"/><path class="cls-3" d="M1026.49,1026.09l6.45-23.35c-1.51,2.86-2.68,2.84-3.06,10.69C1029.52,1011.23,1029,1016.08,1026.49,1026.09Z" transform="translate(-270.11 -96.48)"/><path class="cls-3" d="M1021.76,1039c-4.53,11.52-9.9,26.56-4.21,5.17C1005,1084.35,1009.21,1079.19,1021.76,1039Z" transform="translate(-270.11 -96.48)"/><path class="cls-3" d="M980.07,1140.23l-6,15.43-3.22,14C972.51,1162.66,981.41,1139.58,980.07,1140.23Z" transform="translate(-270.11 -96.48)"/><path class="cls-3" d="M1076,882.41c-.27-1.53-4.14,6.44-5.54,7.71l-4.22,15.74C1069.28,898.06,1074.61,883.13,1076,882.41Z" transform="translate(-270.11 -96.48)"/><path class="cls-3" d="M1070.44,890.12l6.32-23.54C1069.91,887.22,1069.25,891.18,1070.44,890.12Z" transform="translate(-270.11 -96.48)"/><polygon class="cls-3" points="763.45 890.33 753.62 929.18 765.79 882.99 763.45 890.33"/><polygon class="cls-3" points="834.69 697.56 832.01 711.2 837.23 687.05 834.69 697.56"/><path class="cls-3" d="M1123.8,735.38c-1.86,10.13,6.64-12.56,4.08-2,5-16,8.33-30,11.33-42.52A438,438,0,0,1,1123.8,735.38Z" transform="translate(-270.11 -96.48)"/><path class="cls-3" d="M1144.47,669.8c-1.82,6.59-3.46,13.51-5.26,21C1141.17,683.83,1143,676.89,1144.47,669.8Z" transform="translate(-270.11 -96.48)"/><path class="cls-3" d="M1089.9,827.26c1-1.66,3.23-4.74,7.91-17.57l-4.92,8.46Z" transform="translate(-270.11 -96.48)"/><path class="cls-3" d="M1092.72,818.45l.17-.3c3.27-9.86,5.53-16.7,6.5-19.64Z" transform="translate(-270.11 -96.48)"/><path class="cls-3" d="M1089.15,829.55c.28-.84.48-1.46.75-2.29A4.31,4.31,0,0,0,1089.15,829.55Z" transform="translate(-270.11 -96.48)"/><path class="cls-3" d="M1055,926.69c3.31-14,11.34-42.7.76-15.8C1054,921.08,1060,905.68,1055,926.69Z" transform="translate(-270.11 -96.48)"/><path class="cls-3" d="M1083,840.06l-8.43,24.44c.67-.31,2.87-4.5,1.23,2.41Z" transform="translate(-270.11 -96.48)"/><polygon class="cls-3" points="816.2 731.33 812.92 743.58 816.04 734.52 816.2 731.33"/><path class="cls-3" d="M1128.79,711.25c2.64-10.88,6.39-22.51,10.57-35.66-5,13.92-10,28.37-14.54,42.17C1124.79,719.91,1123.9,726.33,1128.79,711.25Z" transform="translate(-270.11 -96.48)"/><path class="cls-3" d="M1111.05,763.28c.21-.75.47-1.7.67-2.4C1111.07,762.28,1110.64,763.42,1111.05,763.28Z" transform="translate(-270.11 -96.48)"/><path class="cls-3" d="M1181.82,546.44l-1,2a6,6,0,0,1,.18.59Z" transform="translate(-270.11 -96.48)"/><path class="cls-3" d="M1123.68,720a160.68,160.68,0,0,0-6.84,23.11c2.41-8,5-16.37,8-25.35C1124.83,716.79,1124.7,716.57,1123.68,720Z" transform="translate(-270.11 -96.48)"/><path class="cls-3" d="M1155.41,633.5c-2.22,5.36-4.62,11.48-7.1,17.93C1150.7,646.26,1155.28,635.61,1155.41,633.5Z" transform="translate(-270.11 -96.48)"/><path class="cls-3" d="M1113.43,757.5c-.14.54-.28,1-.43,1.61C1114.56,755.79,1114.21,756.15,1113.43,757.5Z" transform="translate(-270.11 -96.48)"/><path class="cls-3" d="M1113.43,757.5c1.51-5.53,2.43-10,3.41-14.39-2,6.48-3.71,12.51-5.12,17.77C1112.29,759.62,1112.93,758.38,1113.43,757.5Z" transform="translate(-270.11 -96.48)"/><path class="cls-3" d="M1181.85,503.18c1.22,2.44-6,30.84-15.79,54.19-6.38,24,4.68,10.59,14.73-9-.56-1-1.27-1.23,5.51-25.92-3.72,8.22-19.84,53.23-14.81,32.18,9.53-32.52,9.21-26.19,15.21-41.56-3.28,6.3-.8-4.22,1.76-15.58s5.22-23.54,2.43-20.56l-7.82,28.66C1182.39,506,1184.84,495.47,1181.85,503.18Z" transform="translate(-270.11 -96.48)"/><path class="cls-3" d="M1165.42,594.67l-3.07,10.07c4.05-11.28,7.51-19.22,13.85-33.78,4.57-16.94,5-20.63,4.77-22l-16.41,49.19Z" transform="translate(-270.11 -96.48)"/><path class="cls-3" d="M1147.59,649.58c.6-8.45,7.65-32.71.68-18.73-9.51,29.35-5.11,21.08-10,38.87,15.08-47.45-3.37,13.95,9-19.85-2.73,9.4-5.38,17.8-7.89,25.72,3-8.44,6-16.55,9-24.16l-.48,1-.06.22s0-.05,0-.05c-.92,2-1.29,2.58-.39.32,0-.16.21-.74.29-1a7.06,7.06,0,0,1-.05-2.39c4.92-13.56,1.23-2,.05,2.39,0,.18,0,.59.1.67s0-.11.08-.17l14.52-47.73C1158.77,614.68,1154.7,627.25,1147.59,649.58Z" transform="translate(-270.11 -96.48)"/><path class="cls-3" d="M1059.77,884.19c.65-1.41.77-1.3,1-1.36C1061.47,879.68,1061.68,878.46,1059.77,884.19Z" transform="translate(-270.11 -96.48)"/><path class="cls-3" d="M1067.3,865.06a112.73,112.73,0,0,1-4.83,17.82c-3.75,9.54-.94-.35-1.75,0-1.67,6.92-6.26,24.11,1.58,3.23l.82-3.44c6.88-18.88,17.31-42.62,16.5-39.19C1076,848.42,1073.17,852.92,1067.3,865.06Z" transform="translate(-270.11 -96.48)"/><path class="cls-3" d="M1107.25,755.74l12-39.77-8.33,19.53,1.37-.69C1104.51,757.12,1107.38,752.69,1107.25,755.74Z" transform="translate(-270.11 -96.48)"/><polygon class="cls-3" points="914.16 445.76 914.54 451.68 918.99 427.86 914.16 445.76"/><polygon class="cls-3" points="930.42 394.2 931.63 396.69 934.85 382.73 930.42 394.2"/><path class="cls-3" d="M291.9,967.87a4.83,4.83,0,0,0,1.17,1.85,1.88,1.88,0,0,0,1,.46,4.15,4.15,0,0,0,1.16-.11,3,3,0,0,1-1.47,0,2.32,2.32,0,0,1-.95-.7A7.48,7.48,0,0,1,291.9,967.87Z" transform="translate(-270.11 -96.48)"/><path class="cls-3" d="M299.83,890.37l-.56-2.28C299.09,892.18,299.18,893.88,299.83,890.37Z" transform="translate(-270.11 -96.48)"/><path class="cls-3" d="M680,355.71c-4.76,1.24-9.53,2.73-14,4.3-2.22.77-4.34,1.57-6.34,2.36l-2.89,1.16-2.58,1.1c-1.67.73-3.05,1.3-4.36,1.92s-2.42,1.17-3.27,1.66c-1.69,1-2.35,1.63-1.59,1.81,2-.36,4-.69,6-1,2.74-1.57,5.25-3,7.85-4.42s5.08-2.61,7.5-3.71A109.86,109.86,0,0,1,680,355.71Z" transform="translate(-270.11 -96.48)"/><path class="cls-3" d="M494.2,322.93c-.74,1.53-1.52,3.12-2.31,4.69-.38,2.15-.79,4.23-1.17,6.23s-.79,3.9-1.06,5.71c.6-2.5,1.46-5.14,2.21-7.94S493.44,325.92,494.2,322.93Z" transform="translate(-270.11 -96.48)"/><path class="cls-3" d="M489.68,308.57c1.26-3.53,2.42-7.06,3.39-10.55l.69-2.61c.22-1,.35-1.33.49-1.91a31.89,31.89,0,0,0,.66-3.37c-.15.79-.33,1.64-.56,2.55s-.43,1.53-.93,3.52C492.53,299.64,491.3,303.75,489.68,308.57Z" transform="translate(-270.11 -96.48)"/><path class="cls-3" d="M532.17,591.53l5.67-13.32C526.12,597.32,532.21,589.48,532.17,591.53Z" transform="translate(-270.11 -96.48)"/><path class="cls-3" d="M1126,173.76c-12.29,9.44-21.68,17.38-29.8,24.51C1110.85,186.71,1123.4,178.28,1126,173.76Z" transform="translate(-270.11 -96.48)"/><path class="cls-3" d="M270.25,940.49c-.07,1.93-.12,3.58-.14,5s.05,2.55.1,3.44c.1,1.79.28,2.57.52,2.47,0-2,0-3.79,0-5.32s0-2.76,0-3.72C270.75,940.42,270.58,939.69,270.25,940.49Z" transform="translate(-270.11 -96.48)"/><path class="cls-3" d="M1063.37,228.39c2.13-1.7,4.16-3.44,6.3-5.19,4-4,8-7.92,12.4-12s9-8.35,14.13-12.92C1085.38,206.78,1073.42,217,1063.37,228.39Z" transform="translate(-270.11 -96.48)"/><path class="cls-3" d="M1023.38,838.88c-.48,1.18-1,2.63-1.45,3.69C1022.09,843,1022.63,841.35,1023.38,838.88Z" transform="translate(-270.11 -96.48)"/><path class="cls-3" d="M851.61,1319.2c1.43-4.79,3.94-12.56,6.25-19.9C856.58,1302.83,854.69,1308.83,851.61,1319.2Z" transform="translate(-270.11 -96.48)"/><path class="cls-3" d="M1264.43,282.71c-3,11.07-.28,1.81,0,0Z" transform="translate(-270.11 -96.48)"/><path class="cls-3" d="M1240.91,333.94c.46-2.41.7-4.27.31-4.68A13.21,13.21,0,0,1,1240.91,333.94Z" transform="translate(-270.11 -96.48)"/><path class="cls-3" d="M990.46,317.34l-.7.7C992.45,315.92,992,316.28,990.46,317.34Z" transform="translate(-270.11 -96.48)"/><path class="cls-3" d="M1258.74,299c1.45-4.06,3-8.77,4.66-13.93C1262.59,287.34,1261.18,291.58,1258.74,299Z" transform="translate(-270.11 -96.48)"/><path class="cls-3" d="M1260.34,297.08c-1.18,3.78-2.1,6.75-3,9.58C1257.29,308.15,1257.85,307,1260.34,297.08Z" transform="translate(-270.11 -96.48)"/><path class="cls-3" d="M1268.69,267.29c-1.75,6.33-3.52,12.2-5.29,17.82.76-2.13,1.13-3,1-2.4C1265.33,279.46,1266.59,274.88,1268.69,267.29Z" transform="translate(-270.11 -96.48)"/><path class="cls-3" d="M994.35,371.31c.57-.51,1.2-1.12,1.84-1.65C1003.53,360.68,1000.12,364.44,994.35,371.31Z" transform="translate(-270.11 -96.48)"/><path class="cls-3" d="M498,591.55c.27-.46.38-.73.62-1.15-.31.44-.7,1-1,1.38Z" transform="translate(-270.11 -96.48)"/><path class="cls-3" d="M477.44,627c7-16.18,12.55-24.41,20.16-35.22L485.21,600Q481.24,613.48,477.44,627Z" transform="translate(-270.11 -96.48)"/><path class="cls-3" d="M401.47,830.07l-7.34,12.39c-2.46,4.09-4.91,8.2-7.41,12.25,3.33-8,6.51-15.36,9.23-21.57s5.05-11.41,6.52-14.76c2.93-6.71,2.34-6.48-5,5.08,1.9,3.4-10.19,28.41-23.5,52.61-6.62,12.11-13.57,23.93-18.78,33s-8.64,15.48-7.87,17.21c-3.88,4.77-7.91,9.34-12,13.67a49.12,49.12,0,0,0,3.34-4.42c.86-1.2,1.68-2.46,3.24-4.5-5.88,6.63-9.73,11-12.6,14.64-1.48,1.75-2.64,3.44-3.79,4.94-.56.76-1.1,1.52-1.63,2.29l-1.65,2.23A50.71,50.71,0,0,1,313.1,965a45.43,45.43,0,0,1-8.21,5.25c-.83.43-1.72.77-2.64,1.17l-.58.25-.44.16-.91.31c-.61.21-1.28.34-2,.51s-1.4.25-2.13.32l-1.49.06-1.39-.07a2.33,2.33,0,0,1-2-1.31,6,6,0,0,1-.65-2.12,8.27,8.27,0,0,1-.08-1.66c0-.91.22-1.39.43-1.38s.46.48.89,1.4a17.22,17.22,0,0,1-.87-3.43c-.06-.31-.09-.62-.14-.93l-.06-.48,0-.31,0-.52c-.11-1.39-.09-2.87-.14-4.3-.18-5.77.06-11.77.33-17.76.6-5.22,1.16-7.17,1.37-6.5a12.22,12.22,0,0,1,.05,2.86c0,.78-.11,1.69-.21,2.74s-.17,2.21-.3,3.5c.74-9.08,1.8-18.27,3.07-27.47l1-6.9,1-6.91c.67-4.6,1.47-9.21,2.21-13.81l.12.44c.14-4,.72-10.57,1.3-17.22s1.36-13.41,1.91-17.83c3.74-13.84-.74,7.17.8,3.74l2.28-15.43L308,825.92c4.3-12.08.48,13.54-3.84,34.58,6-13.63,6.89-20,8.34-30.61s3.44-25.4,12.26-55.64l-2.84,14.45-2.77,14.46a138.82,138.82,0,0,0,5.18-14.29c1.6-5.11,3.1-10.6,4.66-16.54s3.25-12.28,5.07-19.16,4.12-14.27,6.66-22.23c-.77,1.85-2.5,6.74-4.57,12.52-1,2.89-2.15,6-3.26,9.07s-2.15,6.07-3.16,8.77c-4.05,10.79-7,16.51-4-.15a362.21,362.21,0,0,0,8.92-39.44c2.31.37,6-17.11,11.21-38.85l2.64,2.2c4.9-23.68,2.91-22.2,4.95-36.34,6.72-26.1,10.38-31,13.84-36.62,10.76-41.78-10.82,28,.79-21.72,4.85-17.29,8.47-32.12,11.93-47.9,1.73-7.89,3.43-16,5.22-24.81s3.81-18.19,6-28.69c7.39-24,.72,4.72,3.85-3.76l3.31-22.11c1.47-5.24,1.74-3.35,1.88-2.39,4-18.31-2.64-2.31,4.41-30.9-.55-4.27,4.69-18.53,11.22-36s14.4-38.08,19.11-55.47c4-7.9.21,4.65,2.31,2.56A270.48,270.48,0,0,1,447,315.17c1.35-3,2.56-5.56,3.73-7.73s2.32-4.19,3.48-6,2.32-3.57,3.61-5.31a54,54,0,0,1,4.46-5.32,35.14,35.14,0,0,1,6.37-5.26c.65-.38,1.33-.81,2.06-1.16l.55-.28.7-.32,1.44-.63c1.95-.84,4.05-1.7,6.33-2.53l1-.19.74-.12,1.47-.2c1-.11,1.93-.19,2.88-.22a12.12,12.12,0,0,1,5.44.78,5.88,5.88,0,0,1,2.15,1.65,7.2,7.2,0,0,1,1.23,2.46,14.55,14.55,0,0,1,.33,5.36c.61-3.93.16-6.12.77-6.62s2.08.63,3,3.77a20.49,20.49,0,0,1,.66,5.94c0,.59,0,1.21,0,1.85s-.08,1.45-.16,2.19c-.13,1.54-.33,3.14-.56,4.79a196.85,196.85,0,0,1-4.34,20.88,172.59,172.59,0,0,0,8.74-20.66,228.91,228.91,0,0,1-5.8,22.53c-1.12,3.7-2.31,7.4-3.52,11l-.91,2.71-.82,2.69-1.63,5.49c-2.2,5.09-1.81.38-.6-7.16-.78,3-1.48,5.94-2,8.21-3.09,7.62-4.34,9.31-4.65,7.59s.39-6.84,1.46-12.73c.6-1.28,1.2-2.56,1.79-3.84l.92-1.93,1-1.88c1.28-2.49,2.52-4.93,3.73-7.36a117.6,117.6,0,0,0,1.92-15c.15-3.84-.29-6-1.46-5.16a108.42,108.42,0,0,1-3.62,14.28c.47-2.93.59-4.83-.11-3.65-.79,1.34-1.62,6-3.46,13.25-1.15,1.48-2.32,2.84-3.47,4.41l-3.36,4.53.49,2.87q-2.65,7.16-5.15,14.36l-2.45,7.24-2.35,7.17-9.33,28.71c-4.18,21.24-7.49,41.25-11.73,64.25s-9.36,49-16.9,82.36c1.65-17.07-3.13-4.54-5.81-6.15,7.59-17.35,11.68-51.75,21.6-85.85-5.15,17.79-5.43,13.5-4.71,8.81q-6.81,31-13.18,62c-2-2-5.1,12.58-10,28.41,3.84-5.49,1.78,6.15-1.73,22.35s-8.39,37-10.48,49.72c-1.91,1.21-2.26-5.21,5.31-35.72-5.76,16.46-6.87,27.72-7.87,38.89s-1.88,22.28-7,38.56c1.59-7.5,2.71-11.48,2.54-14.62-.59,4.45-1.69,10.45-3,16.77s-2.81,13-4.17,18.82c-2.72,11.62-4.85,19.84-4.59,14.59l1.46-7.57c-1.21,5.69-2.5,12.06-3.73,19-.6,3.49-1.19,7.11-1.68,11-.24,1.94-.47,3.89-.61,6,0,.54-.07,1-.08,1.65l0,.87v1a14.09,14.09,0,0,0,.12,1.57,11.53,11.53,0,0,0,.53,2.32,10.52,10.52,0,0,0,.8,1.73,9.07,9.07,0,0,0,.72,1.06l.47.55.3.3.49.5,2.43,2.42,3.23-.08c.41,0,.83,0,1.24-.09a6.94,6.94,0,0,0,1.13-.19c.31-.08.62-.16.93-.26l.46-.14.35-.15a14.11,14.11,0,0,0,1.33-.6c.35-.2.72-.4,1.06-.61a24.26,24.26,0,0,0,3-2.29,44.56,44.56,0,0,0,4.16-4.28c2.44-2.82,4.55-5.63,6.59-8.5,4.07-5.73,7.75-11.61,11.21-17.47s6.68-11.73,9.65-17.38l8.6-16c10.88-20.27,19-35.57,19.12-38.92.72-.15.81,8.26-.05,11.3,11.5-28.19,23.73-56.21,36.47-84.07-.72,4.31,4.89,1.19,8,1.56s3.64,4.15-6.92,22.33c7-9.86,15.55-22,28.7-43.85-5,6.54-15.65,14.24-9.67,4.68,10.24-11.75,13.71-15.87,17.61-20.79s8.24-10.64,20.52-25.26c-3.85,4.83-4.94,3.66-3.65-.72s5-11.95,10.73-19.84c-1.1,3,5.37,1.85,1.71,8,7.91-14.21,16-28.34,24.34-42.27-6.53,10.24,2.35,4.42,10.16-3.13-1.95,1.66,4.41-6.61,12.49-16.22,4-4.82,8.53-9.89,12.56-14.27s7.65-8,9.72-10.12c-4.92,4-9.82,8.65-14.56,13.4,4.51-5,8.48-9.19,12-12.83l1.3-1.33.53-.56a3.5,3.5,0,0,1,.39-.38l2.58-2.22,5-4.14c6.34-5.21,11.49-9.42,16.8-13.51,1.32-1,2.68-2,4.09-3s2.78-2.09,4.24-3.1a105.66,105.66,0,0,1,9.73-6.15,85.25,85.25,0,0,1,12.76-5.83,66.05,66.05,0,0,1,8-2.37,52.89,52.89,0,0,1,9.33-1.35,15.68,15.68,0,0,0-2.42.82,12.75,12.75,0,0,0-2.14,1.21c-1.24.92-2,1.9-1.73,2.7a1.84,1.84,0,0,0,1.15,1.06,12.56,12.56,0,0,0,2.91.69c1.29.18,2.91.36,4.88.55a18.36,18.36,0,0,1,2.41.51c.44.12.9.26,1.39.43.25.08.5.18.76.28s.27.11.38.16.19.07.3.13a14.59,14.59,0,0,1,3.84.44,10.54,10.54,0,0,1,4.64,3.68A36.66,36.66,0,0,1,724.9,380c.87,1.54,1.7,3.25,2.53,5.06a129.51,129.51,0,0,1,4.74,12.18c5.94,17.83,11.07,40.65,13.88,64.69l-.94,9.37c.73,6.15,1.37,12.28,2.17,18.35s1.6,12.17,2.49,18.23c-1.59-5.58-3.66-13.77-5.83-23.45s-4.46-20.94-6.92-32.53-5.06-23.49-7.62-34.59-5.11-21.38-7.69-29.22a85.19,85.19,0,0,1,.9,9.49c.07,1.9,0,2.94.06,4.25,0,2.67.57,6.45,2.18,21.57-.22,5.43-1.16,1.34-2.24-5.16s-2.43-15.23-3.12-19.58c1.54,11.3,2.57,23.09,3.49,34.85s1.64,23.63,2.3,35.5c.75-.85,1.57,2.11,2.4,7,.41,2.44.82,5.41,1.23,8.59s.9,6.68,1.37,10.15c.93,6.9,1.92,13.82,2.87,18.83s1.82,8.1,2.41,7.33c-2-13-3.7-26-5.15-39.07s-2.85-25.76-4.47-38.56c1.48-1.7,4.74,9.25,7.79,27,.76,4.45,1.5,9.33,2.22,14.56s1.54,10.81,2.32,16.59l2.36,18c.42,3.08.8,6.19,1.25,9.33l.35,2.51.4,2.73c.29,1.82.52,3.66.86,5.47.35,3.88.22,5.45-.39,5.58-.29.05-.74-.23-1.2-.84a21.17,21.17,0,0,1-1.57-2.6A80,80,0,0,1,737,534c-.5-1.2-.91-2.26-1.23-2.93s-.52-.71-.63-.57c.11.32.3,1.24.53,2.29s.49,2.29.79,3.69l1,4.6c.39,1.62.8,3.37,1.24,5.22s1,3.59,1.59,5.5l.21.71.25.65q.25.64.51,1.32c.36.86.67,1.82,1.06,2.64,1.66,3.22,3.28,6.31,5.3,9.45a21.2,21.2,0,0,0,2,.91,5.48,5.48,0,0,0,1.28,0,9.6,9.6,0,0,0,1.16-.21,40.59,40.59,0,0,0,4.11-1.22,36.39,36.39,0,0,0,7.55-3.75c2.35-1.53,4.43-3.13,6.07-4.43s2.84-2.22,3.48-2.66c-3.82,3.68-7.91,7.41-11.91,9.86a31.31,31.31,0,0,1-5.81,2.8c-.94.33-1.87.63-2.84.91a13.78,13.78,0,0,1-3.2.61,13.91,13.91,0,0,0,3-.27c.91-.16,1.78-.34,2.66-.54a25.49,25.49,0,0,0,5.39-1.91,33.19,33.19,0,0,0,5.58-3.44c1.85-1.37,3.69-2.91,5.47-4.5,3.57-3.19,7-6.51,10.22-9.79l1.14-1.17.79-.84,1.57-1.7,3.14-3.41a317,317,0,0,1,30.37-29.79c4.21-4.14,11.09-9.74,16.9-14.68s10.55-9.23,10.55-10.63c-15.93,11.43-26.76,6.11-20-5,1.51-1.39,12.73-11.91,24.76-23.32s24.88-23.66,30.07-28c15.16-12.34-14.42,26.12-1.49,15.63-.17-1.11,6.19-9.78,8.93-13.28,8.87-8.56-1.44,5.58,16.35-14.36.55-5.57,37.23-39.62,6.53-11.17,8.56-9.91,13.44-14.86,18.79-20.15l8.92-8.84c3.44-3.46,7.52-7.66,12.81-13.22-4.14,2.8-.7-3.45,6-12.81a362.7,362.7,0,0,1,25.66-31.48c-.5,1.69,4.41-1.74,6.78-3.42,19-18.93,34.08-33.06,48.87-46.77l47.77-43.94c2-1.26,7.56-5.8,11.84-9s7.27-5.06,3.93-1.09c4.94-5.25,9.08-10.52,20.61-20.75,12.16-8.75,5.76-3-1.24,3.36s-14.52,13.49-4.91,7.22c.09-1.37,7.08-8.48,16.13-17s20.2-18.53,28.36-25.85c-3.56.94-13.49,8.85-24.35,18.6s-22.61,21.36-30.39,29.14c-.7-.73.37-3.1,3-6.76a163.27,163.27,0,0,1,12.24-14.66A496.41,496.41,0,0,1,1169.84,145c4.09-3.28,7.41-5.89,10.16-7.88s4.81-3.47,6.43-4.48c3.22-2,4.39-2.45,4.68-2.22.58.46-2.34,3.47.46,1.13,8.15-5.57,15.2-10.16,21.66-14.1,3.41-1.86,6.41-3.4,9.35-4.83s5.69-2.67,8.34-3.76a94,94,0,0,1,14.69-4.84,53.93,53.93,0,0,1,6.81-1.17,27.66,27.66,0,0,1,3.59-.2c1.2,0,2.31.06,3.41.14a75.19,75.19,0,0,1,12.27,2.18l1.92.55c.67.21,1.34.43,2,.67l2,.85c.66.31,1.28.72,1.93,1.09a22.24,22.24,0,0,1,6.58,6.78,20.11,20.11,0,0,1,1.29,2.22,20.61,20.61,0,0,1,1.16,2.45c.17.4.33.81.5,1.22s.27.74.4,1.12c.25.74.52,1.52.73,2.28a57.85,57.85,0,0,1,1.81,9.62,88.13,88.13,0,0,1,.48,10.61c0,.94,0,1.89,0,2.86-.09,1.12-.18,2.25-.26,3.4s-.3,2.1-.46,3.19c-.08.53-.17,1.07-.25,1.61s-.21,1-.31,1.56a68,68,0,0,1-2.27,7.48,15.38,15.38,0,0,1-1.67,3.51c-.91,1.27-1.42.66-1.78-.55-.71-2.43-1-7.32-2.4-4.66.16-1.05.33-2.08.49-3.11s.28-2,.42-3c.31-2,.49-3.95.69-5.85a94.84,94.84,0,0,0,.06-10.9,90,90,0,0,0-.93-9.88c-.24-1.57-.56-3.11-.94-4.62-.22-.75-.39-1.51-.65-2.24s-.49-1.53-.82-2.24a18.82,18.82,0,0,0-5.35-7.52,16.76,16.76,0,0,0-4-2.22c-.7-.29-1.4-.56-2.11-.83l-2-.73a62.2,62.2,0,0,0-8.16-2.41,36,36,0,0,0-4.43-.68,22.84,22.84,0,0,0-2.33-.07c-.75,0-1.51,0-2.27.09.62,0,1.25,0,1.88,0l.93,0,1,.06a32.43,32.43,0,0,1,3.78.56,60,60,0,0,1,7.08,1.95c2.29.77,4.47,1.59,6.91,2.59a14.06,14.06,0,0,1,6,4.58,15.41,15.41,0,0,0-3.88-2.9,31.35,31.35,0,0,0-5.37-1.86A77.69,77.69,0,0,0,1257,108.9a31.81,31.81,0,0,0-6.47,0,57.62,57.62,0,0,0-6.2.8c-4,.72-7.61,1.67-10.6,2.49,2.66-.59,6.65-1.61,11.81-2.32a50.1,50.1,0,0,1,8.56-.47,43.41,43.41,0,0,1,9.79,1.88q2.57.75,5.24,1.68a20.61,20.61,0,0,1,5.16,2.29,14.26,14.26,0,0,1,3.94,4.33,22.74,22.74,0,0,1,1.41,2.68,29.71,29.71,0,0,1,1.07,2.92,56.31,56.31,0,0,1,2.27,12.9c.18,2.24.27,4.53.3,6.84,0,1.15,0,2.32,0,3.46l-.09,1.73c-.05.58-.14,1.16-.2,1.74-.51,4.66-1.43,9.38-2.36,14.12s-2,9.5-3.15,14.26c-2.24,9.53-4.71,19-7.17,28.29-5,18.49-10.12,36-14.7,50.31-2.06,10.54-6.29,28.56-2.88,20.44l4.86-18.45c6.81-16.31-7,35.34.53,12.37-5.6,25-11.41,53.25-22.87,87.46l-4.78,5.63c1.06-.48,8.45-22.06,10.44-32-3,14.81-19.63,51.8-20.77,68.65l9.31-23.57c-6,25-12.35,56.35-22.83,86.57,7.13-13,1.91-7.12,11.91-27.8-5,8.77,1.18-10.73,6.74-28.85s10.59-34.83,3.87-20.34c10.56-21.16,13.28-38.12,25.11-66.42-1.21.63-4.82,9.84,3.17-15.79.06-1.25.51-4.09.81-5.9l.57-1.72-.52,1.39c.18-1.16.18-1.27-.19.52a102.68,102.68,0,0,1-5.24,12.72c.79-6.71,4.18-20.3,7.67-34s7.07-27.54,8.43-34.66c4.66-15.25-.68,6.73,2.62-1.39q2-10.63,4-21.29c2.69-1.47,14.16-40.25,5.94-3.41q4.39-16.38,8.4-33c.74-2.41,1.46-5,2.18-7.61s1.43-5.4,2.11-8.23a145.48,145.48,0,0,0,3.42-18.32c.09-.88.13-1.93.19-2.88l.07-1.46a4.84,4.84,0,0,0,0-.65v-.58c0-1.56,0-3.1-.09-4.67-.08-3.08-.39-6.23-.78-9.29a64.89,64.89,0,0,0-2-9.25c-.2-.75-.5-1.55-.75-2.3-.14-.38-.27-.75-.4-1.12l-.48-1.16a36,36,0,0,0-2.59-5.13,28,28,0,0,0-6.77-8.21l-1.08-.85-1.17-.75c-.39-.25-.79-.5-1.19-.73l-1.25-.6c-.41-.21-.85-.37-1.25-.6l-1.3-.5c-.89-.33-1.71-.6-2.53-.86s-1.38-.42-2-.59l-1.71-.46c-1.14-.3-2.27-.57-3.39-.82-2.24-.49-4.42-.86-6.46-1.11a47.77,47.77,0,0,0-5.5-.34l-1.1,0-.49,0-.35,0-.93.07c-.37,0-.21,0,.6-.12l.74-.08,1.22-.07c.89,0,2-.06,3.17,0-.76-.08-1.54-.15-2.39-.18-.41,0-.83,0-1.28,0s-.89,0-1.22,0l-2.13.09-2.08.18a68.83,68.83,0,0,0-8,1.31,97.09,97.09,0,0,0-14.44,4.58c-4.54,1.84-8.87,3.89-13.06,6.08-1,.52-2.2,1.18-3.3,1.77a18.26,18.26,0,0,0-1.58.93l-1.51,1c-2,1.28-4.1,2.57-5.94,3.85l-.71-.18a372,372,0,0,0-33,23.85c-10.69,8.53-21.19,17.51-31.78,26.69l-32.16,28.09c-10.93,9.48-22.13,19-33.77,28.5-12.55,12.43-25.37,25.37-47,45.46l-5.43,2.67c-7.88,8.14-20.33,19.72-31.4,30.42S965,322.16,962.35,326.33c-10.36,6.95-29.7,26.51-49.65,48.11-10,10.78-20.11,22.1-29.47,32.5l-13.32,14.8c-4.14,4.57-7.95,8.73-11.37,12.3l.81,2.75c-9.22,10-18.16,19.86-27.62,30.34S812.26,488.7,800.8,501l3,.05a336.91,336.91,0,0,1-25.16,25.34q-3.71,3.42-7.64,6.91l-1,.85-.53.44-1,.86-2.09,1.68c-1.39,1.1-2.78,2.15-4.18,3.11a19.28,19.28,0,0,1-2.16,1.33,3.11,3.11,0,0,1-1.19.4,1.66,1.66,0,0,1-.32,0l-.18-.31A3.43,3.43,0,0,1,758,541a24.57,24.57,0,0,1-1.26-4.68c-.29-1.56-.51-3.1-.71-4.62-.24-2-.49-3.92-.73-5.9l-1.2-10.16a54.5,54.5,0,0,1,1.64,9.31c.13,1,.27,2.13.4,3.24,0,.48.08,1,.11,1.45.06,1,.12,2,.15,2.9,0-.78,0-1.56.05-2.35l0-1.08v-1.23q-.39-5.1-.78-10.25c-.54-6.88-1.1-13.88-1.72-20.91s-1.28-14.11-1.92-21.17-1.42-14.33-2.22-21.45c-1.6-14.24-3.37-28.32-5.12-42.06-.88-6.88-1.76-13.65-2.78-20.48q-.77-5.1-1.76-10.25a99.86,99.86,0,0,0-2.62-10.61l-.3-.68-.38-.82c-.26-.54-.53-1.07-.78-1.6-.57-1-1.1-2.07-1.73-3a24.16,24.16,0,0,0-4.14-5,24.84,24.84,0,0,0-5.09-3.4,43.43,43.43,0,0,0-5.35-2.37,36,36,0,0,0-9.94-2.13l-1.25-.05-1,0-2,0c-1.31.05-2.65,0-3.93.14,1.35-.18,2.61-.27,3.67-.43l-2.76.19c-1,.12-2.17.24-3.3.4a96.09,96.09,0,0,0-9.6,1.39c-3.18.66-6.4,1.46-9.65,2.45a156,156,0,0,1,16.1-3.3,98.63,98.63,0,0,0-18.59,5.73c-3.32,1.38-6.71,2.91-10,4.61s-6.69,3.52-9.86,5.38L651,369c-1,.61-1.92,1.08-3,1.74-6.64,3.26-9,5.16-8.81,5.72s3-.07,6.78-1.28a137.93,137.93,0,0,0-15.82,11.87,24.42,24.42,0,0,0-4.76,2.23q-1.26.75-2.58,1.65a15.86,15.86,0,0,0-1.72,1.34l-1.34,1.2c-.84.77-1.71,1.57-2.57,2.41s-1.67,1.73-2.52,2.63c-1.73,1.78-3.35,3.7-5.06,5.62-6.7,7.73-13.22,16-19.73,20.94-1.17,2.21-4.5,6.94-8.79,13s-9.51,13.36-14.56,20.73c-10.1,14.71-19.43,29.59-20,33.88-.71.1-3.36,3.4,1.08-2.95-9.61,12.79-19.07,25.68-26.18,38.19l-6.26,4q-8.13,15.58-16.06,31.25c-13.11,16.74-18.75,23.62-9.19,4.68-12.4,22.3-17.58,31.23-22.28,39.35s-8.89,15.43-18.56,34.85l-.55-2.79c-4,6.64-8.52,15.63-12.8,23.88s-8.28,15.75-11.27,19.45c-.87,1.21-1.83,2.6-2.84,4.15l-3.23,5.07c-2.3,3.62-4.94,7.8-7.88,12.44s-6.26,9.6-10,14.72c-1.86,2.54-3.85,5.16-5.92,7.55a37.06,37.06,0,0,1-3.06,3.22c-.25.25-.45.39-.67.59s-.4.31-.49.35l-.09.06h0l0,.07.16.31.31.63c.2.39.37.67.52,1s.28.71.4,1.06a4.81,4.81,0,0,1,.27.81c0,.14.06.28.09.43s.05.2.07.3a3,3,0,0,1,0,.61l5.54-3.33-.48-.49-.06-.06c1-1.07-9.13,9.16-4.81,4.81l0,0a2,2,0,0,1,.2-.16,4.47,4.47,0,0,1,.66-.33,17.76,17.76,0,0,1,5.44-.87H399v-.26l0-.53c0-.34,0-.7.05-1.11l.09-1.18.12-1.25c.08-.82.19-1.69.3-2.56.44-3.48,1-7.13,1.67-10.84,1.3-7.44,2.83-15.19,4.48-23.1s3.43-16,5.24-24.22,3.63-16.51,5.53-24.79c7.52-33.15,15.84-66.3,23.9-94.21-4.78,7.65-1.74-2.18,2.17-14.45s8.67-27,7-29.21c2.58-4.65,6.43-16.37,3.93-2.24,10.13-43.95,19.47-64.87,24.32-95.84,2.68-4.6-.72,9.82,1.28,5.62.68-3.57,2.77-14.1,4.82-18.4s-.73,6.66-2.12,13.68c6.16-22.18,8.66-34.65,9.22-42.07s-.67-9.85-2-12c2.18-5.39,4.09-10.1,5.76-14.39.43-1.09.75-2,1.2-3s.8-2,1.2-3c.76-2,1.48-3.95,2.11-5.86a110.56,110.56,0,0,0,5.19-23.56c.83-1.95,1.7-4.27,2.42-6.23.35-1,.69-1.88,1-2.57.14-.36.26-.65.37-.9a4.38,4.38,0,0,1,.33-.66c.18-.25.29-.13.3.51a17.75,17.75,0,0,1-.18,2.89,104,104,0,0,1-3.21,14.68c.62-2,1.54-5,2.55-8.89.51-1.93,1-4.09,1.51-6.46.13-.59.23-1.18.35-1.85.15-.82.3-1.64.4-2.48s.23-1.69.35-2.55l.2-2.62a33,33,0,0,0-1.12-10.72,23.07,23.07,0,0,0-2.13-5.09,16.79,16.79,0,0,0-3.57-4.37,17.15,17.15,0,0,0-4.9-3,22.27,22.27,0,0,0-5.61-1.32,41.6,41.6,0,0,0-12,.78c-1,.18-2,.42-3,.64l-1.45.35-1.12.3c-1.48.39-2.92.82-4.33,1.26s-2.78.9-4.11,1.37l-1,.35-1.15.45c-.79.29-1.54.62-2.27,1a46.34,46.34,0,0,0-13.56,9.86,53.67,53.67,0,0,0-6.9,8.71c-1.4,2.28-2,3.75-1.84,4.15a37.84,37.84,0,0,0-3.61,4.92,81.61,81.61,0,0,0-4.12,7.37A115.89,115.89,0,0,0,427.65,319c-3.74,8.47-6.32,15.06-8.46,20.69s-3.83,10.28-5.45,14.92c-3.24,9.3-6.31,18.57-11.36,35.71l3.38-9.32c-.59,14.56-7.85,28.6-15.07,56.41l-.15-.89c-5,15.69-7.83,25.29-9.62,31.82s-2.53,10-3.29,13.38-1.5,6.81-3.27,13.22c-.88,3.21-2,7.17-3.51,12.28s-3.28,11.37-5.58,19.15l3.08-2.86c3.39,7.09-16.54,55.08-23.67,92.11l4.52-12.88c-3.24,20.37-20.27,54.19-25.8,74.12-1.5,4.27,1-7.07,2.2-13.25-15.74,51.83,1.28,7.52-7.64,46.81-3.36,6.84-1.76-10.27-8.52,16-1.13,3.2-2.54,9.66-4.21,18.08s-3.4,19-5.34,30.13C296,796.92,291.42,822.12,286.2,840c1.41-3.89,2.88-7.75,3.6-8.32s.68,2.14-.69,11.43c-2.63,14.14-7.51,33-11.38,51.83S271,932.61,272,946.07c-.58,3.74-1,5.16-1.31,5.3-.09,2.82,0,6.21.06,9.87,0,1,.09,2.12.14,3.21.09,1.34.16,2.7.29,4.07s.25,2.75.52,4.11l.34,2.06c.16.67.31,1.35.47,2a30.26,30.26,0,0,0,2.94,7.62,14.28,14.28,0,0,0,5.68,5.83,11.52,11.52,0,0,0,1.93.7,4.76,4.76,0,0,0,1,.18l1,.12,2,.23a5.81,5.81,0,0,0,1,.07l1.09-.06,2.17-.12a14.59,14.59,0,0,0,2.17-.2c1.46-.24,2.91-.41,4.35-.71l4.29-1.08c1.4-.43,2.77-.94,4.14-1.4l1-.35.85-.37,1.56-.69,1.54-.7,1.46-.76a71.34,71.34,0,0,0,10.3-6.49A68,68,0,0,0,335.26,967c2.64-1.06,6.14-3.57,10.1-7.22a118.75,118.75,0,0,0,12.51-14.17c8.63-11.23,17.22-25.55,24.88-39.5,15.33-27.9,27.2-54.32,30.45-52.4l15.09-30.16q7.56-15,15.27-29.94l-.15,1.9c10.19-18.91,16.78-31.86,21.52-41.87s7.6-17.08,10.47-24.13c5.24-8.46,2.34-1.77,2.28-.87,15.85-27.12,24.7-41.93,32.37-56s14.24-27.25,26.17-50.81l4.87-3.46c3.08-6.47,15.58-25.46,31.47-49.22s35.23-52.26,51.89-77.92c-.13.64-.5,1.94-3,6.09,4.68-7.22,9.83-14.6,15.39-21.89,2.78-3.65,5.66-7.26,8.64-10.79l.73-.85.58-.66,1.18-1.29c.79-.85,1.6-1.67,2.41-2.46a26,26,0,0,1,5.14-4,7.09,7.09,0,0,1,1.46-.59,3.33,3.33,0,0,1,.77-.11.92.92,0,0,1,.75.25,3.63,3.63,0,0,1,.79,1.52,14,14,0,0,1,.4,1.67,47.38,47.38,0,0,1,.65,6.49c0,1,.07,2,.07,3v2.11l0,1.55c.07,4.32,0,8.59,0,12.77s-.14,8.54-.15,12.67,0,8.1.13,11.93c.06,1.91.12,3.79.18,5.62s.2,3.62.29,5.36c.87,13.94,2.66,24.91,5.44,31.16,1,7.71,2.29,15.41,3.72,23.08s3.33,15.33,5.59,22.9c-1.74-7.46-2.64-12.94-3.15-16.84a54.56,54.56,0,0,1-.64-7.45c.11-2.41.81-.26,1.89,2.94.51,1.6,1.1,3.46,1.65,5.17a43.2,43.2,0,0,0,1.59,4.2c.9,1.91,1.26,1.5.48-4.57,2.21,11.46,5.4,26.25,8.56,34.49.74,2.07,1.3,3.78,1.77,4.92s.58,1.83.38,1.82-.76-.67-1.74-2.16a29.6,29.6,0,0,1-1.62-2.94,42.53,42.53,0,0,1-2-4.38c-.41-1.5-.9-3-1.24-4.49-1-1.09-1.33-.8-1.25.6a14.68,14.68,0,0,0,.56,2.85c.33,1.19.71,2.62,1.31,4.22s1.3,3.38,2.23,5.29a63.27,63.27,0,0,0,3.4,6,36.62,36.62,0,0,0,12,11.46,32.34,32.34,0,0,0,8.37,3.29,36.45,36.45,0,0,0,8.55,1A57,57,0,0,0,731,640.19c4-1.08,7.19-2.19,9.37-2.91s3.41-1,3.39-.55c1.8-.82,3.51-1.74,5.24-2.64s3.4-1.86,5-2.86c3.33-1.94,6.49-4,9.64-6.15s6.17-4.34,9.11-6.59,5.93-4.46,8.79-6.79c11.55-9.21,22.54-18.86,33.25-28.67S836,563.21,846.2,553.09s20.27-20.29,30.13-30.55,19.59-20.56,29.22-30.87l14.29-15.52L934,460.66q28.11-30.72,56.13-60.56l-11.15,6.79q13-13.87,26.19-27.61c7.48-6.67,11.21-7.83-7.53,11.78,5.62-4.5,13.12-13.06,19.27-20.58s10.92-14,10.91-14.59c19-18.56,16.15-14.1,9.93-6.5s-15.68,18.46-10,12.62l15.21-16-3.77,3.28c11.5-13.8,11.47-16.08,34.7-39,15.19-14,9.05-5.88,15-11.45.14.21,2.18-1.62,9-8.6q17.29-16.53,34.91-32.66-7.95,5.46-15.87,11c14.47-15.59,33.17-30.36,14.71-17.84,6.81-4.57,18.47-14.37,32.83-25.91l2.67-2.14,2-1.51,3.56-2.7c2.4-1.79,4.87-3.56,7.46-5.22a45.51,45.51,0,0,1,4-2.31,15.63,15.63,0,0,1,2.16-.9,9.18,9.18,0,0,1,1.15-.28c.36,0,.84-.17,1.1.2a4.52,4.52,0,0,1,.46,2.33c0,.8,0,1.6-.1,2.4-.14,1.59-.36,3.17-.59,4.74-.5,3.14-1.09,6.24-1.7,9.29-.34,1.62-.68,3.22-1,4.8-.53,2.39-1.06,4.76-1.58,7.09-2.23,9.81-4.47,19.07-6.54,27.31-4.14,16.49-7.56,28.92-9.19,33.64-5.68,29.28-13.63,57.59-24,92.53,3.06-8.54,7.6-12.89-1.52,17.2-1.51-6.42-6.17,7.2-12,25.28s-12.88,40.61-18.81,52.08c4.77-10.41-1.51,11-7.28,30.92s-11,38.29-3.59,21.94c-8.31,24.88-2.78.8-10.16,19.33-8.14,30.15-18.94,62.81-30.73,97.06s-24.44,70.24-35.94,107.11c.44,1.4,5.66-10.5,1.76,5.65l-16.59,37.49c-4.27,14.64.34,14.85-11,40.49,1.89-3.53,4.71-8.8,1.84,1-25.12,71.38-47.71,145.31-70.4,219.51-11.33,37.1-22.69,74.27-34.38,111.26q-4.42,13.85-8.83,27.69t-9,27.61q-4.5,13.76-9.13,27.44c-3.1,9-6.39,18.08-9.71,27,7.75-19.3,3.82-6-.91,9.06,3.49-9.7,1.93.86,3.64-.72q-5.62,15-11.42,30l-5.86,14.9-6,14.94c-.37,6.12-6,22.44-10.65,38.72-1.16,4.09-2.25,8.17-3.13,12.21-.23,1-.41,2-.61,3.05s-.34,2.11-.47,3.06c-.24,1.8-.44,3.53-.62,5.17-.35,3.27-.58,6.15-.62,8.49a30,30,0,0,0,.09,3.12,9.63,9.63,0,0,0,.4,2.4c0-2.41.17-4.07.3-5.84s.33-3.48.51-5.19l.57-5.12.29-2.55q.07-.62.18-1.35l.2-1.41c0,.94-.09,1.84-.07,2.53s0,1.28.09,1.8a8.33,8.33,0,0,0,.39,2.21c.36.89.88.66,1.53-.38a36.68,36.68,0,0,0,2.33-5.25c1-2.37,2.12-5.11,3.4-8,5.18-11.46,12.12-25.12,13.69-22.55a144.18,144.18,0,0,1,7.43-24.88c1.71-4.52,3.64-9.23,5.6-14.16s4-10,6.1-15.23c4.14-10.47,8.34-21.57,12-33.15,1.86-5.79,3.59-11.69,5.14-17.69.77-3,1.52-6.06,2.18-9.12s1.24-6.11,1.77-9.2c4-10.27-1.23,9.41,1.46,4.08a170.89,170.89,0,0,1,4.55-21.8c2.31-8.61,5.54-19,10-32.35l-.44,3.19c11.19-38,19.82-65,29.08-93S950,1063,964.05,1020.79l-4.16,5.6c6-18.16,7.91-21.79,11.16-30.16,3.28-22-16.32,51.2-13.95,31,6-11.42,16.15-43.59,26.15-74.73s19.82-61.26,24.94-68.63c9-28-5.16,7.41,3.86-20.6l3.75-7,.52-7.65c6.19-18.28,10.9-27,12.27-27.31-1.57,4.41-3.76,12.77-5.21,17.58,9.27-23.31,21.14-67.33,24.33-75.33l-9.56,26.63c11.74-38.42,25.65-80.79,39.36-122.91s26.7-84.19,36.86-121.73l-2.78,5.32c7.85-28.63,11.6-39.91,15.69-51.84s8.52-24.53,17.35-55.9l-.42,2.34c2.67-12.81,7.08-29.66,12.13-46.76-1.68,8.08,1.06.81,3.64-5.84s5-12.69,2.66-2.11c7.83-31.25,9.5-39.05,10.29-44.27s.63-7.85,4.25-28.9l4.27-9c1.07-7.22,1.5-11.16,2.59-17.27s2.93-14.35,6.6-30.23c-2.47,13.16-.56,8.28,1.32,3.8s3.73-8.58,1.09,6.23c2.56-8.19,4.75-15.92,6.63-23.24.48-1.83.92-3.64,1.35-5.43.22-.89.43-1.77.64-2.65.1-.44.21-.88.31-1.31l.36-1.62c1.07-5,2.14-9.81,3-14.69.41-2.41.9-4.82,1.11-7,.14-1.11.27-2.22.4-3.33.07-.54.13-1.09.2-1.64a13,13,0,0,0,.14-1.58c0-2,.07-3.86.1-5.75a6.92,6.92,0,0,0-.1-1.26l-.14-1.19c-.1-.79-.19-1.57-.29-2.35s-.3-1.38-.44-2.07-.3-1.35-.49-2a34.07,34.07,0,0,0-1.3-3.52,11.41,11.41,0,0,0-.94-1.65,5,5,0,0,0-.69-.8,2.58,2.58,0,0,0-1-.61,11.71,11.71,0,0,0-4-.25,28.77,28.77,0,0,0-7.45,1.79c-1.22.41-2.5,1-3.74,1.53-.63.3-1.28.64-1.91,1s-1.26.63-1.91,1a144.23,144.23,0,0,0-15,10.1c-2.41,1.76-4.83,3.64-7.13,5.36-1.13.84-2.24,1.67-3.34,2.51l-1.38,1-1.26.89c-3.36,2.37-6.72,4.58-10.18,6.64-5.16,6.14-4.78,6.9-1.58,4.75,1.61-1.07,3.92-2.87,6.66-5l9.37-7.54,3.13-2.52,3.31-2.59c2.21-1.7,4.38-3.38,6.47-4.87a99.62,99.62,0,0,1,10.84-7c.73-.42,1.36-.69,2-1s1.14-.58,1.59-.76c.92-.39,1.58-.66,1.94-.79.69-.22.16.05-2.06,1.2.87-.27,1.52-.46,2-.55s.69,0,.76,0-.38.58-1.45,1.28c-.54.37-1.22.81-2,1.3l-2.71,1.81c-1,.71-2.12,1.48-3.31,2.34s-2.46,1.8-3.78,2.86c-2.64,2-5.49,4.41-8.4,6.83l-4.35,3.71-4.07,3.53c-5,4.35-9.93,8.69-14.05,12.14-8.23,7.19-16.17,12.26-27.08,20.27s-24.76,19-44.42,38.23c3.94-3.81,4-4.34,7.87-8.13-15.66,13.45-27.6,29.45-46.77,46-7.8,12.16-23,23.36-23.07,28.95q17.14-18.48,34.59-36.67c-9.72,10.49-18.43,21.33-28.93,33.62s-22.82,26-39.66,42.46c1.94-3.2,10.76-14.12,17-21.47-10.29,9.2-17.61,19.79-28.17,29.45,0-2.79,10.23-14.17,23-27.78s28-29.43,37.64-41.39c-5.75,4.73-15.35,15.61-22.48,23.62s-11.88,13.07-8.06,6.07c-11.45,19.63-37.69,39-59.75,69.23l0-3.35c-3.7,4.59-11.08,14.37-18.37,22.41L929,433c-4.59,6-9.41,11.66-14.35,17.05s-9.91,10.56-14.94,15.62c-10.08,10.14-20.18,20-29.45,31,20.36-22.05,23-24.19,23.08-22.85s-2.7,6,6.45-2.86c-11.85,14.3-20,23.07-26.23,29.22a164.28,164.28,0,0,1-15.38,13.34c-4.68,3.65-9.59,7.47-16.91,14.07-3.67,3.3-7.92,7.32-13.1,12.29l-8.48,8.26L809.64,558c3.92-3.94,11.63-11,16.88-15.54s8.08-6.41,2.28.17c-2.85,2.71-6,5.58-9.17,8.47s-6.45,5.8-9.62,8.52-6.2,5.29-9,7.49-5.2,4.12-7.18,5.49l-6.49,6-4.71,4.3c-2.57,2.4-4.09,3.8-4.81,4.58-1.44,1.56.3.52,2.8-1.12,5-3.37,12.93-9.27,4.7-1.14a97.51,97.51,0,0,0-10,7.23c-2.86,2.37-5.42,4.69-8,7.28-5.32,5-10.76,10.94-20.32,17.28l-1.34-1.91a112.38,112.38,0,0,1-15.3,7.38,83.29,83.29,0,0,1-8.76,2.84c-.51.13-1,.25-1.41.38L719,626l-1.8.5a23.67,23.67,0,0,0-2.28.85,8.66,8.66,0,0,1-2.11.63,9.55,9.55,0,0,1-3.66-.23,13.81,13.81,0,0,1-2.79-1,16.31,16.31,0,0,1-3.46-2.26,23.42,23.42,0,0,1-3.92-4.26,27.43,27.43,0,0,1-2-3.13l-1-1.88a18.61,18.61,0,0,1-1-2.05,24.56,24.56,0,0,0,1.59,2.13c.54.67,1.06,1.38,1.6,2a32.37,32.37,0,0,0,3.42,3.25,17.17,17.17,0,0,0,7.17,3.5,18.75,18.75,0,0,1-7.53-5.87,25.39,25.39,0,0,1-1.65-2.24l-1.58-2.6-.4-.65-.36-.72-.72-1.43a31.69,31.69,0,0,1-1.4-2.93,27.14,27.14,0,0,0,2.27,1.92l2.28,1.76a78.16,78.16,0,0,1-7.19-16.75c-.89-2.59-1.47-5.19-2.13-7.64s-1.06-4.95-1.56-7.38c-1.78-9.84-2.8-19.86-3.65-35.21-.27,1.81-.67,2.49-1.19,2.06s-1.13-2-1.73-4.6c-1.24-5.25-2.51-14.91-2.93-28.71.51-9.44,1.11-6.8,1.45-6.71.17,0,.28-.54.27-3.58,0-1.52,0-3.66,0-6.64s-.07-6.83-.12-11.74c1.48,9,3.25,18.5,1.67,35.51a34,34,0,0,1,1.3,5.16,33.35,33.35,0,0,0,1.36,5.17c.11-5,.16-10.71.07-16.6s-.17-12.05-.23-18-.16-11.73-.34-17.26c-.09-2.72-.21-5.29-.34-7.66-.09-1.47-.17-2.87-.25-4.19-.12-1.72-.24-3.33-.35-4.84.09,1.16.14,2.35.22,3.56l.09,1.81.07,1.76c0,1.51.07,3,.07,4.47,0,2.88,0,5.47-.21,7.22-.16-2.47-.34-4.95-.56-7.43l-.35-3.73c0-.46-.14-1.64-.23-2.57l-.29-2.87c-.41-3.82-.91-7.57-1.53-11.17a81.28,81.28,0,0,0-2.33-10.19,35.39,35.39,0,0,0-3.56-8.08,23,23,0,0,0-4.8-5.78,9.47,9.47,0,0,0-1.69-1.1,5.09,5.09,0,0,0-2.14-.54,13.52,13.52,0,0,0-4.1.39,30.83,30.83,0,0,0-3.83,1.3,34.39,34.39,0,0,0-3.74,2c-.58.27-1.1.47-1.56.69l-1.22.57a13.84,13.84,0,0,1-1.42.57c-.54.13-.27-.3.57-1.11a27.33,27.33,0,0,1,3.9-2.89,25.87,25.87,0,0,1,5.6-2.62,29.07,29.07,0,0,0-9.07,4.31,59.69,59.69,0,0,0-8.85,7.67c-3,3.05-6,6.55-9.3,10.53l-2.5,3.09-1.84,2.35-3.77,4.88c.66-2.37.45-3.64,2-6.83.19-.4.41-.83.67-1.29a8.74,8.74,0,0,1,.44-.77l.84-1.21c.6-.85,1.26-1.76,2-2.77l2.49-3.21c1.85-2.3,4.09-4.91,6.83-7.75a61,61,0,0,1,9.74-8.23c-1.4.87-2.82,2-4.23,3.09-1.4,1.23-2.81,2.39-4.19,3.76-2.78,2.62-5.46,5.59-8.08,8.57-1.29,1.53-2.6,3-3.85,4.58L628.22,449l-.43.54-.27.35-.54.71c-1.45,1.89-2.86,3.79-4.25,5.69-5.56,7.59-10.79,15.25-15.89,23-1.42,1.26-6,6.72-9.71,11.12s-6.62,7.68-4.87,4.54c-9.14,12.28-18.76,28.38-28.8,45.6s-20.52,35.58-31.62,52.4c-.77,2-2.67,5.75-6.85,13.23-9.94,16.1-19.6,31.1-29.28,47.13s-19.33,33.09-29.11,53.32L451.32,727.2c-16.13,31.22,20.2-28.21-6.59,23.77-9.31,18.49-11.7,21.59-12.82,21.57s-.85-3.12-4.66,3.09c-4,9.51-9.42,22.61-16.18,37.43-3.38,7.4-7.09,15.27-11.18,23.27s-8.57,16-13.58,24C391.59,849.06,396.4,840.65,401.47,830.07Zm-76-68.13c-1.42,8.22-3.6,24.77-6.27,30.42C318.7,782.52,321.54,775.6,325.49,761.94Zm145-379.76a83,83,0,0,1,2.87-11.27c1.35-4.32,3.09-9.21,5.14-14.29C476.27,364.26,473.79,372.84,470.45,382.18ZM1294,159.33c0-.38,0-.65,0-1,.53-2.4.85-4.65,1.13-6.43,0-.22.07-.44.1-.65s0-.48.07-.7q.06-.69.12-1.29c.06-.81.12-1.51.16-2.1.08-2,.09-2.53.08-2,0,.26,0,.78,0,1.54,0,.33,0,.9-.09,1.48s-.09,1.23-.14,1.93c0,.35-.06.72-.1,1.1s-.09.67-.14,1q-.15,1-.33,2.22C1294.6,156.08,1294.26,157.6,1294,159.33Zm-9.46,38.52c-.62,3.9-.26,3.71.46,2.18.08-2.8,2.2-11.3,4.57-21.1a42.57,42.57,0,0,0-2.11,6.14c-.41,1.49-.85,3.25-1.32,5.37S1285.06,195,1284.49,197.85Zm-193.23,97.38-5.81,4.8C1097.14,287.71,1094.16,291.46,1091.26,295.23Z" transform="translate(-270.11 -96.48)"/><path class="cls-3" d="M490.18,310.42c1-2.08,1.59-2.56,2.17-3,.26-1.59.24-2.41-.07-2.06S491.33,307.27,490.18,310.42Z" transform="translate(-270.11 -96.48)"/><path class="cls-3" d="M531.13,594l.71-1.12a4.3,4.3,0,0,0,.33-1.35Z" transform="translate(-270.11 -96.48)"/><path class="cls-3" d="M890.9,435.5a154.08,154.08,0,0,1-11.24,10.57C879.79,446.79,882.59,444.39,890.9,435.5Z" transform="translate(-270.11 -96.48)"/><path class="cls-3" d="M1231.77,396.87l6.62-24c-3.35,11.55-5.1,15.5-7.21,21.21C1231.86,393.74,1234,389.42,1231.77,396.87Z" transform="translate(-270.11 -96.48)"/><path class="cls-3" d="M1152.67,597.88c-.86,3.53-2.37,7.32-3.22,10.8l1.34-.6C1155.55,593.39,1158.11,582.86,1152.67,597.88Z" transform="translate(-270.11 -96.48)"/><path class="cls-3" d="M1217.64,416.6c-2.45,1.31-6.39,16.39-11.23,33.1.31-1,.59-2,.92-2.94C1208.41,452.47,1213.09,434.51,1217.64,416.6Z" transform="translate(-270.11 -96.48)"/><path class="cls-3" d="M1205.27,453.56c-1.52,5.15-3.1,10.38-4.76,15.36C1200.94,471.19,1202.68,462.77,1205.27,453.56Z" transform="translate(-270.11 -96.48)"/><path class="cls-3" d="M1273.11,245.94c-2.69,7.84,1,5.67-1,10,0,4.78,3-8.7,4.52-17.9.8-4.6,1.22-8.13.82-7.75S1275.79,234.94,1273.11,245.94Z" transform="translate(-270.11 -96.48)"/><polygon class="cls-3" points="937.22 331.67 941.37 326.43 942.37 316.55 937.22 331.67"/><path class="cls-3" d="M1248.44,297.19,1240,323.67c.51-.29-.26,3.16-1.31,7.37C1243.64,314.65,1249.32,296.76,1248.44,297.19Z" transform="translate(-270.11 -96.48)"/><path class="cls-3" d="M1238.71,331c-2.56,8.54-4.94,16.68-6,21.55C1234.09,348,1237,338,1238.71,331Z" transform="translate(-270.11 -96.48)"/><polygon class="cls-3" points="947.66 295.17 950.53 287.46 956.36 268.74 947.66 295.17"/><path class="cls-3" d="M1175.12,145.68c-7.95,6.3-15.71,12.81-23.39,19.41-.93,1.3.29.73,2.79-1.09s6.34-4.84,10.67-8.47C1170.51,150.55,1179.31,143.5,1175.12,145.68Z" transform="translate(-270.11 -96.48)"/><path class="cls-3" d="M1257.07,113.78c-.89-.2-1.65-.34-2.32-.45a18.3,18.3,0,0,0-1.83-.23l-2.88-.27a46.52,46.52,0,0,0-5.14-.33c-.11,1-.2,2.07-.28,3.1a49.2,49.2,0,0,1,6.32-1.44c.53-.09,1.06-.17,1.59-.22s1.08-.14,1.52-.16A23.39,23.39,0,0,1,1257.07,113.78Z" transform="translate(-270.11 -96.48)"/><path class="cls-3" d="M1182.13,149.54c-2,2.34-32.89,28.74-3.06,5.09a54.7,54.7,0,0,1,4.43-4.12l6.27-5.32C1193.15,142.29,1193.43,141.59,1182.13,149.54Z" transform="translate(-270.11 -96.48)"/><polygon class="cls-3" points="583.05 368.06 588.26 362.38 583.9 359.86 583.05 368.06"/><path class="cls-3" d="M665.33,390.14c4-2,6.87-3.47,9.17-4.59s3.94-1.95,5.14-2.62a12.23,12.23,0,0,0,3.67-2.6,7.86,7.86,0,0,1,3.19-2.21,36.26,36.26,0,0,1,4.59-1.71,55.45,55.45,0,0,1,8.15-1.86c1.69-.64,1.16-.76-.52-.6a49,49,0,0,0-7.39,1.49c-5.75,1.48-11.53,3.82-8,1.77A171.78,171.78,0,0,0,663.79,388c-1.84,1.2-2.61,1.93-2.44,2.3S662.71,390.62,665.33,390.14Z" transform="translate(-270.11 -96.48)"/><path class="cls-3" d="M683.34,377.21c2.93-1.38,6-2.76,9.37-4.07A62.49,62.49,0,0,0,683.34,377.21Z" transform="translate(-270.11 -96.48)"/><path class="cls-3" d="M822.56,1399.31c-1.23,3.85-2.41,7.7-3.43,12-.26,1-.5,2.34-.71,3.38l-.55,2.88-1,5.83c.6-2.51,1.23-5,1.86-7.44l.5-1.92c.19-.72.37-1.49.58-2.18.4-1.37.82-2.73,1.26-4C821.48,1404.94,822,1402.11,822.56,1399.31Z" transform="translate(-270.11 -96.48)"/><path class="cls-3" d="M824.59,1450.62a22.23,22.23,0,0,0,3.25,8,26.42,26.42,0,0,0,10.29,3.18,32.32,32.32,0,0,0,5.29.12c.88-.06,1.74-.14,2.6-.23s1.42-.22,2.13-.34l-1.25,0h-.66l-.84,0a33.1,33.1,0,0,1-3.62-.22,26.59,26.59,0,0,1-7.62-2,20,20,0,0,1-6.23-4.08A15.78,15.78,0,0,1,824.59,1450.62Z" transform="translate(-270.11 -96.48)"/><path class="cls-3" d="M346.74,701.15l-.32-1.89c-1.64,3.28-3,8.51-5.69,19Z" transform="translate(-270.11 -96.48)"/><path class="cls-3" d="M300.49,966.35a4.81,4.81,0,0,1-.94.33c-.19,0-.37.11-.56.14a4.19,4.19,0,0,0,.69.53l.41.23.23.12a2.8,2.8,0,0,0,.42,0,36.36,36.36,0,0,0,4.22-.29c-.78-.15-1.53-.26-2.28-.46Z" transform="translate(-270.11 -96.48)"/><path class="cls-3" d="M433.31,755.62c-5.2,9.45-10.55,21-15.67,30.51C428.06,765,437.82,754.72,433.31,755.62Z" transform="translate(-270.11 -96.48)"/><path class="cls-1" d="M1200.64,1850.5H1199q-17.91,0-17.91-18.45,0-3.25,2.17-18.18t20.63-67.58q11.92-34.72,26-80.86,66.75-226.86,193.76-614.92,58.07-179.64,96.6-319.13,30.93-112.87,30.94-134,0-4.89-1.63-4.89-14.65,0-97.42,79.24T1276.08,855.13q-102,115.07-156.85,155.76-30.4,22.8-50.47,22.79-15.75,0-25-14.65-19.55-31.47-19.54-131.88v-5.43a224.77,224.77,0,0,0-2.17-33.92q-2.18-13.84-5.43-13.84-12.49,0-55.63,62.14t-96.88,154.14q-53.73,92-101.49,187-39.61,78.7-67.3,111.26c-18.45,21.72-63,25.16-63,10.32q0-50.47,38-213.3Q705.66,997.87,729,906.68T768.08,767.2q15.74-48.3,27.68-67.57t25.78-24.15q13.83-4.89,22-4.88,11.93,0,11.94,15.19-.56,15.21-13.57,49.39Q837,749.3,832.67,764,786,924.6,755.05,1069c-7.6,34.38-11.21,65.86-10.85,66.22l.54.54q3.79,0,13.3-13t22-35.82Q826.15,1004.93,888.84,914t91.45-117.5a204,204,0,0,1,32-20.62q29.31-16.29,48.85-16.29a25.7,25.7,0,0,1,13.29,4.08q6.78,4.07,10.86,30.93t7.87,87.11q4.88,66.75,11.94,74.9h.54q4.89,0,40.43-34.74t87.11-91.72q97.69-107.46,191.86-195.38t142.47-116.15q22.8-11.92,38.53-11.94c4.35,0,10.49,1.45,18.46,4.34s11.94,14.11,11.94,33.65q0,21.72-39.89,158.75T1506.2,993q-19,57-66.22,201.08t-97.14,299.33q-50,155.2-77.62,244.77-17.91,57-35.27,84.66T1200.64,1850.5Z" transform="translate(-270.11 -96.48)"/><path class="cls-2" d="M1200.64,1850.5H1199q-17.91,0-17.91-18.45,0-3.25,2.17-18.18t20.63-67.58q11.92-34.72,26-80.86,66.75-226.86,193.76-614.92,58.07-179.64,96.6-319.13,30.93-112.87,30.94-134,0-4.89-1.63-4.89-14.65,0-97.42,79.24T1276.08,855.13q-102,115.07-156.85,155.76-30.4,22.8-50.47,22.79-15.75,0-25-14.65-19.55-31.47-19.54-131.88v-5.43a224.77,224.77,0,0,0-2.17-33.92q-2.18-13.84-5.43-13.84-12.49,0-55.63,62.14t-96.88,154.14q-53.73,92-101.49,187-39.61,78.7-67.3,111.26c-18.45,21.72-63,25.16-63,10.32q0-50.47,38-213.3Q705.66,997.87,729,906.68T768.08,767.2q15.74-48.3,27.68-67.57t25.78-24.15q13.83-4.89,22-4.88,11.93,0,11.94,15.19-.56,15.21-13.57,49.39Q837,749.3,832.67,764,786,924.6,755.05,1069c-7.6,34.38-11.21,65.86-10.85,66.22l.54.54q3.79,0,13.3-13t22-35.82Q826.15,1004.93,888.84,914t91.45-117.5a204,204,0,0,1,32-20.62q29.31-16.29,48.85-16.29a25.7,25.7,0,0,1,13.29,4.08q6.78,4.07,10.86,30.93t7.87,87.11q4.88,66.75,11.94,74.9h.54q4.89,0,40.43-34.74t87.11-91.72q97.69-107.46,191.86-195.38t142.47-116.15q22.8-11.92,38.53-11.94c4.35,0,10.49,1.45,18.46,4.34s11.94,14.11,11.94,33.65q0,21.72-39.89,158.75T1506.2,993q-19,57-66.22,201.08t-97.14,299.33q-50,155.2-77.62,244.77-17.91,57-35.27,84.66T1200.64,1850.5Z" transform="translate(-270.11 -96.48)"/><path class="cls-3" d="M1214.37,1858c-.86.48-1.58.93-2.36,1.32l-2.18,1c-.7.3-1.39.56-2,.79s-1.13.44-1.67.59c-1.06.32-1.84.58-2.46.79a6.82,6.82,0,0,0-1.37.5c-1.18.6,0,1.14-1.71,1.4,1.22-.06,2.4-.16,3.49-.3s2-.41,2.85-.64,1.58-.52,2.3-.79l1-.4c.31-.13.58-.27.85-.41a24.49,24.49,0,0,0,4.5-2.78c1.75-1.48,2-2.1,1.79-2.26C1216.91,1856.59,1214,1858,1214.37,1858Z" transform="translate(-270.11 -96.48)"/><polygon class="cls-3" points="1015.22 1601.95 1015.1 1605.05 1020.71 1580.66 1015.22 1601.95"/><path class="cls-3" d="M1333.22,1547.52c-7.81,13.22-16.81,54.86-26.5,81.37l-2.16,4.2-1.2,13C1313.3,1613.24,1325,1570.24,1333.22,1547.52Z" transform="translate(-270.11 -96.48)"/><path class="cls-3" d="M1366,1469.39c-2.88,4.55,4.54-17.72-6.48,18.6.73-1.77,1-2.27,1.43-3.29C1362,1481.45,1363.46,1477,1366,1469.39Z" transform="translate(-270.11 -96.48)"/><path class="cls-3" d="M1361,1484.7c-5.06,15.89,4.44-10,0,0Z" transform="translate(-270.11 -96.48)"/><path class="cls-3" d="M1384,1411.23l-5.64,21.25c2.17-4.12,8.37-22.65,6.68-15.57C1391.38,1395.28,1389.2,1399.44,1384,1411.23Z" transform="translate(-270.11 -96.48)"/><path class="cls-3" d="M1388,1390.64l-3,11C1385.94,1399.83,1387,1397,1388,1390.64Z" transform="translate(-270.11 -96.48)"/><path class="cls-3" d="M1378.58,1424.91l6.43-23.28c-1.51,2.85-2.67,2.83-3,10.66C1381.6,1410.09,1381.06,1414.93,1378.58,1424.91Z" transform="translate(-270.11 -96.48)"/><path class="cls-3" d="M1373.86,1437.75c-4.52,11.49-9.88,26.48-4.21,5.15C1357.13,1483,1361.35,1477.86,1373.86,1437.75Z" transform="translate(-270.11 -96.48)"/><path class="cls-3" d="M1332.27,1538.73l-5.94,15.39-3.21,13.94C1324.73,1561.1,1333.61,1538.08,1332.27,1538.73Z" transform="translate(-270.11 -96.48)"/><path class="cls-3" d="M1427.94,1281.64c-.27-1.53-4.14,6.42-5.53,7.69L1418.2,1305C1421.25,1297.24,1426.57,1282.35,1427.94,1281.64Z" transform="translate(-270.11 -96.48)"/><path class="cls-3" d="M1422.41,1289.33l6.29-23.48C1421.87,1286.43,1421.21,1290.38,1422.41,1289.33Z" transform="translate(-270.11 -96.48)"/><polygon class="cls-3" points="1115.5 1289.26 1105.71 1328.01 1117.84 1281.94 1115.5 1289.26"/><polygon class="cls-3" points="1186.56 1097.03 1183.9 1110.64 1189.09 1086.55 1186.56 1097.03"/><path class="cls-3" d="M1475.62,1135c-1.85,10.11,6.62-12.51,4.08-2,5-15.94,8.3-29.86,11.28-42.4A436.91,436.91,0,0,1,1475.62,1135Z" transform="translate(-270.11 -96.48)"/><path class="cls-3" d="M1496.23,1069.61c-1.82,6.58-3.45,13.48-5.25,21C1492.94,1083.6,1494.73,1076.68,1496.23,1069.61Z" transform="translate(-270.11 -96.48)"/><path class="cls-3" d="M1441.81,1226.63c1-1.64,3.22-4.72,7.89-17.51l-4.91,8.43C1443.88,1220.32,1442.86,1223.46,1441.81,1226.63Z" transform="translate(-270.11 -96.48)"/><path class="cls-3" d="M1444.63,1217.85l.16-.3c3.26-9.83,5.51-16.66,6.48-19.58C1450.43,1200.48,1448.43,1206.46,1444.63,1217.85Z" transform="translate(-270.11 -96.48)"/><path class="cls-3" d="M1441.06,1228.92c.28-.84.48-1.46.75-2.29A4.34,4.34,0,0,0,1441.06,1228.92Z" transform="translate(-270.11 -96.48)"/><path class="cls-3" d="M1407,1325.79c3.31-13.92,11.32-42.59.76-15.76C1406,1320.2,1412,1304.84,1407,1325.79Z" transform="translate(-270.11 -96.48)"/><path class="cls-3" d="M1435,1239.4l-8.41,24.37c.68-.31,2.87-4.48,1.23,2.41Z" transform="translate(-270.11 -96.48)"/><polygon class="cls-3" points="1168.11 1130.71 1164.84 1142.92 1167.95 1133.88 1168.11 1130.71"/><path class="cls-3" d="M1480.58,1111c2.63-10.85,6.37-22.45,10.54-35.57-5,13.89-10,28.3-14.5,42.06C1476.59,1119.58,1475.71,1126,1480.58,1111Z" transform="translate(-270.11 -96.48)"/><path class="cls-3" d="M1462.89,1162.83c.21-.74.47-1.69.67-2.39C1462.91,1161.83,1462.48,1163,1462.89,1162.83Z" transform="translate(-270.11 -96.48)"/><path class="cls-3" d="M1533.47,946.6l-1,2a4.12,4.12,0,0,1,.18.59Z" transform="translate(-270.11 -96.48)"/><path class="cls-3" d="M1475.48,1119.67a159.1,159.1,0,0,0-6.81,23c2.39-7.94,5-16.32,7.95-25.28C1476.63,1116.47,1476.5,1116.25,1475.48,1119.67Z" transform="translate(-270.11 -96.48)"/><path class="cls-3" d="M1507.13,1033.41c-2.21,5.35-4.61,11.45-7.08,17.88C1502.44,1046.14,1507,1035.52,1507.13,1033.41Z" transform="translate(-270.11 -96.48)"/><path class="cls-3" d="M1465.27,1157.07c-.15.54-.28,1-.43,1.61C1466.39,1155.36,1466.05,1155.72,1465.27,1157.07Z" transform="translate(-270.11 -96.48)"/><path class="cls-3" d="M1465.27,1157.07c1.5-5.51,2.42-9.93,3.4-14.35-2,6.46-3.71,12.48-5.11,17.72C1464.12,1159.19,1464.77,1158,1465.27,1157.07Z" transform="translate(-270.11 -96.48)"/><path class="cls-3" d="M1533.48,903.45c1.23,2.44-6,30.76-15.76,54-6.36,24,4.68,10.57,14.72-8.93-.56-1-1.26-1.22,5.5-25.85-3.71,8.2-19.81,53.07-14.78,32.08,9.5-32.42,9.17-26.11,15.17-41.44-3.26,6.28-.8-4.21,1.76-15.53s5.2-23.48,2.42-20.5l-7.81,28.57C1534,906.26,1536.46,895.77,1533.48,903.45Z" transform="translate(-270.11 -96.48)"/><path class="cls-3" d="M1517.1,994.7l-3,10c4-11.24,7.49-19.16,13.82-33.68,4.56-16.9,5-20.57,4.75-21.91l-16.37,49.05Z" transform="translate(-270.11 -96.48)"/><path class="cls-3" d="M1499.33,1049.45c.59-8.43,7.62-32.63.66-18.69-9.48,29.28-5.09,21-10,38.77,15-47.32-3.36,13.92,9-19.79-2.72,9.38-5.36,17.75-7.87,25.64,3-8.41,6-16.5,8.93-24.09l-.48,1-.06.23s0-.06,0-.06c-.91,2-1.29,2.57-.39.33,0-.17.21-.74.29-1a7,7,0,0,1-.05-2.38c4.91-13.52,1.22-2,.05,2.38,0,.19,0,.59.1.67a1.38,1.38,0,0,0,.08-.17l14.48-47.59C1510.48,1014.64,1506.42,1027.18,1499.33,1049.45Z" transform="translate(-270.11 -96.48)"/><path class="cls-3" d="M1411.73,1283.4c.65-1.41.77-1.3,1-1.36C1413.43,1278.9,1413.64,1277.69,1411.73,1283.4Z" transform="translate(-270.11 -96.48)"/><path class="cls-3" d="M1419.24,1264.33a111.66,111.66,0,0,1-4.81,17.77c-3.74,9.5-.93-.36-1.75-.06-1.66,6.91-6.24,24,1.58,3.23l.82-3.44c6.86-18.82,17.27-42.49,16.46-39.07C1428,1247.73,1425.1,1252.22,1419.24,1264.33Z" transform="translate(-270.11 -96.48)"/><path class="cls-3" d="M1459.08,1155.31l12-39.66-8.31,19.47,1.36-.68C1456.35,1156.68,1459.21,1152.27,1459.08,1155.31Z" transform="translate(-270.11 -96.48)"/><polygon class="cls-3" points="1265.81 845.93 1266.2 851.84 1270.63 828.09 1265.81 845.93"/><polygon class="cls-3" points="1282.04 794.53 1283.26 797.01 1286.46 783.09 1282.04 794.53"/><path class="cls-3" d="M644.49,1354.27a4.23,4.23,0,0,0,2,1.12,9,9,0,0,0,2.28.28A6.85,6.85,0,0,1,644.49,1354.27Z" transform="translate(-270.11 -96.48)"/><path class="cls-3" d="M654.2,1277.35l-.54-2.28C653.44,1279.15,653.52,1280.85,654.2,1277.35Z" transform="translate(-270.11 -96.48)"/><path class="cls-3" d="M1039.42,751a154.62,154.62,0,0,0-26.52,7.93c-1.71.7-3.3,1.37-4.59,2s-2.35,1.13-3.18,1.59c-1.61.88-2.23,1.47-1.51,1.69,1.92-.23,3.9-.51,5.86-.79A113.18,113.18,0,0,1,1039.42,751Z" transform="translate(-270.11 -96.48)"/><path class="cls-3" d="M843.74,728.83l-2.4,4.65c-.82,4.31-1.43,8.36-2,12,.6-2.52,1.26-5.2,2-8S843,731.81,843.74,728.83Z" transform="translate(-270.11 -96.48)"/><path class="cls-3" d="M839.62,714.33a176.47,176.47,0,0,0,7.11-21.11C845.38,697.88,843.25,704.69,839.62,714.33Z" transform="translate(-270.11 -96.48)"/><path class="cls-3" d="M888.18,983.36l5.68-13.28C882.13,989.11,888.23,981.31,888.18,983.36Z" transform="translate(-270.11 -96.48)"/><path class="cls-3" d="M1481.87,568.44c-12.26,9.4-21.68,17.27-29.79,24.37C1466.7,581.3,1479.28,573,1481.87,568.44Z" transform="translate(-270.11 -96.48)"/><path class="cls-3" d="M623.91,1326.83c-.23,3.82-.33,6.54-.3,8.29s.21,2.54.46,2.45c.07-2,.16-3.72.23-5.21s.11-2.74.11-3.69C624.41,1326.78,624.26,1326.05,623.91,1326.83Z" transform="translate(-270.11 -96.48)"/><path class="cls-3" d="M1419.28,622.79c2.13-1.69,4.15-3.42,6.29-5.17,8-7.89,16.18-15.73,26.51-24.81C1441.29,601.29,1429.29,611.45,1419.28,622.79Z" transform="translate(-270.11 -96.48)"/><path class="cls-3" d="M1375.31,1238.21c-.47,1.18-1,2.62-1.44,3.68C1374,1242.35,1374.57,1240.68,1375.31,1238.21Z" transform="translate(-270.11 -96.48)"/><path class="cls-3" d="M1204,1717.18c1.43-4.78,3.94-12.52,6.24-19.85C1208.94,1700.85,1207.05,1706.84,1204,1717.18Z" transform="translate(-270.11 -96.48)"/><path class="cls-3" d="M1616,683.64c-3,11.05-.27,1.81,0,0Z" transform="translate(-270.11 -96.48)"/><path class="cls-3" d="M1592.46,734.71c.46-2.4.69-4.25.31-4.67A13.15,13.15,0,0,1,1592.46,734.71Z" transform="translate(-270.11 -96.48)"/><path class="cls-3" d="M1346.46,711.41l-.71.7C1348.44,710,1348,710.35,1346.46,711.41Z" transform="translate(-270.11 -96.48)"/><path class="cls-3" d="M1610.28,699.92c1.44-4,3-8.74,4.65-13.88C1614.13,688.27,1612.7,692.49,1610.28,699.92Z" transform="translate(-270.11 -96.48)"/><path class="cls-3" d="M1611.87,698l-3,9.54C1608.83,709,1609.4,707.84,1611.87,698Z" transform="translate(-270.11 -96.48)"/><path class="cls-3" d="M1620.22,668.28c-1.74,6.31-3.52,12.15-5.29,17.76.76-2.12,1.13-3,1-2.4C1616.86,680.41,1618.13,675.84,1620.22,668.28Z" transform="translate(-270.11 -96.48)"/><path class="cls-3" d="M1349.91,765.65c.57-.5,1.2-1.11,1.83-1.64C1359.09,755.07,1355.68,758.82,1349.91,765.65Z" transform="translate(-270.11 -96.48)"/><path class="cls-3" d="M854.44,982.94c.27-.46.38-.72.62-1.14l-1,1.36Z" transform="translate(-270.11 -96.48)"/><path class="cls-3" d="M833.87,1018.23c7-16.13,12.61-24.29,20.21-35.07l-12.39,8.12Q837.69,1004.75,833.87,1018.23Z" transform="translate(-270.11 -96.48)"/><path class="cls-3" d="M757.34,1221,750,1233.41c-2.43,4.1-4.86,8.2-7.34,12.27,6.46-15.91,12.76-29.72,15.7-36.37s2.35-6.46-5,5c1,1.63-1.66,8.82-6.08,18.57s-10.65,22-17.19,34.16-13.33,24-18.42,33.2-8.41,15.65-7.59,17.38c-3.81,4.84-7.71,9.56-11.7,14.09,1.57-2.07,2.4-3.32,3.23-4.57s1.61-2.54,3.13-4.62c-5.73,6.82-9.47,11.43-12.24,15.21l-1,1.4-.77,1.12-.61,1-.65.91a41.91,41.91,0,0,1-2.78,3.64,32.11,32.11,0,0,1-9.65,7.68A42.24,42.24,0,0,1,662,1357a49.72,49.72,0,0,1-6,1.22c-1.08.12-2.21.26-3.37.31l-.82,0h-.54c-.36,0-.73,0-1.1,0a12.22,12.22,0,0,1-5.21-1.4,4.71,4.71,0,0,1-1.49-1.36,2.76,2.76,0,0,1-.46-1.49c0-.9.31-1.39.51-1.38s.19.12.33.36a4.17,4.17,0,0,0,.7,1,2.58,2.58,0,0,1-.62-1.6l-.17-1.77c-.06-.62-.08-1.24-.11-1.88,0-.14,0-1.13,0-1.81l0-2.21c.13-3,.23-6,.39-9l.61-9c1.5-10.47,2.24-7.74.84,2.64,2-18.27,4.91-36.68,8.08-55l.11.44c.37-8,2.32-26.13,3.42-35,1.88-6.89,1.71-5.1,1.23-2s-1.19,7.47-.44,5.76c.75-5.13,1.56-10.26,2.35-15.38s1.61-10.26,2.45-15.39c4.34-12,.42,13.51-4,34.48a103.15,103.15,0,0,0,6-16.37,128.72,128.72,0,0,0,2.51-14.12c1.49-10.56,3.53-25.35,12.4-55.45-1.94,9.57-3.8,19.2-5.67,28.8,3.88-8.82,6.74-18.91,9.91-30.7l2.43-9.2c.85-3.18,1.79-6.48,2.76-9.91,1.95-6.86,4.12-14.23,6.67-22.17-1.53,3.69-6.92,19.52-11.12,30.27-4,10.75-7,16.46-4-.16a319.16,319.16,0,0,0,9-39.33c2.3.38,6-17.06,11.18-38.74l2.64,2.2c4.88-23.61,2.9-22.14,4.93-36.24,6.7-26,10.35-30.86,13.81-36.52,10.73-41.65-10.8,27.93.77-21.66,4.84-17.24,8.45-32,11.9-47.77,1.75-7.86,3.38-16,5.24-24.73s3.89-18.11,6.13-28.57c7.43-23.9.71,4.7,3.86-3.74l3.35-22c1.47-5.21,1.74-3.33,1.88-2.37,4-18.24-2.64-2.32,4.49-30.8-.54-4.26,4.76-18.44,11.38-35.81s14.69-37.81,19.74-54.94c4.19-7.71.11,4.62,2.26,2.61,4-11.43,7.42-19.23,10.38-24.76a79.83,79.83,0,0,1,8.2-12.59,48.58,48.58,0,0,1,4.07-4.5,35,35,0,0,1,5-4.07,26,26,0,0,1,3.15-1.8c1.43-.65,3-1.33,4.67-2,.84-.34,1.71-.69,2.61-1l1.38-.51.7-.25.5-.19a39.22,39.22,0,0,1,4.73-1.48,12.08,12.08,0,0,1,5.65.87,6.49,6.49,0,0,1,3.44,4.35,15.29,15.29,0,0,1,.31,5.58c-.12.9-.29,1.79-.48,2.65-.11.43-.2.85-.31,1.27l-.17.63-.23,1,.28-1c.07-.21.15-.41.21-.6l.39-1.12c.24-.7.44-1.3.64-1.79.37-1,.71-1.55,1-1.67.66-.23,1.31,1.39,1.44,4.77,0,.45,0,.81,0,1.39s-.05,1.16-.09,1.78c-.07,1.23-.22,2.56-.37,4-.34,2.8-.83,5.91-1.47,9.19-1.28,6.55-3.09,13.78-5,20.71,4.19-8.16,7.52-15.3,9.42-20.25-1.88,7.49-4.12,14.87-6.51,22.19l-1.81,5.43-1.63,5.43q-1.63,5.48-3.15,11c-2.13,5.1-1.81.4-.7-7.13-.74,3-1.4,5.94-1.86,8.21-3,7.64-4.21,9.34-4.55,7.63s.3-6.83,1.28-12.71c2.31-5.16,4.65-10.23,7.11-15.12,2.3-11.28,3.44-21.85,1-20.19a125.61,125.61,0,0,1-4.05,14.24c.54-2.92.72-4.83,0-3.66a20,20,0,0,0-1.44,4.39c-.29,1.14-.63,2.47-1,4-.2.73-.39,1.61-.6,2.48l-.6,2.67q-3.32,4.44-6.58,9l.53,2.86c-1.7,4.77-3.36,9.57-4.93,14.38L819,777.88l-9.25,28.64c-4.16,21.18-7.39,41.14-11.56,64.09s-9.24,48.9-16.71,82.17c1.61-17-3.13-4.53-5.81-6.13C783.15,929.33,787.19,895,797,861c-5.07,17.76-5.41,13.48-4.68,8.8q-6.73,30.88-13,61.85c-2-2-5,12.55-9.94,28.34,3.83-5.48,1.79,6.13-1.66,22.3s-8.26,36.92-10.37,49.6c-1,.6-1.52-.69-.91-5.94s2.37-14.48,6.13-29.7c-5.7,16.43-6.79,27.66-7.77,38.8-.47,5.58-.94,11.14-1.9,17.33a142.68,142.68,0,0,1-5,21.17c1.58-7.55,2.7-11.48,2.53-14.62-.58,4.45-1.71,10.39-3,16.79s-2.6,13.11-3.76,19c-2.35,11.72-4.16,20-4.1,14.74l1.19-7.61c-.83,4.7-1.69,9.86-2.51,15.43-.41,2.79-.82,5.67-1.2,8.67-.18,1.51-.36,3-.55,4.6l-.24,2.46,0,.71-.05.91v.89a7.92,7.92,0,0,0,.08.81,8.51,8.51,0,0,0,1.26,3.28,9.71,9.71,0,0,0,1,1.27l0,0,.1.1.41.42,2.42,2.42,3.24-.08c.42,0,.85,0,1.27-.09a8.26,8.26,0,0,0,1.14-.2,12.78,12.78,0,0,0,1.76-.55,16.6,16.6,0,0,0,2.41-1.24,24,24,0,0,0,3-2.33,46.59,46.59,0,0,0,4.25-4.39c2.49-2.9,4.66-5.81,6.78-8.79,4.22-6,8.06-12.13,11.69-18.31q2.73-4.65,5.27-9.28c1.72-3.09,3.33-6.18,4.93-9.12l9.27-17.08c11.81-21.73,20.8-38.43,21-41.92.72-.15.76,8.22-.09,11.27q17.37-42.11,36.61-83.75c-.72,4.31,4.87,1.21,8,1.59s3.64,4.17-6.94,22.27c7-9.82,15.56-22,28.75-43.65-5,6.5-15.65,14.15-9.67,4.63,10.25-11.69,13.71-15.79,17.62-20.68,2-2.45,4-5.09,7.13-8.94s7.26-8.92,13.4-16.19c-7.67,9.64-4.42-4.78,7.12-20.48-1.1,3,5.37,1.88,1.7,8,7.92-14.14,16-28.17,24.45-42-3.29,5.08-2.7,6.2-.32,5.1a26.46,26.46,0,0,0,4.65-3.08,73.75,73.75,0,0,0,5.83-5c-1,.81.13-.83,2.52-3.85s6-7.45,10.08-12.15S977,813.76,981,809.56c1-1,2-2.08,3-3l2.59-2.51c.28-.27,1.37-1.14,2.1-1.72l2-1.66c-1.34.87-2.74,1.8-4,2.67a3.62,3.62,0,0,0-.57.39l-.85.71L983.47,806c-2.45,2.14-4.9,4.35-7.31,6.67,2.29-2.43,4.46-4.6,6.47-6.67l2.9-2.85a12.69,12.69,0,0,1,1.09-1l1.49-1.22c3.93-3.19,7.49-5.94,10.74-8.45l9-6.89,4.13-3.11,4.09-3a114.51,114.51,0,0,1,18.25-11.67,74.48,74.48,0,0,1,13-5.06,56.76,56.76,0,0,1,8.12-1.67c.73-.11,1.48-.16,2.23-.23s1.52-.11,2.3-.13a19.23,19.23,0,0,1,4.71.29,9.1,9.1,0,0,0-3.56.74c-.37.17-.73.35-1.06.53-1.31.73-2.13,1.67-2,2.49a1.78,1.78,0,0,0,1,1.15,6.88,6.88,0,0,0,1.12.55c.44.17,1,.32,1.43.5.93.37,2.07.77,3.53,1.44l.57.26.53.27,1,.56a18.31,18.31,0,0,1,2.13,1.42c1.81.71,4,1.9,7.25,8a126.88,126.88,0,0,1,8.9,22.17A354.39,354.39,0,0,1,1099,865.66l-1,9.33c.68,6.13,1.44,12.17,2.25,18.24s1.68,12.13,2.6,18.16c-1.63-5.55-3.74-13.68-6-23.34-.54-2.41-1.13-4.91-1.68-7.51s-1.11-5.26-1.68-8c-1.15-5.45-2.34-11.14-3.55-16.92-2.43-11.55-5-23.45-7.44-34.54s-4.92-21.44-7.19-29.54c.51,4.86.61,7.73.64,9.67s0,3,0,4.29c0,2.67.46,6.51,2,21.63-.26,5.42-1.18,1.33-2.21-5.18s-2.26-15.4-2.9-19.71c1.36,11.46,2.31,23.22,3.17,35s1.55,23.59,2.17,35.44c.76-.84,1.57,2.1,2.39,7s1.76,11.88,2.71,18.73,2,13.8,3,18.8,1.91,8.09,2.49,7.31c-2.2-13-3.9-26-5.45-39l-2.15-19.36q-1.08-9.61-2.26-19.2c1.49-1.69,4.7,9.25,7.7,27,.74,4.45,1.48,9.34,2.28,14.57s1.6,10.75,2.4,16.52,1.66,11.77,2.53,17.91c.22,1.54.45,3.08.68,4.63.24,1.76.55,3.59.83,5.38s.59,3.6.92,5.4.7,3.57,1.07,5.35c.07.49.12.93.17,1.34s.11.78.16,1.11a13.15,13.15,0,0,1,.13,1.69c0,.91-.13,1.38-.4,1.52s-.68-.06-1.18-.51a9.13,9.13,0,0,1-1.7-2.08c-.59-.93-1.23-2-1.87-3.14s-1.17-2.44-1.66-3.48c-1.07-2.14-1.78-3.81-2-3.29.28,1,.71,2.65,1.26,4.74l.88,3.42c.36,1.18.76,2.45,1.17,3.8a35.81,35.81,0,0,0,1.46,4c.28.66.53,1.39.84,2l1,1.86c1.35,2.51,2.72,5,4.44,7.63a11.07,11.07,0,0,0,1.14.52l.6.25.3.13a1.26,1.26,0,0,0,.39,0,10.41,10.41,0,0,0,2.83-.46,42,42,0,0,0,5-1.67,42.65,42.65,0,0,0,9.7-5.93c3-2.35,5.67-4.66,7.75-6.44s3.61-3.08,4.38-3.63c-3.7,3.76-7.59,7.65-11.64,11.16a48.23,48.23,0,0,1-6.11,4.61,31.22,31.22,0,0,1-5.89,2.92,26.16,26.16,0,0,0,5.63-2.07,38.78,38.78,0,0,0,5.81-3.72,129.23,129.23,0,0,0,11-9.62l2.57-2.5,1.26-1.24c.39-.39.92-.91,1.12-1.13l3.15-3.36,6.21-6.8a311.24,311.24,0,0,1,30.13-29.84c8.38-8.24,27.33-22.48,27.3-25.31-15.86,11.44-26.71,6.14-20-5L1207.31,852c12-11.37,24.76-23.65,30-28,7.57-6.14,4,.37.1,7.09s-8,13.74-1.57,8.49c-.18-1.13,6.17-9.72,8.9-13.22,8.85-8.53-1.44,5.57,16.33-14.3.28-2.77,9.57-12.64,15-18.27s6.86-7.05-8.44,7.14c17.12-19.71,19.4-19.82,40.46-42-8.3,5.56,13.82-24.89,31.64-44.14-.49,1.69,4.42-1.72,6.79-3.38,19-18.86,34-32.91,48.81-46.56L1443,621.11c3.9-2.56,22.4-17.94,15.75-10,2.45-2.62,4.73-5.23,7.83-8.46,1.55-1.61,3.29-3.39,5.37-5.41s4.52-4.23,7.4-6.77c6.06-4.36,7.53-5.06,6.56-3.94s-4.32,4.11-7.8,7.3c-7,6.33-14.5,13.44-4.92,7.17,0-.68,1.82-2.78,4.71-5.78,1.44-1.5,3.16-3.23,5.09-5.12l6.33-6c9-8.51,20.19-18.41,28.37-25.67-3.54.95-13.52,8.74-24.35,18.46s-22.62,21.22-30.39,29c-1.38-1.47,4.28-9.41,15.23-21.34,2.75-3,5.83-6.19,9.2-9.63s7.08-7.06,11.08-10.82c8-7.58,17.13-15.73,27.32-24.08a189.61,189.61,0,0,1,16.65-12.21c3.19-2.05,4.42-2.39,4.7-2.17.57.47-2.4,3.41.45,1.13,2-1.35,4-2.7,5.93-3.94l5.58-3.59,5.34-3.28,1.27-.79,1.33-.7c.88-.47,1.74-.93,2.56-1.34a152.59,152.59,0,0,1,17.91-8,78,78,0,0,1,15.09-4c1.18-.19,2.36-.3,3.52-.42a36.34,36.34,0,0,1,3.74,0,57.46,57.46,0,0,1,6.52.66c2.05.32,4,.7,6,1.15l1.46.34.84.22.92.25a30.22,30.22,0,0,1,3.81,1.32,19.58,19.58,0,0,1,6.86,5c.48.57,1,1.14,1.45,1.76s.88,1.27,1.31,1.93a32.83,32.83,0,0,1,2.24,4.44,43.31,43.31,0,0,1,2.55,8.59,68.65,68.65,0,0,1,1.18,9.38c.12,1.65.14,3.32.18,5.07,0,.87,0,1.75,0,2.64,0,.45,0,.9,0,1.36s-.07,1.06-.11,1.6a86.37,86.37,0,0,1-1.94,12.27c-1.81,6.43-3.18,9.51-4.08,10.79s-1.42.65-1.78-.57c-.72-2.44-.85-7.28-2.35-4.66.72-4.18,1.35-8.13,1.88-11.89.11-1,.22-1.88.33-2.81,0-.46.1-.91.16-1.37s0-.92.08-1.38c.14-1.84.1-3.59.11-5.3-.1-6.85-.48-13.1-2-19a20.78,20.78,0,0,0-.65-2.17,19.82,19.82,0,0,0-.84-2.19,16,16,0,0,0-1-2.08c-.19-.34-.37-.68-.57-1l-.65-.94a15.47,15.47,0,0,0-3.15-3.31,16.81,16.81,0,0,0-4-2.16c-.71-.29-1.41-.55-2.12-.82l-2-.72c-1.32-.46-2.66-.89-4-1.29a40.9,40.9,0,0,0-8.75-1.64,42.8,42.8,0,0,1,7.34,1.52c2.34.67,4.61,1.47,6.85,2.32s4.89,1.73,6.83,3.42a17.9,17.9,0,0,1,4.56,6.08c-.36-.63-.85-1.23-1.3-1.9-.25-.32-.53-.62-.81-.95a7.73,7.73,0,0,0-.88-.94,13.27,13.27,0,0,0-4.71-3.09c-1.89-.7-3.9-1.25-5.87-1.82s-4.07-1.09-6.18-1.51a40.41,40.41,0,0,0-6.38-.85,48.9,48.9,0,0,0-6.24.29,92.1,92.1,0,0,0-10.71,1.87,100.51,100.51,0,0,1,11.9-1.62l2-.08h2.09a30.78,30.78,0,0,1,4.43.52,71.77,71.77,0,0,1,9.64,2.62l2.53.89a24.77,24.77,0,0,1,2.53,1,12.41,12.41,0,0,1,4.32,3.54c2.4,3,3.72,6.92,4.66,11a77.88,77.88,0,0,1,1.47,13c.06,1.12.08,2.26.09,3.4v1.71l-.08,1.7c0,.57,0,1.14-.1,1.71l-.21,1.72c-.13,1.16-.26,2.31-.46,3.47-1.46,9.28-3.62,18.77-5.89,28.26s-4.73,19-7.24,28.18c-5,18.44-10.14,35.85-14.72,50.16-2,10.51-6.29,28.47-2.88,20.38l4.86-18.4c3.39-8.13,1.65.68,0,8.67s-3.26,15.12.53,3.67c-5.6,25-11.39,53.1-22.84,87.2l-4.78,5.62c1.06-.48,8.44-22,10.43-31.94-3,14.76-19.61,51.64-20.74,68.45l9.29-23.51c-6,25-12.32,56.2-22.78,86.33,7.12-13,1.9-7.11,11.9-27.72-5,8.74,1.16-10.7,6.72-28.76s10.57-34.74,3.87-20.29c10.54-21.09,13.25-38,25.07-66.22-1.2.63-4.81,9.81,3.17-15.75.06-1.24.5-4.08.81-5.88l.57-1.72-.52,1.39c.18-1.15.18-1.26-.19.52a101.28,101.28,0,0,1-5.24,12.68c.79-6.69,4.17-20.24,7.66-33.91s7.07-27.46,8.44-34.55c4.67-15.2-.69,6.7,2.62-1.38l4-21.23c2.71-1.45,14.21-40.09,6-3.38,2.92-10.89,5.78-21.81,8.46-32.85.73-2.41,1.48-4.94,2.22-7.56s1.46-5.35,2.16-8.15c1.38-5.62,2.71-11.45,3.69-17.69.22-1.66.43-3.27.61-5,.05-1,.11-1.93.16-2.89,0-.46,0-1,0-1.4V543.4c0-1.52,0-3-.12-4.55s-.17-3-.3-4.52a62.59,62.59,0,0,0-3.87-17.4c-.13-.35-.26-.7-.4-1.06s-.33-.86-.5-1.3c-.34-.85-.74-1.61-1.15-2.43a30.12,30.12,0,0,0-2.88-4.62,24.92,24.92,0,0,0-8.29-7.17l-2.45-1.14c-.83-.32-1.69-.64-2.5-.9l-1.17-.38-1.09-.32-1.6-.44c-2.12-.55-4.16-1-6-1.36a65.53,65.53,0,0,0-7.47-1c-.83,0,.86-.13,5.15.34a48,48,0,0,0-9-1H1606l-.53,0-1.06.05c-.72,0-1.41.08-2.1.14-1.4.11-2.73.3-4.08.48a83,83,0,0,0-15,3.88,123.84,123.84,0,0,0-13.38,5.68c-1.06.52-2.13,1-3.17,1.6l-1.56.81-1.67.9-1.66.91-1.51,1-3,1.91-.73-.19c-1.55.91-2.94,1.82-4.37,2.74l-4.28,2.76c-2.78,1.92-5.61,3.8-8.36,5.79q-8.25,5.92-16.29,12.27c-10.73,8.45-21.25,17.35-31.86,26.48-21.16,18.28-42.63,37.42-65.9,56.27-12.54,12.37-25.35,25.25-46.92,45.26l-5.42,2.65c-7.88,8.09-20.28,19.66-31.36,30.29s-20.8,20.33-23.5,24.47c-10.33,6.93-29.65,26.39-49.58,47.91-10,10.76-20.11,22-29.43,32.37s-17.9,19.92-24.67,27l.81,2.75c-18.39,19.93-35.5,39.51-58.24,64.19l3,0a351.92,351.92,0,0,1-26.88,27.16q-4,3.68-8.2,7.43l-2.12,1.88-.53.47-.33.27-.55.46-2.22,1.8c-1.48,1.17-2.94,2.29-4.41,3.32a24.63,24.63,0,0,1-2.27,1.43,3.71,3.71,0,0,1-1.23.48,2,2,0,0,1-.35,0c-.11,0-.14-.19-.22-.27a4.12,4.12,0,0,1-.34-.66,20.45,20.45,0,0,1-1.13-3.93c-.28-1.31-.49-2.61-.68-3.9l-.54-3.83c-.33-2.53-.65-5.06-1-7.6a20.84,20.84,0,0,1,.88,3.6c.15.8.3,1.68.45,2.62.07.48.15,1,.23,1.54.24,1.72.4,3.79.56,5.76-.05-1.73-.06-3.26-.07-4.68,0-.68,0-1.37,0-2v-.37l-.06-.63-.12-1.27-.22-2.55q-.95-10.32-1.9-20.77c-.68-7-1.36-14-2-21s-1.38-14.25-2.16-21.34c-1.55-14.2-3.26-28.23-4.89-41.91l-2.45-20.29c-.85-6.73-1.71-13.39-3.1-20.25-.55-1.66-1.12-3.29-1.74-4.9-.28-.79-.65-1.62-1-2.41-.14-.36-.4-.92-.62-1.4s-.45-1-.68-1.45a32.71,32.71,0,0,0-3.17-5.24,18.3,18.3,0,0,0-4-4.11,31.05,31.05,0,0,0-4.71-2.87c-.81-.42-1.63-.8-2.45-1.16s-1.7-.7-2.39-.95a35,35,0,0,0-9.46-2.07c1.75.05,3.29.21,4.6.37a27.88,27.88,0,0,0-3.42-.45c-.66,0-1.35-.07-2.07-.07l-1.77,0a77.54,77.54,0,0,0-20,2.23,108.81,108.81,0,0,1,16.74-2,80.47,80.47,0,0,0-19.43,4.34,137.12,137.12,0,0,0-20.51,9.21c-2.25.25-4.52.57-6.74.87l-2.94,1.68-2.2,1c-.68.33-1.34.67-1.91,1-1.17.61-2.08,1.15-2.79,1.6-1.41.91-2,1.49-1.88,1.78.18.59,3,0,6.77-1.06a146.51,146.51,0,0,0-16.07,11.29,35.93,35.93,0,0,0-10.16,5.4c-.91.66-1.85,1.35-2.79,2.1l-.83.65a9.67,9.67,0,0,0-1,.84l-1.44,1.41c-.88.89-1.81,1.78-2.68,2.71L967,796.61c-7,7.6-13.59,15.81-20.15,20.65-.61,1.09-1.74,2.82-3.27,5l-5.64,7.86c-4.35,6-9.58,13.27-14.66,20.59-10.14,14.65-19.54,29.43-20,33.73-.72.09-3.37,3.38,1.07-2.94-9.62,12.73-19.11,25.55-26.21,38l-6.26,3.92q-8.16,15.51-16.1,31.12c-6.57,8.32-11.25,14.2-13.1,15.64s-.91-1.6,3.92-11c-12.45,22.2-17.6,31.11-22.34,39.17s-8.93,15.35-18.62,34.69l-.55-2.79c-2,3.31-4.11,7.21-6.3,11.29s-4.4,8.37-6.55,12.48c-4.3,8.2-8.31,15.68-11.32,19.32-1.89,2.64-4.16,6.09-6.77,10.23s-5.4,8.87-8.66,14.11-6.87,10.93-11,16.77c-2,2.9-4.25,5.87-6.56,8.65a46.92,46.92,0,0,1-3.45,3.79,14.58,14.58,0,0,1-1.42,1.21l-.17.11h0l.17.31c.25.45.47,1,.66,1.29a9.21,9.21,0,0,1,.5,1.16l.1.31c0,.09.07.15.1.23a3,3,0,0,1,.15.45,3.38,3.38,0,0,1,.11.48l0,.23,0,.16a2.12,2.12,0,0,1,0,.67l5.57-3.36-.46-.47-.06-.06c5-5-6.84,6.79-5.45,5.43a.93.93,0,0,1,.42-.21,1.21,1.21,0,0,1,.5,0c.2,0,.22.18.62.11.64,0,1.29-.07,1.93-.09,1.29,0,2.58,0,3.87.08.45,0,.41,0,.38.06V1135l.07-1c.09-.82.18-1.65.26-2.47.22-1.73.43-3.47.65-5.22.47-3.53,1-7.14,1.53-10.8,1.11-7.31,2.37-14.82,3.78-22.44s3-15.3,4.72-23.11,3.46-15.77,5.27-23.64c7.17-31.54,15-62.86,22.61-89.41-4.78,7.63-1.71-2.16,2.13-14.41s8.58-26.91,6.92-29.14c2.57-4.65,6.35-16.34,3.92-2.24,5-21.92,9.83-38.11,14-52.67,2.08-7.28,4-14.16,5.7-21.14s3.16-14.08,4.37-21.8c2.68-4.6-.71,9.79,1.28,5.59.71-3.54,2.72-14.06,4.78-18.35s-.73,6.64-2.07,13.65c6.08-22.14,8.56-34.56,9.11-42a26.1,26.1,0,0,0-.36-8,12.62,12.62,0,0,0-1.8-4c2.1-5.4,3.94-10.12,5.55-14.42s3-8.26,4.21-11.81l.95-2.76c.3-.93.59-1.86.88-2.79.58-1.86,1.07-3.73,1.56-5.61.94-3.79,1.73-7.7,2.38-12,1.83-3.76,3.88-9,4.6-9.73.35-.36.44.46-.07,3.15a129.49,129.49,0,0,1-3.8,14.24c.66-1.95,1.69-4.89,2.86-8.63s2.5-8.27,3.66-13.49l.42-2c.08-.34.14-.68.2-1s.14-.78.22-1.18c.17-.93.29-1.85.41-2.79s.28-1.89.32-2.84a34.82,34.82,0,0,0-.78-11.46,20.28,20.28,0,0,0-5.54-10,18.34,18.34,0,0,0-10.42-4.59,39.67,39.67,0,0,0-11.73.59c-1,.19-1.94.36-2.9.59l-1.42.33-1.29.33c-1.41.38-2.78.77-4.11,1.19s-2.6.84-3.84,1.27-2.34.82-3.82,1.43a40,40,0,0,0-7.16,3.89,42.55,42.55,0,0,0-8.6,7.75c-1.75,2.12-2.56,3.55-2.41,4a33.73,33.73,0,0,0-4.19,4.6,75.52,75.52,0,0,0-4.8,7,89.82,89.82,0,0,0-6.17,12.29c-4.1,8.37-6.81,14.91-9.07,20.49s-4,10.22-5.7,14.84c-3.35,9.25-6.53,18.45-11.7,35.52l3.45-9.28c-.72,14.53-8,28.49-15.35,56.21l-.15-.89c-5.06,15.63-7.89,25.2-9.69,31.7s-2.55,9.94-3.31,13.34-1.51,6.79-3.3,13.18c-.88,3.19-2,7.14-3.53,12.23l-5.66,19.08,3.08-2.85c3.38,7.08-16.51,54.93-23.61,91.85l4.51-12.84c-3.23,20.31-20.23,54-25.75,73.9-1.49,4.26,1-7.05,2.2-13.21-15.71,51.68,1.28,7.5-7.62,46.69-3.35,6.81-1.76-10.25-8.51,15.95-1.12,3.2-2.53,9.63-4.2,18-.81,4.21-1.77,8.88-2.64,13.95l-2.85,16c-4,22.27-8.58,47.37-13.86,65.19,2.9-7.74,5.78-15.39,2.89,3.11-2.67,14.09-7.64,32.86-11.68,51.57s-7.11,37.37-6.5,50.7c-.77,3.63-1.16,5-1.5,5.15-.11,2.82-.32,6-.37,9.65,0,1.24-.08,2.5-.12,3.79q0,1,0,2c0,.68.1,1.31.14,2,.24,2.62.42,5.34.73,8a13.8,13.8,0,0,0,4.31,6.89,21.64,21.64,0,0,0,7.44,4.14l1,.35,1.07.27c.72.17,1.42.39,2.16.49l2.2.36,2.24.22a21.06,21.06,0,0,0,2.25.11c.76,0,1.5.06,2.26,0l2.24-.09c.79,0,1.43-.09,2-.14a73.67,73.67,0,0,0,24.66-6.93,50.5,50.5,0,0,0,14.23-9.83,14.85,14.85,0,0,0,2.32-1c.42-.22.86-.45,1.31-.73s.89-.59,1.36-.92a27.5,27.5,0,0,0,2.92-2.36c.24-.22.53-.47.74-.68l.67-.65,1.37-1.37c1.89-1.89,3.78-4.1,5.82-6.5s4-5.07,6.07-7.93c8.25-11.37,16.61-25.72,24.08-39.7,15-28,26.71-54.34,30-52.45q14.94-30.12,30.33-59.83l-.15,1.91c10.19-18.85,16.82-31.74,21.54-41.72s7.62-17,10.49-24c5.26-8.42,2.34-1.77,2.28-.86,15.85-27,24.72-41.76,32.4-55.74s14.23-27.16,26.19-50.62l4.86-3.44c3.1-6.44,15.59-25.35,31.5-49l25.71-38c9-13.22,17.94-26.72,26.34-39.4-.12.65-.51,1.93-3.05,6.05,4.7-7.15,9.9-14.46,15.52-21.62,1.4-1.79,2.83-3.58,4.29-5.33l1-1.17.57-.66,1.16-1.32a55.47,55.47,0,0,1,4.89-4.82,20.26,20.26,0,0,1,2.66-1.94,5.15,5.15,0,0,1,3-1c.56.13.84.77,1.06,1.29a10.87,10.87,0,0,1,.48,1.69,29.1,29.1,0,0,1,.51,3.4c.23,2.23.32,4.37.34,6.38,0,3.34,0,6.65,0,9.89,0,2.17-.06,4.33-.09,6.46s-.09,4.37-.14,6.51c-.05,4.36-.1,8.6-.1,12.71s.1,8.08.22,11.9.32,7.49.55,11c1,13.91,3,24.86,5.75,31.07,2.33,15.36,5.24,30.73,10.36,45.77q-.74-2.77-1.36-5.2c-.43-1.61-.69-3.11-1-4.5s-.57-2.67-.78-3.85-.36-2.25-.52-3.22a48.09,48.09,0,0,1-.8-7.43c0-2.4.88-.28,1.92,2.9,2.21,6.39,5.77,16.78,3.87,4.7,2.4,11.39,6.18,26,10.06,34,1.69,4.08,3.32,6.5,2.86,6.57-.19,0-.88-.57-2-2l-.92-1.24-1-1.59a40.78,40.78,0,0,1-2.38-4.25c-.51-1.48-1.11-2.93-1.53-4.42-2-2.11-1.63,1.33,1.17,7.66l1.23,2.49c.23.43.45.88.69,1.33l.85,1.39a39.25,39.25,0,0,0,4.35,5.7,34.24,34.24,0,0,0,6.24,5.32,31.46,31.46,0,0,0,8,3.77,34.61,34.61,0,0,0,8.69,1.51c1.45.09,2.85,0,4.24,0s2.74-.19,4-.4a70.44,70.44,0,0,0,13.68-3.48c1.94-.64,3.62-1.35,5.15-1.92s2.81-1.11,3.86-1.53c2.1-.83,3.32-1.13,3.31-.69a176.88,176.88,0,0,0,19.25-12.26c3-2.19,6-4.45,8.9-6.69s5.77-4.59,8.66-6.87c11.39-9.31,22.26-19,32.87-28.86s20.93-19.88,31.1-30,20.13-20.3,30-30.55c4.91-5.11,9.77-10.27,14.63-15.39s9.66-10.29,14.42-15.46c9.57-10.29,18.94-20.74,28.3-30.9q28.08-30.65,56.05-60.33l-11.13,6.75q13-13.83,26.15-27.51c3.73-3.32,6.54-5.25,6.06-3.93s-4.24,5.9-13.58,15.68c5.61-4.49,13.11-13,19.24-20.5s10.89-14,10.89-14.55c9.49-9.25,13.53-12.74,14.42-13s-1.41,2.73-4.5,6.54c-6.21,7.57-15.66,18.38-10,12.57l15.18-16-3.77,3.26c5.74-6.89,8.62-10.88,12.95-16s10.09-11.44,21.71-22.8c15.15-13.93,9.06-5.83,14.93-11.39.16.22,2.16-1.64,9-8.56q17.26-16.47,34.86-32.5-8,5.41-15.85,10.94c14.45-15.52,33.14-30.19,14.7-17.76,3.4-2.28,8-5.83,13.58-10.26l9-7.24,10.13-8.08,1.92-1.48,1.74-1.32,3.55-2.62c2.41-1.73,4.88-3.47,7.53-5a23.82,23.82,0,0,1,4.16-2,8.51,8.51,0,0,1,1.13-.29,2.79,2.79,0,0,1,.58-.07.73.73,0,0,1,.56.1,1.74,1.74,0,0,1,.48,1.07,7.86,7.86,0,0,1,.11,1.19c0,.8-.05,1.6-.08,2.4s-.15,1.59-.25,2.38l-.33,2.36-.39,2.35c-.26,1.57-.56,3.12-.85,4.66-.16.77-.31,1.54-.47,2.3s-.32,1.59-.49,2.38c-.5,2.45-1.84,8.46-2.92,13.17-2.24,9.78-4.53,19-6.59,27.23-4.16,16.44-7.58,28.83-9.21,33.54-5.69,29.19-13.66,57.42-24,92.25,3.05-8.51,7.61-12.84-1.51,17.16-1.51-6.4-6.17,7.18-12,25.2s-12.85,40.5-18.78,51.92c4.76-10.37-1.51,11-7.26,30.84s-11,38.18-3.58,21.88c-8.3,24.81-2.79.8-10.15,19.28-8.13,30.06-18.9,62.62-30.67,96.77s-24.38,70-35.84,106.81c.44,1.41,5.65-10.46,1.76,5.64l-16.55,37.38c-4.26,14.61.34,14.82-11,40.38,1.88-3.51,4.7-8.76,1.83,1-25.05,71.18-47.57,144.91-70.19,218.9-11.3,37-22.62,74.08-34.27,111q-8.75,27.66-17.76,55.14-4.5,13.72-9.11,27.37c-3.1,9-6.38,18-9.7,27,7.74-19.24,3.82-6-.9,9,3.48-9.66,1.93.86,3.64-.71q-5.61,15-11.4,29.91l-5.85,14.86-6,14.9c-.37,6.11-6,22.38-10.61,38.62-1.15,4.08-2.24,8.15-3.11,12.19-.23,1-.41,2-.6,3s-.35,2.13-.47,3c-.23,1.8-.44,3.53-.62,5.16-.34,3.26-.57,6.13-.6,8.47a30.07,30.07,0,0,0,.08,3.11,8.93,8.93,0,0,0,.42,2.42,31.53,31.53,0,0,1,.08-3.17l.2-2.68c.15-1.76.33-3.47.51-5.18l.56-5.11c.2-1.71.37-3.31.66-5.28,0,.94-.08,1.86-.06,2.51s0,1.28.09,1.8a8.41,8.41,0,0,0,.4,2.21c.35.88.88.65,1.52-.39a15.52,15.52,0,0,0,1.06-2.1c.19-.44.39-.92.59-1.43s.44-1.1.67-1.7c1-2.36,2.12-5.1,3.39-8,5.16-11.43,12.09-25.06,13.66-22.49,1.33-7.46,4-15.79,7.4-24.81,1.7-4.51,3.63-9.2,5.59-14.12s4-10,6.09-15.18c4.13-10.44,8.32-21.52,12-33.06,1.86-5.77,3.59-11.66,5.13-17.64.77-3,1.5-6,2.18-9.09s1.23-6.1,1.76-9.18c4-10.24-1.23,9.39,1.47,4.08,1.66-12.65,5.58-27.33,14.51-54l-.44,3.18c11.16-37.9,19.76-64.79,29-92.75l33-99.18-4.15,5.59c6-18.11,7.89-21.73,11.13-30.08,3.26-21.93-16.27,51.07-13.93,30.89,6-11.38,16.12-43.46,26.08-74.52s19.77-61.09,24.88-68.43c9-28-5.15,7.38,3.85-20.55l3.74-7,.51-7.63c6.17-18.23,10.88-26.92,12.24-27.23-1.57,4.4-3.75,12.73-5.19,17.53,4.64-11.62,9.9-28.4,14.4-43.28s8.27-27.85,9.86-31.84l-9.54,26.56c11.71-38.32,25.57-80.58,39.25-122.58s26.64-83.94,36.79-121.37l-2.79,5.3c7.84-28.55,11.58-39.8,15.66-51.7s8.52-24.45,17.34-55.73l-.43,2.34c2.67-12.77,7.06-29.58,12.11-46.63-3.33,16.12,10.92-29,6.3-7.92,3.92-15.58,6.29-25.32,7.78-31.81s2.12-9.73,2.5-12.33c.75-5.21.64-7.83,4.26-28.82l4.26-9c1.09-7.19,1.49-11.13,2.6-17.22s2.94-14.3,6.63-30.13c-5,26.25,7.68-19.49,2.41,10,2.55-8.17,4.77-15.86,6.66-23.15,1-3.65,1.82-7.19,2.62-10.65.2-.86.39-1.72.59-2.57.25-1.19.51-2.37.76-3.54q.75-3.63,1.48-7.14c.43-2.4.84-4.76,1.26-7.09.18-1.15.42-2.33.56-3.43s.26-2.18.39-3.26a68.14,68.14,0,0,0,.57-11.63c-.2-1.53-.35-3.1-.58-4.53-.16-.65-.31-1.3-.47-2a14.17,14.17,0,0,0-.49-1.87,24.49,24.49,0,0,0-1.29-3.39,9.54,9.54,0,0,0-1-1.59,4,4,0,0,0-.73-.76,2.19,2.19,0,0,0-1-.48,12.13,12.13,0,0,0-3.82-.17,15.92,15.92,0,0,0-1.82.25c-.6.09-1.2.24-1.79.38a17.41,17.41,0,0,0-1.8.52c-.6.19-1.2.38-1.81.61s-1.18.4-1.8.67l-1.82.79a95.83,95.83,0,0,0-14.73,8.87c-2.41,1.68-4.79,3.43-7.16,5.14l-6.89,5-1.6,1.14-1.26.86-2.55,1.67c-1.69,1.09-3.41,2.14-5.14,3.17-5.18,6.11-4.8,6.86-1.6,4.73,1.61-1.06,3.94-2.83,6.68-5l10.29-8.16c4.38-3.47,8.93-6.89,13.09-9.69a73.2,73.2,0,0,1,10.61-6.07L1541,589l1.51-.55c.9-.33,1.53-.49,1.87-.59.67-.16.15,0-2,1,1.66-.4,2.47-.48,2.6-.29s-.4.5-1.47,1.13a107.23,107.23,0,0,0-11.7,7.32c-2.65,1.91-5.53,4.17-8.47,6.54l-4.43,3.66-4.37,3.7L1507,617.4c-2.37,2-4.64,4-6.7,5.68-8.25,7.14-16.18,12.17-27.09,20.12s-24.74,18.87-44.36,38c3.93-3.79,3.92-4.33,7.85-8.1-15.64,13.39-27.58,29.32-46.71,45.79-7.79,12.13-23,23.26-23,28.85q17.1-18.4,34.53-36.52c-9.71,10.43-18.39,21.26-28.89,33.49s-22.78,25.92-39.6,42.29c1.93-3.2,10.75-14.06,17-21.4-10.26,9.19-17.61,19.7-28.12,29.34,0-2.78,10.21-14.13,22.93-27.67s27.93-29.31,37.58-41.24c-5.74,4.7-15.32,15.56-22.45,23.52s-11.85,13-8,6c-5.73,9.79-15.11,19.49-25.86,30.5s-22.8,23.4-33.8,38.47l-.05-3.35c-3.68,4.59-11.06,14.31-18.33,22.33l10.92-16.52c-4.59,6-9.39,11.6-14.33,17s-9.9,10.52-14.92,15.61-10,10.06-15,15.16-9.73,10.32-14.35,15.77c20.25-22,22.91-24.18,23-22.83s-2.68,6,6.44-2.85c-11.81,14.26-19.87,23-26.11,29.18-3.12,3.07-5.78,5.5-8.24,7.61s-4.75,3.89-7.07,5.73c-4.64,3.68-9.57,7.45-16.83,14.09s-16.93,16.06-31.47,30.53c7.79-7.89,30.58-28.56,19-15.43-11.35,10.86-26.86,24.56-34.72,30.09-9.87,9.25-14.46,13.4-15.87,15s.3.51,2.77-1.18c5-3.33,12.82-9.4,4.7-1.15a97.35,97.35,0,0,0-9.93,7.3c-2.84,2.38-5.32,4.83-7.92,7.36l-4,4-4.47,4.27a105.59,105.59,0,0,1-11.56,9.55l-1.4-1.86c-12.61,7.68-19.86,10.3-24,11.88-.52.19-1,.38-1.44.56l-1.21.43-1.84.75a13.19,13.19,0,0,0-1.3.64c-.37.18-.7.36-1,.54s-.63.36-1,.53a12.11,12.11,0,0,1-1.17.45l-.74.21c-.26,0-.55.1-.86.14a13.61,13.61,0,0,1-2.24.12,15.6,15.6,0,0,1-6.8-1.89c-2.74-1.44-6-4.19-8.94-9.31a30.7,30.7,0,0,0,3.47,3.39,22.25,22.25,0,0,0,3.67,2.44,16.12,16.12,0,0,0,7.44,1.81,16.14,16.14,0,0,1-8.08-4,25.51,25.51,0,0,1-3.55-3.91c-.26-.38-.54-.73-.81-1.14l-.78-1.31-.79-1.3-.4-.65-.37-.71a22.82,22.82,0,0,0,2.36,1.6c.79.48,1.55,1,2.31,1.39-.43-.57-.85-1.27-1.27-1.88s-.86-1.2-1.22-1.89c-.72-1.38-1.48-2.63-2.12-4s-1.21-2.68-1.79-3.94-1-2.63-1.47-3.89-.88-2.52-1.26-3.76-.76-2.46-1.11-3.67c-.61-2.47-1.24-4.83-1.74-7.25-2-9.69-3.19-19.63-4.2-34.9-.51,3.62-1.64,2.74-3-2.48s-2.68-14.82-3.18-28.57c.36-9.4,1.06-6.79,1.37-6.7s.27-.54.27-3.57-.12-8.52-.25-18.27c1.53,8.82,3.31,18.39,1.88,35.33.86,1.69,1.87,8.54,2.75,10.26.2-10-.16-22.59-.43-34.47-.12-6-.23-11.75-.33-16.92-.09-5.37-.28-10.19-.45-13.92.08,2.88.11,6,.06,8.87,0,1.43-.07,2.79-.13,4s-.12,2.23-.21,3.08l-.43-7.3c-.17-2.46-.36-4.93-.59-7.4l-.38-4c-.17-1.92-.37-3.8-.57-5.68-.42-3.74-1-7.4-1.61-10.9a70.07,70.07,0,0,0-2.46-9.82,34.26,34.26,0,0,0-3.64-7.68,28.54,28.54,0,0,0-2.23-3,14.35,14.35,0,0,0-2.78-2.51,6,6,0,0,0-2-.88,9.64,9.64,0,0,0-2.13-.13,15,15,0,0,0-4,.75l-2.71.51a5.09,5.09,0,0,1-1.35.2c-.49,0-.18-.38.66-.9a18.73,18.73,0,0,1,3.94-1.74,13.6,13.6,0,0,1,6-.6c-3.59-.67-6.48.26-9.38,1.31a37.24,37.24,0,0,0-8.82,5.27,83.72,83.72,0,0,0-9.69,9.21q-2.58,2.79-5.35,6.08c-.94,1.08-1.87,2.24-2.85,3.42L983,850l-1,1.26c.18-.59.3-1.11.41-1.61l.15-.75c.1-.3.26-.66.4-1a30.48,30.48,0,0,1,2.91-5.42c.78-1.2,1.76-2.61,3-4.23s2.84-3.51,4.8-5.62c1-1,2-2.18,3.24-3.23l1.86-1.69,2-1.63a35.73,35.73,0,0,1,9.6-5.37,34.29,34.29,0,0,0-8.25,4.31c-.69.44-1.39,1-2.09,1.54s-1.4,1-2.09,1.69l-2.08,1.81-2.06,2c-.69.64-1.36,1.34-2,2.05l-2,2.11c-1.31,1.48-2.65,2.89-3.91,4.42s-2.55,3-3.78,4.55l-1.76,2.17-1.08,1.42c-5.73,7.54-11,15.15-16.19,22.81-1.43,1.25-6.05,6.67-9.78,11s-6.65,7.65-4.91,4.51c-9.15,12.23-18.83,28.24-28.89,45.39S899,968,887.85,984.71c-.78,2-2.67,5.72-6.86,13.17-10,16-19.62,31-29.29,46.94s-19.34,33-29.14,53.11q-7.68,10.24-15.29,20.55c-16.15,31.1,20.21-28.08-6.61,23.71-9.32,18.41-11.72,21.49-12.83,21.47s-.85-3.11-4.66,3.07c-4.06,9.47-9.44,22.52-16.21,37.29-3.38,7.38-7.11,15.19-11.2,23.21q-3.06,6-6.4,12c-2.22,4-4.6,8-7.06,12C747.48,1240,752.25,1231.59,757.34,1221Zm-77-71.63c-1.4,8.2-3.65,24.67-6.3,30.31C673.5,1169.82,676.39,1163,680.33,1149.34ZM820.56,788.1c.94-6.18,4-15.3,7.84-25.47C826.41,770.24,823.83,778.77,820.56,788.1Zm825.19-227.19c0-.37,0-.63.06-.93.55-2.37.93-4.47,1.28-6.12s.51-3.14.67-4.14.22-1.82.26-2.19,0-.4,0-.09A110.88,110.88,0,0,1,1645.75,560.91Zm-9.68,38.17c-.65,3.86-.27,3.68.45,2.16a58,58,0,0,1,1.45-7.88c.86-3.68,2-8.24,3.2-13.09C1639.93,582.83,1638.4,587.67,1636.07,599.08ZM1446.69,690l-5.79,4.79C1452.55,682.46,1449.59,686.21,1446.69,690Z" transform="translate(-270.11 -96.48)"/><path class="cls-3" d="M840.06,716.21c1.09-2.06,1.71-2.53,2.29-2.92C842.92,710.13,842.57,709.94,840.06,716.21Z" transform="translate(-270.11 -96.48)"/><path class="cls-3" d="M887.14,985.82l.71-1.11a3.78,3.78,0,0,0,.33-1.35Z" transform="translate(-270.11 -96.48)"/><path class="cls-3" d="M1247,829.11c-5.59,5.62-8.9,8.61-11.21,10.51C1235.94,840.33,1238.73,837.94,1247,829.11Z" transform="translate(-270.11 -96.48)"/><path class="cls-3" d="M1583.34,797.47l6.62-23.9c-3.36,11.51-5.1,15.46-7.2,21.14C1583.43,794.35,1585.57,790.05,1583.34,797.47Z" transform="translate(-270.11 -96.48)"/><path class="cls-3" d="M1504.37,997.89c-.86,3.52-2.37,7.29-3.21,10.77l1.33-.6C1507.24,993.41,1509.79,982.91,1504.37,997.89Z" transform="translate(-270.11 -96.48)"/><path class="cls-3" d="M1569.23,817.13c-2.45,1.31-6.39,16.34-11.22,33,.31-1,.59-1.94.92-2.93C1560,852.9,1564.68,835,1569.23,817.13Z" transform="translate(-270.11 -96.48)"/><path class="cls-3" d="M1556.87,854c-1.51,5.13-3.09,10.35-4.76,15.31C1552.55,871.57,1554.29,863.17,1556.87,854Z" transform="translate(-270.11 -96.48)"/><path class="cls-3" d="M1624.64,647c-2.7,7.81,1,5.66-1,9.94-.05,4.77,3-8.67,4.52-17.85S1630,625.05,1624.64,647Z" transform="translate(-270.11 -96.48)"/><polygon class="cls-3" points="1288.81 732.16 1292.95 726.94 1293.95 717.09 1288.81 732.16"/><path class="cls-3" d="M1600,698.07l-8.41,26.4c.51-.29-.26,3.15-1.31,7.35C1595.18,715.48,1600.85,697.64,1600,698.07Z" transform="translate(-270.11 -96.48)"/><path class="cls-3" d="M1590.26,731.82c-2.56,8.52-4.94,16.63-6,21.49C1585.64,748.69,1588.53,738.75,1590.26,731.82Z" transform="translate(-270.11 -96.48)"/><polygon class="cls-3" points="1299.24 695.77 1302.1 688.08 1307.92 669.41 1299.24 695.77"/><path class="cls-3" d="M1531,540.67c-7.94,6.27-15.72,12.7-23.42,19.24-.94,1.29.28.74,2.8-1s6.33-4.82,10.68-8.41C1526.39,545.51,1535.21,538.53,1531,540.67Z" transform="translate(-270.11 -96.48)"/><path class="cls-3" d="M1613.14,512.08c-3.64-1.11-5.49-1.5-6.92-1.83a39.43,39.43,0,0,0-5-.74c-.18,1-.34,2.05-.48,3.07,1-.22,2.09-.43,3.13-.58s2.16-.29,3-.34A32.76,32.76,0,0,1,1613.14,512.08Z" transform="translate(-270.11 -96.48)"/><path class="cls-3" d="M1538,544.6c-2,2.33-33,28.45-3.09,5.06.94-1.27,7.34-6.47,10.73-9.33,1.7-1.43,2.62-2.3,1.7-1.86A98.14,98.14,0,0,0,1538,544.6Z" transform="translate(-270.11 -96.48)"/><polygon class="cls-3" points="939.3 761.59 944.49 755.91 940.12 753.4 939.3 761.59"/><path class="cls-3" d="M1023.49,784.68c7.58-3.62,11.76-5.3,14.17-6.53a11.45,11.45,0,0,0,3.69-2.37,7.58,7.58,0,0,1,3.22-2,18.85,18.85,0,0,1,1.91-.66c.75-.23,1.63-.49,2.64-.71a43.68,43.68,0,0,1,7.93-1.11c1.63-.42,1.16-.63-.44-.65a41,41,0,0,0-7.19.81c-5.67,1-11.46,3-7.89,1.21a135.88,135.88,0,0,0-19.52,9.81c-1.71,1.09-2.63,1.92-2.43,2.26S1021.06,785,1023.49,784.68Z" transform="translate(-270.11 -96.48)"/><path class="cls-3" d="M1041.53,772.67c2.94-1.19,6.06-2.36,9.38-3.38A52,52,0,0,0,1041.53,772.67Z" transform="translate(-270.11 -96.48)"/><path class="cls-3" d="M1175,1797.08c-1.22,3.84-2.4,7.68-3.41,12-.25,1.05-.5,2.37-.7,3.36l-.54,2.87-1,5.81c.6-2.51,1.22-5,1.85-7.42l1.07-4.07c.41-1.37.82-2.73,1.26-4C1173.93,1802.69,1174.45,1799.88,1175,1797.08Z" transform="translate(-270.11 -96.48)"/><path class="cls-3" d="M1177.12,1848.27a22,22,0,0,0,3.26,8,26.51,26.51,0,0,0,10.27,3.16,32.16,32.16,0,0,0,5.28.11c.87-.06,1.74-.14,2.59-.23s1.41-.22,2.12-.34l-1.24,0h-1.49a30.74,30.74,0,0,1-3.62-.23,26.65,26.65,0,0,1-7.61-1.94,19.94,19.94,0,0,1-6.22-4A16.26,16.26,0,0,1,1177.12,1848.27Z" transform="translate(-270.11 -96.48)"/><path class="cls-3" d="M701.69,1088.73l-.32-1.88c-1.64,3.26-3,8.48-5.68,18.93Z" transform="translate(-270.11 -96.48)"/><path class="cls-3" d="M658.27,1352.41c-.7.13-1.4.25-2.09.33s-1.39.18-2.07.23a49.12,49.12,0,0,0,8.48,1.31c-.74-.26-1.48-.58-2.2-.89S659,1352.76,658.27,1352.41Z" transform="translate(-270.11 -96.48)"/><path class="cls-3" d="M789.24,1146.78c-5.18,9.42-10.58,20.87-15.69,30.39C784,1156.17,793.74,1145.89,789.24,1146.78Z" transform="translate(-270.11 -96.48)"/></svg>