<svg id="Calque_1" data-name="Calque 1" xmlns="http://www.w3.org/2000/svg" xmlns:xlink="http://www.w3.org/1999/xlink" viewBox="0 0 928 828"><defs><style>.cls-1{fill:none;}.cls-2{clip-path:url(#clip-path);}.cls-10,.cls-11,.cls-12,.cls-13,.cls-14,.cls-3,.cls-4,.cls-5,.cls-6,.cls-7,.cls-8,.cls-9{stroke:#000;stroke-miterlimit:10;stroke-width:3.66px;}.cls-3{fill:url(#Dégradé_sans_nom_17);}.cls-4{fill:url(#Dégradé_sans_nom_17-2);}.cls-5{fill:url(#Dégradé_sans_nom_17-3);}.cls-6{fill:url(#Dégradé_sans_nom_17-4);}.cls-7{fill:url(#Dégradé_sans_nom_17-5);}.cls-8{fill:url(#Dégradé_sans_nom_17-6);}.cls-9{fill:url(#Dégradé_sans_nom_17-7);}.cls-10{fill:url(#Dégradé_sans_nom_17-8);}.cls-11{fill:url(#Dégradé_sans_nom_17-9);}.cls-12{fill:url(#Dégradé_sans_nom_17-10);}.cls-13{fill:url(#Dégradé_sans_nom_17-11);}.cls-14{fill:url(#Dégradé_sans_nom_17-12);}.cls-15{fill:#ffd6f3;}.cls-16{fill:#74efff;}</style><clipPath id="clip-path"><rect class="cls-1" y="-246.27" width="912.45" height="1443.16"/></clipPath><linearGradient id="Dégradé_sans_nom_17" x1="686.87" y1="353.2" x2="887.32" y2="353.2" gradientUnits="userSpaceOnUse"><stop offset="0" stop-color="#62edff"/><stop offset="1" stop-color="#ffd6f3"/></linearGradient><linearGradient id="Dégradé_sans_nom_17-2" x1="1.61" y1="824.58" x2="350.31" y2="824.58" xlink:href="#Dégradé_sans_nom_17"/><linearGradient id="Dégradé_sans_nom_17-3" x1="114.49" y1="535.18" x2="497.9" y2="535.18" xlink:href="#Dégradé_sans_nom_17"/><linearGradient id="Dégradé_sans_nom_17-4" x1="-286.41" y1="466.04" x2="154.7" y2="466.04" xlink:href="#Dégradé_sans_nom_17"/><linearGradient id="Dégradé_sans_nom_17-5" x1="191.21" y1="231.97" x2="550.41" y2="231.97" xlink:href="#Dégradé_sans_nom_17"/><linearGradient id="Dégradé_sans_nom_17-6" x1="459.9" y1="561.81" x2="730.98" y2="561.81" xlink:href="#Dégradé_sans_nom_17"/><linearGradient id="Dégradé_sans_nom_17-7" x1="-86.34" y1="272.14" x2="216.51" y2="272.14" xlink:href="#Dégradé_sans_nom_17"/><linearGradient id="Dégradé_sans_nom_17-8" x1="-203.82" y1="828.62" x2="80.61" y2="828.62" xlink:href="#Dégradé_sans_nom_17"/><linearGradient id="Dégradé_sans_nom_17-9" x1="407.73" y1="263.17" x2="801.85" y2="263.17" xlink:href="#Dégradé_sans_nom_17"/><linearGradient id="Dégradé_sans_nom_17-10" x1="-71.33" y1="-89.83" x2="313.11" y2="-89.83" xlink:href="#Dégradé_sans_nom_17"/><linearGradient id="Dégradé_sans_nom_17-11" x1="-96.37" y1="93.07" x2="316.74" y2="93.07" xlink:href="#Dégradé_sans_nom_17"/><linearGradient id="Dégradé_sans_nom_17-12" x1="235.11" y1="894.11" x2="737.24" y2="894.11" xlink:href="#Dégradé_sans_nom_17"/></defs><g class="cls-2"><path id="FR-A" class="cls-3" d="M686.87,435.45l12-5.23-3.32-7.74,4.7-3.58-2.49-1.81,4.6-15.2,8.13-4.13,11-16.71L719,374.26l20-31.39-2.76-5.6-9.06,1.23-5.88-3.65,4.63-4.8-3.35-3.94,4.63-14.54L723.27,306l6.36,1.1L719.75,302l14.38-.61,7.64-4.75,12.37-20.62-5.6-.46-3.31-5.69,10.37-14.44-9.44-7.8,1.55-2.75-15.31-4.44-3.87,8.32-6.92,3.37,1.56-5.17-5.33-.86-.13-5.41,6.32-3.55-6.39.67-.28-3-13.48-3.64-1.56-7.68,5,0,1.69-5.42,6,1,5-21.08,4.42-2.33,4,13.8,24.13,6.18-.49,3.52,5.05,2.36,18.12-4.84,12.17,7,6-4.74,8.36-18.64h0l13.69-.58.42,2.51,8.44-4.31,10.37,6.24,9.68-4.71,22.85,13.12,20,4.62-12,11.87-8.53,19.64-16.88,8.69-1.14,6.76-17.91,15.51-5.6,10.93.87,13.27-5.4,4.68-5.15,18.3,1.77,12.82-7.4,4.83-3.84,15.24-12.86,19.21-1,16.4,7.57,11.78-9.43,17.56-3.88,18.84,2.63,8.57-5.22,6.85,11.44,17.47-1.17,5.39-12.1,6.79,4.53,2.17-4.74,1.38,1.94,4.19-3.25,2.94-8.2-2.42-1.52,2.78,5,1.75-9.92,7.28-8.3-1.72-12.24,3.74-1.59-3.37-8.92-.85,4.57-9.4-10-1.68h0l1.52-4.07-8.19-12.79-11.58-1.74,5.8-13.06-1.34-9.61-13.87-9.06-10.61-2.17Z"/><path id="FR-C" class="cls-4" d="M33,696.35l2.56-9.27,3.56,0,5.39-8.47,18.12-2.94,7.12,2.48L81,671.81l-1.56-7.58-5.35-2.63L78.29,656l-3.7-3.64,5-2.3,3.28,2.36-.52-5.85,11.1-5.23,2-4.92,6.5,5.23,5.39-3.31,6.85,1.69,10.68-12.42,15.87-.37h0l3.84,8.08L165,649.08l9.95-7.49,11.17,6.09,4.63-5.3,5.95-.24,5.18,11.53,14.94-6.91-1.9-6.24,7.09-.28-1.18-6.91,5.22,1.28,1.94,8.84,14.1,19.37.8,11.69,9.12,3.67,4.81-2.33,4.32,8,11.62-.89,7.12,5.72-3.39,11.63,1.25,12.78,2.83.25-8.33,1.07-6.81,8.38h0l-.94.22h0l-1.24.15h0l-16.66,6.36,5.84,13.95-2.25,9.33,4.08,4.26-2.31,6.42,3.69,9.88L249.39,778l-12.38.67-1.14,7.19,8.85,8-5.6,2.88,1,10.28-4.81,4.07,13.17,12-.52,6.09,6.71,10.83,15.8,9.67,7.33,14.86-3.08,10.8-10.65,7.38,2.18,11,6.26-7.56,5.39.74,4.67,7.92.35-3.85,7.26,2.41,1.45-4,10.41-1.2-1.28-3.42,4.84-1.59,7.81.64,5.6,5.6,9-1.84,4.71,5.75-5.16,3.34,5.64,2.93-3.11,4.84,5.22,3.33,7.19-3.33,7.85,9.33L344.12,925l1.42,7.49-3.11,1.62-1.84-4.74-7-1.35,3.6,5.36h0V935h0l-3.95-.24-3.52,5.35,4.73,7.16-12,3.09,2.49,8.29-12.76,1.77-9.81,16.13-17.5.12-.9,6.91-4,2.45-2.53-2.32.83,3.82-5.6-2.75-3.7,10.4L260,999.47h0l-3.7-.64,1-4.34-4.8,1.34-6.95-6.45L243,982.71l-11,1.68,1-5-6.22-4.4-5.22,1-.73,8.87-15.87,3-8.78-15.88-.24-7.77-6.33-6-12.27,8.63L171,965.27l-.83,8.56-6.33,4.5L155.18,971,152,977.75h-.83l-.65,5.72-3.81-.7-3.77,6.7-1,15-8.23,12.7h0l-6.46-6.34-3.6-14.5,3.67-2.26-2.39-3.49-4.63.77-4.12-15.18-12.44,3.31.21-10-5.36-5.23-19,17.07L79,990.94l-7.26,6.88,1.48,5.94-8.71,5.53-2.25,6.83-18.87,1.8-3.7-5.32-4.53.36-11.24,3.25-1.8,5.75-4.84-3.7-1.69-10.16-4.18-.18,6-16.37L5.87,976.4,7.56,968l-5.95-9.88h0l5.71-1.32h0l1.21.28h0l4.77-3.52L6.94,943.09l10.68-4,.93-9.85,7.57-5.11-4.52-2.84-1-7.26,23.78-20.74-1.59-13.55,19,7.56,6.84-4-5.84-4.9L67.13,854,59,846.47l3.56-8.1,5.11-.25L68,825.79,48.56,804.9l9.79-7.44h0l.62-.12h0l4.56.55,9.2-9.06,1.1-7.83,6.78-2.78-1.42-11.47-7.4-9.33L74,744.78,62,722,54.75,719l-1.45,2.39-4.84-8.88-3.29,3.89-9-6,4.53-5.32L34,703.39Z"/><path id="FR-D" class="cls-5" d="M414.89,426.94h0l-5.36-10.31-4.84.64-1.28,4L399.26,419l4.84-6-2.83-3.82-8.75-.34,3.53-5-2.32-3.27-13.34-3.39-17.43-1-6.12,4.28,2.66,7.28L325,409.08,321.92,416,315,415l-2.63-7.92-4.53.88,1.07,4.9-5-3.43h0l-1.8.86h0l-6.4,5.51L288.49,412l-2.21,3.89-5.77-3.28-15.73,2.51,2.66-9.54-2.7-4.13-2.07,4.31-4.08-.79-1.8-3.95,4.7-2.11-7.12-5.51-4.46-14-7.4-2.78,1.25-6.34-4.88-1.59,1.21,3.43-8,3.06-5.28-9.49-7.4,1,6.08-7.8-3-1.31,2.63-6.89-6-2.9,1.41-3.15-12-12.58-5.36-1.86-5.5,3.36-2-6h0l-5.54-1.86L188.61,331l-4.15.49-28-.55-5.32,4.53-8.06-2-4.6,10.34,4.6,10.52-6.15,8.14L127.32,367l0,3.85h0l13.28,5.66-1.94,3.28,2.84-.19,2,8.29,10.75,8.23-3.63,2,4.12,8.84-4.77,4.93h0l-.87.64h0l-11.41,7-1.93,7.34,5.29,3.3L140,442,115,447.56l-.55,7.62,4.39-.64,6.85,7.25,3.9,6.91-2.42,8.69,5.74,5.54-16.63,4.19h0v-.67h0l-1.79,2.35,11.85,18.73-9,18.63,16.35,14.32,7,26.18-1.84,10.59,8.61,7.53.24,12.63-4.32,8.93,2.84,10.34-5.43,10.53h0l3.84,8.08L165,649.08l9.95-7.49,11.17,6.09,4.63-5.3,5.95-.24,5.18,11.53,14.94-6.91-1.9-6.24,7.09-.28-1.18-6.91,5.22,1.28,1.94,8.84,14.1,19.37.8,11.69,9.12,3.67,4.81-2.33,4.32,8,11.62-.89,7.12,5.72-3.39,11.63,1.25,12.78,2.83.25-8.33,1.07-6.81,8.38h0L264.15,734,276,736.15l2.38,6.12,16.29-5.41,10.82,4.55,4.22-3.76,2.59,3.06,4.11-1.8-.65,5.32,3.66.4,14-5.42,4.73-20.1,7.61-.24,6.5,5.41,9.26-4.83,7.16,5.2,2.73-6.49,6.12-.94,4.39,5-4.46,3.61,8.13,4.68-2.39,7.07,5.57,4.1,3.11-.73L415,678.21l1.38,3.27,4.81-2.57,10.44,5.63,15.76-3.64.17-2.78,5.47,2.47,4.25,8.75,11.27,2.15h0l1.35-3.09,13.38-2.54.55-4.68L474.94,678l-.17-7.83,6.6-3.58-1.21-5.29,6.53-5-6.63-8.72-.38-8-4.6-.25,4.39-7.49-9.16-8.32,19.88-4.65-9.06-5.17-.49-4.44-10,.92-5.05-9.67-4.29,2-1.38-9.18,9.16-6.45-6.15-2.57,1.21-4.17L478.64,574l7.78-11.6h0l-.07-1h0l7-25.85,4.5-2.72-6.68-2.48h-.48l3.77-4.59L492.85,516h0l-.55-.3h0l-5.95.36h-.9l.93-10.83-10.3-2.63,5.91-2.39-2.94-.73,1.66-3.33,7.09.24,7-10.83-8-14-6.67,6.64-3.21-2h0l-2.46,2.63-6.95-3.46-7.88,6.15,1.11-8.53-12.31-5.63.72-5.3-8.74,6.37-9.16-4.1,1-5.08-4.56.55-.1-3.43L418.93,461l-1.38-14.31-6.22-1,11-7.71-5.53-11.08Z"/><path id="FR-F" class="cls-6" d="M-78.73,222.21l8.88,9.64-2.49,3.88,7.54,5.94-2.42,15.08,6.5,2.75L-67.88,268l5,2.69-1.45,4.56,9.16,9.76,7-.06-.87,7.15,11.2,4.5-1.62,7.71,3.7,8.9,9.78,5,8.68-3.18-.35,9.73,7.13.86,1.52,7.25-4.36,10.09,2.11,4.16,27.42-2-1.7-3.33,4.25.89,3.12-6.24L28,338.74,28,345.1l7.67-2.63h0l.76-1.25h0l3.42-2.69,4.5,4.8,6.5-1.5,2.8,10.65L67,358.9,67.09,370l-4.94.46-5.67,7.74L73.07,375l21,3.34,7-4.16-2.56-4.07,3.81,2.54,5.18-2.91,2.94,7.37,6.71-5,10.16-1.32h0l13.28,5.66-1.94,3.28,2.84-.19,2,8.29,10.75,8.23-3.63,2,4.12,8.84-4.77,4.93h0l-.87.64h0l-11.41,7-1.93,7.34,5.29,3.3L140,442,115,447.56l-.55,7.62,4.39-.64,6.85,7.25,3.9,6.91-2.42,8.69,5.74,5.54-16.63,4.19h0v-.67h0l-1.8,2.35,11.86,18.73-9,18.63,16.35,14.32,7,26.18-1.84,10.59,8.61,7.53.24,12.63-4.32,8.93,2.84,10.34-5.43,10.53h0l-15.87.37L114.25,640l-6.85-1.69L102,641.62l-6.5-5.23-2,4.92-11.1,5.23.52,5.85L79.61,650l-5,2.3,3.7,3.64-4.21,5.63,5.35,2.63L81,671.81l-11.2,6.31-7.12-2.48-18.12,2.94-5.39,8.47-3.56,0L33,696.35h0l-12-1.59-15.53,3.4-15.73-6.09-20,3.18-8-5.66-5.09,1.16,1.8,4.56-4.46,6.46-6.22-5.18-8.19,5.57L-63.24,696l-9.27,5.3-2.73-6.27-15.87,14.8L-99.93,700l-5.84.89-1.38,4.31-12.21,1-1.34-4.46-4.46.94h0l2.62-3.09h0l2.22-5.87-8.78-2.72-.94-10.77-7.36-5.42-10.51.1-.76-5.66-14.9-6.31-2.6-5.2,5-11.93-2.11-6.06-14-11.5-2.7-11.2-13.17-9.91-1.83-13.09-10.61-6.28-7.16.28,4.39,9.09-13.31-.31-9.61,5.45-10.51-3.71-6,3.49L-252.35,591l3.07-1.47-1.38-9.82-5,1.59L-259,575.9l-9.57,2.33,3.11-6.06-2.63-4.41-2.84,2.64-3.9-1.17.76-3.3-8.61,1.1-3.77-8.35h0l3.29-21.91L-268,518.08l-4.22-3.3,9.85-18.88.66-5.08-4.6-2.23,5.71-10.77h0l-.17-1.59h0l21.74,6.55,2.77-1.56-5.53-7.71,2.69-4.5,9.47,4.59,2.11-4.84,18.95-5.07,3.28-4-3.32.89-1.45-5.54,5.88-6.4,10.75-2.84-1.31-3.06,10.92-9.21L-185,420.64l4.18-2.11,3.08,4.43.59-8.26,4.8-1.49-4.36-8.69,3.39-8.26-6.46-1.41-.52-6.33,7.09-.46.31-4.19-4.57-.89,4-.83,1.42-5.6,9.3-1L-179.75,365h0l4.66-3.67-6-9,2.6-5.35-7.3-2,2.11-4.34L-163,331l8.88-12.91-5.74-6.91,4.39-9-21.16-16.92-.48-11.1h0l6.91-3.4,1.84-5.32,16.14-1.9h3l7.71-6.33,7.47,2.26.9-8.23,14.49,6,15.76-.61,5.74-3.83-1.49-10.25,14.11-7.22-1.76-9.94Z"/><path id="FR-G" class="cls-7" d="M399.75-14.8l8.71,3.46L404.34-8,405-1.71,402-4.4,397.5,2.82l3,5.32-7.4,13.65,14.18,11.66-5.92,8.41,4,9.24-3.32,5.23L422.7,55l14.21,7.32,10.34,13.61,15-.49,8.78,8.2-2.53,8.35,4.88-3.85,6.88,2.81h0l-19.15,14.59-3.94-5.38-10.24,1.25L444,96l-4.43-.31-3.21,9.73h0l-.24,1.16h0l-4.22,7,7.47,8.32.58,7.5-5.49,3.27,3.45,4.74-6.77,2.11L427,150.62l4.49,3.12-.83,3.82-14.28,7.19,5.88,5.45-7.57,4.68L424,197.37l-5.61,9.11,6.23-2.72,4,2.33L428.3,212l-5.7,1.81,6.46,1.92-3.32,6.67-11.2,4.1h0l-.62.55h0l-3.08,9,3.6,5-6.71,8.45,17.15,10.89-1.56,24.26,8.37-3.24,2,7,6.88.09,13.31,12.85,16.66,3.58,20.15,16.49-10.85,6.09,6.95,2.26-2.18,9.15,7.54-4.74,6.5,1.59,9.23,14.07,3.25-3.39,6.05,4.56-1.77,5,6.61,1.47,6.08,6.89-7.05,3.54-1.42,13.5-6.12,4.34,9.86,1.65L527,393.5l7.85,2,1.55,15.3,8.54-4.38,5.43,9.4h0l-.07,4.86-4.84-1.19-4.11,6.67.86,3.54-9.64-1.37-2.73,7.43-7.27-.15-2.14,7.86,4.7,6.09-2.59,11.69-13.48,2.35-4.22-6.64-6,6.49-16.52-.28-5.46,13.13h0l-2.46,2.63-6.95-3.46-7.88,6.15,1.11-8.53-12.31-5.63.72-5.3-8.74,6.37-9.16-4.1,1-5.08-4.56.55-.1-3.43L418.93,461l-1.38-14.31-6.22-1,11-7.71-5.53-11.08h-1.9l-5.36-10.31-4.84.64-1.28,4L399.26,419l4.84-6-2.83-3.82-8.75-.34,3.53-5-2.32-3.27-13.34-3.39-17.43-1-6.12,4.28,2.66,7.28L325,409.08,321.92,416,315,415l-2.63-7.92-4.53.88,1.07,4.9-5-3.43h0l-1.8.86h0l-6.4,5.51L288.49,412l-2.21,3.89-5.77-3.28-15.73,2.51,2.66-9.54-2.7-4.13-2.07,4.31-4.08-.79-1.8-3.95,4.7-2.11-7.12-5.51-4.46-14-7.4-2.78,1.25-6.34-4.88-1.59,1.21,3.43-8,3.06-5.28-9.49-7.4,1,6.08-7.8-3-1.31,2.63-6.89-6-2.9,1.42-3.15-12-12.58-5.36-1.86-5.5,3.36-2-6h0l-4.53-17.16,7.81-2.05-4.49-7.16,10.68-2.63-2.32-5.51,7.05-3.7-1.76-2.84,8.33-2.27-5.63-3.12,2-2.57L201,280.73l2.45-19.7-10.58-3.88,7-6.12-5.74-3.52,12-1-.28-7.34h0L212,227.62l6.08-.49.49-4.77,4.22-.67-1.87-3.34L233.52,208l-3.87-5.6-9.4,1.2.24-4.5,7.36-3.27-5.36-8.2,3.08-6,11.89,1.59,6.23-3.21.1-4.31-4.91.82-2.28-5.81-2.39,1.9-4.08-3.06,3.5-4.26L228.89,150l19.05-8.32,10.54,2.23.63-6.88,9.78-5.17,5.15,5.72,11.06,3.33.21-15.2,4.39-1.41-3.9-12,5.46-3.46-4.25-4,4-5.14-7.81-9.94,2.52-3.09,10.61.92L298,78.82l8.44-4.1,9.3-11.38-6.3-4.5,6.78-17.35.34-7-5.46-1.93,2.08-8.87h0l11.16-2.05,19.57,6.24,21.75-9.7,13.58-1.74L377.41,2.52l3.18-5.69,17.53-14.48Z"/><path id="FR-I" class="cls-8" d="M550.41,415.78l7-9.73,3.91,1.74-4.64,5.69,3.12.43,7.64-3.89,5.32-8.9,13.69-3h0l.35.22h0l1.59,9.79,7.95,5.53h0v1h0l26.55-5.41,6.6,3.58,6.16,10.61L653.54,412l6.15,8,27.18,15.48h0l4.32,7.43,10.61,2.17,13.87,9.06,1.34,9.61-5.8,13.06,11.58,1.74L731,491.31l-1.52,4.07h0L708,497.06l2.7,7.59-8.85,3.89-8.78,15,19.7-3.77,4.67,2,1,5.33-6.5,1.71-2,5.6-7.68,1.4,1.77,8.33-16.36,13.21,2.53,1.32-2.87,2.94L667.78,574l2.35,5.78-14.07,10.77-17.87,3.46-9.33,8.56,4.63,7.25-4.77,14.2,3.07,6.88-49,36.59,6.63,5.78-12.06,15.18-1.14,8.56h0l-28,27.75-20.7.71-1.66-8.88-9.65-2.72-.52-3.76-14.93,14-9.37.76.24-9.39-5.5,0-1.83-6-2.94,6.85-6.08-10.95,2.24-2.21-11.16-5.66,2.21-6.08h0l1.35-3.09,13.38-2.54.55-4.68L474.94,678l-.17-7.83,6.6-3.58-1.21-5.29,6.53-5-6.63-8.72-.38-8-4.6-.25,4.39-7.49-9.16-8.32,19.88-4.65-9.06-5.17-.49-4.44-10,.92-5.05-9.67-4.29,2-1.38-9.18,9.16-6.45-6.15-2.57,1.21-4.17L478.64,574l7.78-11.6h0l-.07-1h0l7-25.85,4.5-2.72-6.68-2.48h-.48l3.77-4.59L492.85,516h0l-.55-.3h0l-5.95.36h-.9l.93-10.83-10.3-2.63,5.91-2.39-2.94-.73,1.66-3.33,7.09.24,7-10.83-8-14-6.67,6.64-3.21-2h0l5.46-13.13,16.52.28,6-6.49,4.22,6.64,13.48-2.35,2.59-11.69-4.7-6.09,2.15-7.86,7.26.15,2.73-7.43,9.64,1.37-.86-3.54,4.11-6.67,4.84,1.19Z"/><path id="FR-J" class="cls-9" d="M-49.73,166l5.19,1.47-1.8,5.69h0l1.31,0h0l2.6,3.76,7-1.9L-24,179.32l17-2.54,11.34-6.67,12.86,9,6.88-3.06,2.08,5.45,7.53-1.65,4.05-5.17,6.29,7.43,2.49-2.26,9.34,2.54L55.1,185l3.7-1.44L65.09,188l-1.94,2.21,6,1.25,2.9-4.77,4.46,8.63,7.09-5.54,14.52,9.18,10.65-7,6.25,5.11,16.81-4.1,2.69,3.95,3.08-3.95,8.26,1.23.49-6.15,9.81,2.11L163.65,201l-3.35,7.31,12,7.68,1.9,6.48,5.78-1.89,3.45,7.83L189,224.5l2.22,10.86,9,2.24,2.21,4.37,3.46-2.81h0l.27,7.34-12,1,5.74,3.52-7,6.12L203.41,261,201,280.73l11.92-2.14-2,2.57,5.63,3.12-8.33,2.27,1.76,2.84-7.05,3.7,2.32,5.51-10.68,2.63,4.49,7.16-7.81,2.05,4.53,17.16h0l-5.54-1.86L188.61,331l-4.14.49-28-.55-5.32,4.53-8.06-2-4.6,10.34,4.6,10.52-6.15,8.14L127.32,367l0,3.85h0l-10.16,1.32-6.71,5-2.94-7.37-5.18,2.91-3.81-2.54,2.56,4.07-7,4.16-21-3.34-16.59,3.25,5.67-7.74,4.94-.46L67,358.9l-13.41-6.42-2.8-10.65-6.5,1.5-4.49-4.8-3.43,2.69h0l-.76,1.25h0L28,345.1l.07-6.36-6.12-2.32-3.11,6.24-4.26-.89,1.7,3.33-27.42,2-2.11-4.16,4.36-10.09-1.52-7.25-7.12-.86.34-9.73-8.68,3.18-9.78-5-3.7-8.9,1.63-7.71L-49,292.05l.87-7.15-7,.06-9.16-9.76,1.45-4.56-5-2.69,7.16-8.45-6.5-2.75,2.42-15.08-7.54-5.94,2.49-3.88-8.88-9.64h0L-80,217l3.81-2.2-7,.52L-82,208l-4.36-7.61,5.78.55,3-6.73,1.55,3.12h.76l13.83-3.12Z"/><path id="FR-L" class="cls-10" d="M-125.16,702.74l4.46-.94,1.34,4.46,12.21-1,1.38-4.31,5.84-.89,8.82,9.85,15.87-14.8,2.73,6.27,9.27-5.3,2.73,6.12,8.19-5.57,6.22,5.18,4.46-6.46-1.8-4.56,5.09-1.16,8.05,5.66,20.05-3.18,15.73,6.09L21,694.76l12,1.59h0l1,7,6.67,1.68-4.53,5.32,9,6,3.29-3.89,4.84,8.88L54.75,719,62,722l12,22.82-2.25,12.64,7.4,9.33,1.42,11.47L73.83,781l-1.1,7.83-9.2,9.06L59,797.34h0l-.62.12h0l-9.79,7.44L68,825.79l-.28,12.33-5.11.25L59,846.47,67.13,854l-4.36,24.41,5.84,4.9-6.84,4-19-7.56,1.59,13.55L20.63,914.05l1,7.26,4.52,2.84-7.57,5.11-.93,9.85-10.68,4,6.36,10.49L8.53,957.1h0l-1.21-.28h0l-5.71,1.32h0l-10.82.31-5.43,3.91-5.7-4.53-15.21,9.82-7.4-2.6-14.94-16.33-14.45-.22-1.1-3.12-12.93,4.84h0l-10.06-15.33,4.87-3.55-14.87-1.47-7.64-5.84h0l.73-.09h0l4.18-4-8.81-2.82,7.19-8.93-7.26-3.3,1.35-8.91,4.08-.18,8.5-10.07-9.75-4.19,5.29-5.6-24.79-7.64,6.54-9-7.26-4-4.36,3-9.68-14.41-17.36,1.75-4.07-3.92-8.13,8.66-8.71-7.74,3.35-9-7.74-5.11-9.72,1.32-3.32-4h0l12.14-9.45-.45-7.62,10.16,2.3,6.3-16.59-2.15-8.87,10.06,1.62,9.34-8.65-3.18-7.38-5.81-4.07-3.73,2.54-6.3-5.84,2.94-8.35-3.52-4.93,5.32-2.57-7.74-13.7,8.33-3.43,7.4-10.49,14.79,1.53,6.16-15.12,11.68,2.76,3.94-7.71Z"/><path id="FR-M" class="cls-11" d="M483.48,94l5.29,6.46,2.49,13.61,12-6.27,7.88,4.43,4.43-8.35,14.86,2.21,3.91-4.75,9.2,4,4.52,8.57,14,1,2.21,8.29,8.61.67,4.49-3.79,3.87,2.63,3.88-7.71,16-4.07,18,10.52,9.2-3.21L646.8,129l-2.42,3.7,8.78,7.13-4.84,3.61,14.76,13-1.31,4.1,4.11,1.78.94,6.54,4-.45-1.73,6,3.87,4.47L686.9,181l3.8-5.35-3.42-6.18,14.38-2,13.66,6.24,2.49,14.87,6.84-8.05,8.3,6.85,12.76-1.83,6.88,2.91,4.63-5.54,5.22.06.35-5.45,11.44-2.35L773,178.92l8.37-.83,4.91,13.8,14.83,4.68.79,3.73h0l-8.36,18.64-6,4.74-12.17-7-18.12,4.84-5.05-2.36.49-3.52-24.13-6.18-4-13.8L720.06,198l-5,21.08-6-1-1.69,5.42-5,0,1.56,7.68,13.48,3.64.28,3,6.39-.67-6.32,3.55.13,5.41,5.33.86-1.56,5.17,6.92-3.37,3.87-8.32,15.31,4.44-1.55,2.75,9.44,7.8L745.23,269.9l3.31,5.69,5.61.46-12.38,20.62-7.64,4.75-14.38.61,9.88,5.08-6.36-1.1,3.94,5.56-4.63,14.54,3.35,3.94-4.63,4.81,5.88,3.64,9.06-1.23,2.76,5.6-20,31.39,2.49,6.79-11,16.71-8.13,4.13-4.6,15.2,2.49,1.81-4.7,3.58,3.32,7.74-12,5.23h0L659.69,420l-6.15-8L635.6,423.42l-6.16-10.61-6.6-3.58-26.55,5.41h0v-1h0l-7.95-5.53-1.59-9.79h0l-.35-.22h0l-13.69,3-5.32,8.9-7.64,3.89-3.12-.43,4.64-5.69-3.91-1.74-7,9.73h0l-5.43-9.4-8.54,4.38-1.55-15.3-7.85-2-3.66-6.21-9.86-1.65,6.12-4.34,1.42-13.5,7.05-3.54L522,357.37l-6.61-1.47,1.77-5-6.05-4.56-3.25,3.39-9.23-14.07-6.5-1.59-7.54,4.74,2.18-9.15-6.95-2.26,10.86-6.09-20.16-16.49-16.66-3.58-13.31-12.85-6.88-.09-2-7-8.37,3.24,1.56-24.26-17.15-10.89,6.71-8.45-3.6-5,3.08-9h0l.62-.55h0l11.2-4.1,3.32-6.67-6.46-1.92,5.7-1.81.31-5.87-4-2.33-6.22,2.72,5.6-9.11-9.34-22.49,7.57-4.68-5.87-5.45,14.27-7.19.83-3.82L427,150.62l4.15-11.17,6.77-2.11-3.45-4.74,5.49-3.27-.58-7.5-7.47-8.32,4.22-7h0l.24-1.16h0l3.21-9.73L444,96l2.9,5.41,10.24-1.25,3.94,5.38L480.23,90.9h0Z"/><path id="FR-O" class="cls-12" d="M73.42-194.54l1.83,10.59,8.33,11.1-6,5.57L79-153.21l5.12,7.47,12.58.43,10.23,17.25,7.51.31L123-121.6l6.6-12,28.49-7.61,5.74,13,10,4.71-3.08,8.72,7.5,26.65,12.14,6.6,10.23-3,3.94-5.33L210.81-88l-2.63,7.22,15.49-1.74,7.47,7.83-.24,17.22,7.15,12.79,5.67-9.15L258.45-54l7.43,5,17.6-6.37,7.43,9.55,5.85,1.47,3,9,4.25-.06-.69-6.12,6.64,3.4,1.83,3.82-10.1,7.89.63,9.86-3.81,5.84,10.31.12L313.11,2,303.05,6.16l-2.63,13.49h0l-8,2.08L277.08,17l.25-10L263.74,13.8l-2.21-5.56L238.92,1.87,231.62,5,231,9.77l-6.54.88L214.4,4.81,206.8,12,188.54,8.36l-4.9,4.1-7.4.3-2.73-3.57-12.38,4.13L149.89,5.18,138.41,3.92l-6.22,3.46L124.9,5.91l-8.09,5.63L115.91.31,100,7l4.77-13.31L97.48-9.23l-3.21-.22L93.75-.39,75.39-6.72l.28-5.3L72-12.54,69.27-6.85,66.61-12.2l-4.81.52L52.85-1.61,46.73-6l1.69-8.69,15.35-8.07-6.25-7.1-6.47-.83-6.84,5.57-3.77-6.43-.76,5.14-8.2-3.12L14.16-21.9l-2.87-3.82L4.93-23.95,3.65-34.14-15-41.2l-2.08-2.3,4.81-4.37-2.59-1.9-5.57,3.89-14.86-9.76L-55.4-49.52l-3.35-4.41h0l-12.58-9.61,4.63-27.41,7,5-8.44-11.17-2-31.3.59-2.93,1.31,4.8,2.6-3.15L-62.83-144l-4.67-13.52,11.52-3,12-11.72,18.08-5.2-4.21-.7,36.43-8.32,1.84,2.08,7.6-6.92-1.59,3.61,4.43,3.74L21-191.3l1.18,2.36,21.3-6.46,4,2.54,23.51-8.53,2.49,6.85Z"/><path id="FR-S" class="cls-13" d="M-60.65-55.37l2,1.44h0l3.35,4.41,20-6.12,14.87,9.76,5.57-3.89,2.59,1.9L-17-43.5l2.08,2.3,18.7,7.06L5.07-23.95l6.36-1.77L14.3-21.9l17.32-7.62,8.19,3.12.77-5.14,3.76,6.43,6.85-5.57,6.46.83,6.26,7.1L48.56-14.68,46.87-6,53-1.61l8.95-10.07,4.81-.52,2.66,5.35,2.76-5.69L75.8-12l-.27,5.3L93.89-.39l.51-9.06,3.22.22L105-6.36,100.18,7,116.05.31l.89,11.23L125,5.91l7.3,1.47,6.22-3.46L150,5.18l11.24,8.14,12.37-4.13,2.73,3.57,7.4-.3,4.91-4.1L206.94,12l7.6-7.22,10.06,5.84,6.54-.88L231.76,5l7.29-3.15,22.61,6.37,2.22,5.56L277.46,7l-.24,10,15.32,4.77,8-2.08h0l12.79,4h0l-2.07,8.84,5.46,2-.35,7-6.77,17.35,6.29,4.5-9.3,11.35-8.47,4.1-1.59,8.81-10.65-.92-2.52,3.09,7.81,9.94-4.05,5.14,4.22,4-5.43,3.46,3.91,12-4.39,1.41-.21,15.2-11.1-3.33L269,131.84,259.24,137l-.62,6.88-10.54-2.23-19,8.32,4.7,15.29-3.45,4.26,4,3.06,2.39-1.93,2.31,5.84,4.91-.82-.1,4.31-6.26,3.21-11.89-1.56-3.08,6,5.36,8.2-7.36,3.27-.24,4.5,9.4-1.2L233.7,208l-12.59,10.43,1.87,3.31-4.22.7-.48,4.78-6.09.48-6.12,11.51h0L202.61,242l-2.24-4.37-9-2.24-2.21-10.86-5.57,3.89-3.46-7.83-5.77,1.89-1.9-6.48-12.07-7.68,3.36-7.31-7.47-10.83L146.47,188l-.48,6.15L137.72,193l-3.07,4-2.7-4-16.77,4.13L108.92,192,98.24,198.9l-14.48-9.18-7.09,5.54-4.46-8.63L69.3,191.4l-6-1.25,1.94-2.21L59,183.48l-3.74,1.44.87-2.51-9.34-2.54-2.49,2.23L38,174.7l-4,5.17-7.54,1.65-2.07-5.45-6.88,3.06-12.86-9-11.34,6.7-17,2.51-11.41-4.35-7,1.9-2.59-3.76h0l-1.31,0h0l1.8-5.69L-49.52,166h0l.8-6.4,7-1.5,4.46,5.11,2.14-5.53-4.53-3.34-1.62-14.5L-47,134.47l2.63-2.39-3.7-.34,7-11.38h0l1.38-.79h0l2.63-6.61-4.43-1.53-2.11,4.34L-47.55,113l4.46-6.7-7.5-8.66H-50l2.94-8-3.42-4.1,7.78-9.92-6.5,2.76-2.46-2.76L-43,62.17l5.26.19-7.43-10.31-3.18-14.11L-85.61,7.87l-.52-6L-96.37,3h0l10.65-8.71L-75.59-25.2-69-27.13l2.76,5.87L-56-18.84l4.19-2.69-21.44-17,2.35-17.29,10.24.46Z"/><path id="FR-V" class="cls-14" d="M265.4,722.75,264.15,734,276,736.15l2.38,6.12,16.29-5.38,10.82,4.56,4.22-3.77,2.59,3.06,4.08-1.8-.66,5.29,3.67.43,14-5.42,4.74-20.13,7.6-.24,6.5,5.41,9.24-4.8,7.15,5.2,2.73-6.52,6.12-.94,4.43,5-4.46,3.61,8.12,4.68-2.38,7.07,5.6,4.1,3.07-.76,23.13-62.75,1.39,3.24,4.8-2.57,10.41,5.66,15.76-3.67.18-2.78,5.49,2.47,4.22,8.75,11.27,2.15h0l-2.21,6.08,11.16,5.66-2.28,2.21,6.09,11,2.94-6.85,1.83,6,5.5,0-.21,9.39,9.37-.76,14.93-14,.52,3.76,9.65,2.72,1.66,8.88,20.71-.71,28-27.72h0l15.11,9-9.71,15,3.21,6.24L564,733.64l-2.21,3.68,4.32,2.75-5.32,9.7,13.55-4.29,11,2.21,24-15.61,2-5.66-7,.86-1.83-9.54-3.94-1.53,4.59-8.85,38.28-17.8,23.4.43,19.81,5-7.09,13.16L691,721.83l-8.72,14-1,12.08,14.56,2.39-3.29,13.92,8.47-3,14.73,20.13.93,5.66-6.84,9.36-12,5.69-13.31.71L682.68,823l15.53,13.4,12.13,2.14L707.06,848l3.32,15,7.81,1.87-.76,4,7.26.46,2.11,6.57,10.44,4.93L726.18,895l3.56,12.88-9.37,8-9.82-1.5-8.06,9.09-7.53.24,0,5.69L688.6,931,677,925.22l-19.61,8.9h0l-7.57-2.66-5.22,4.32-4.49-1.72L635.74,937l.89,6.79-5.11.55-12.38-3.27-4.53-9.52L609,934.28,602,932l-5.91,18.73,17.14,3.12-.17,8,5.08,2.6-.34,15.12-9.23-3.4-6.33,3.92L586,978l-11.14,8.62-5.56-3.49-9.79,5.51,4.43,4.16-4.18,3.77-9.82,2.5-8-2.32-4,9.45,4.53,2.85-5.88,6.58-5.77-1.53-2.9,4.1-12.35-2.27.69,7.1-7.29,12,9.61,7.38-5.08.39-2.08,5.08-22.4-4.92.94,9.11,4.8,1.87-3,3.15-8.29-1L485,1065l9,6.58,4.05-2.32,3.8,3.64,11.69-.58-3,4.83,4.11,1,1.52,6h5.67l0,12.52-6.19,4.34,5.67,1.41-.59,3-6.78-.74,1.21-3.06-5.42-4.16L501,1107.77l-12.41,2.36-2.8-5.72-7.54-.61.28-8-4.25-2.48-8.2,1.29-7-4.28-2.8,3.55-11.14-3.68,2.11-14.68h0l-2.28,1h0l-6.08,5.66-7-5.33L397.36,1091,393,1075.83l-19.81-3-.17,10.52h0l-20.67-12.94-7.47,1-2.18,9.76-6.08-1.29-.52-9.91-9.44,1.44-9.92,13-18.29-12.67-11.76,3.12-1.1-12.78,4.08-2.48-11.58-11.84-5.12-17.5-7.12-4.19-6-26.65h0l8.92-4.34,3.7-10.41,5.6,2.73-.83-3.8,2.52,2.33,4.05-2.45.93-6.91,17.49-.16L312,960.25l12.75-1.77-2.49-8.29,12-3.09-4.74-7.16,3.53-5.36,3.94.25h0v-1.62h0l-3.6-5.36,7,1.35,1.83,4.74,3.11-1.62-1.41-7.5,6.18-11.16-7.84-9.36-6.92,3.33-5.53-3.33,3.11-4.84-5.63-2.93,5.15-3.34-4.7-5.75-9,1.83-5.6-5.59-7.85-.65-4.8,1.56,1.28,3.46-10.41,1.19-1.45,4-7.23-2.38-.34,3.82-4.7-7.89-5.4-.77-6.22,7.56-2.18-11,10.65-7.35,3.08-10.8-7.33-14.9-15.8-9.66-6.74-10.8.51-6.09-13.17-12,4.81-4.07-1-10.28,5.63-2.91-8.85-8,1.11-7.16,12.41-.68,6.22-4.71-3.7-9.88,2.32-6.42L250,752.64l2.25-9.33-5.85-13.95L263.05,723h0l1.24-.16h0l1.11-.09Zm147.41,335.8h0l-1.1.52h0l-1.25,2h0l-5.22,8.35,2.25,8,14,2.08,5.22-12,6.85-2.84h0l-.11-1h0l-10.06-5.42h0l-1.73-1.77h0l-1.48-.16h0l-.59-1.34h0l-4.43,3.15-2.35.52Z"/></g><path d="M615.51,221.41c0,16.2-27.72,69-30.52,66.73-3.22,1.24-30.51-50.53-30.51-66.73s13.66-29.34,30.51-29.34S615.51,205.2,615.51,221.41Z"/><path class="cls-15" d="M582.86,238.2h0a.31.31,0,0,1-.35-.34s0-.15,0-.33a6.93,6.93,0,0,1,.39-1.24c.15-.43.32-.92.5-1.48q1.26-4.16,3.69-11.27c.73-2.19,1.35-4.14,1.84-5.84a15.89,15.89,0,0,0,.59-2.46q0-.09,0-.09a6.86,6.86,0,0,0-1.86,1.45q-1.57,1.46-3.36,3.37a23.2,23.2,0,0,1-3,2.85,1.81,1.81,0,0,1-1,.42.54.54,0,0,1-.47-.27,5.1,5.1,0,0,1-.37-2.42v-.1a5.23,5.23,0,0,0,0-.62c0-.17-.07-.25-.11-.25s-.51.38-1.06,1.14-1.16,1.7-1.84,2.82-1.33,2.26-1.94,3.42a11,11,0,0,1-1.28,2,1.45,1.45,0,0,1-1.05.6c-.1,0-.15-.14-.15-.41a21.27,21.27,0,0,1,.73-3.91c.44-1.8.82-3.26,1.11-4.37s.55-2,.75-2.56a6.09,6.09,0,0,1,.52-1.23,1.07,1.07,0,0,1,.49-.45,1.36,1.36,0,0,1,.42-.08c.15,0,.23.09.23.27a3.17,3.17,0,0,1-.26.91c-.06.17-.12.35-.17.52q-.9,3-1.48,5.59a7.11,7.11,0,0,0-.22,1.18s0,0,0,0h0c.05,0,.13-.07.25-.23a4.25,4.25,0,0,0,.42-.66c.59-1,1.28-2.06,2.08-3.17a14.7,14.7,0,0,1,1.74-2.15,3.78,3.78,0,0,1,.61-.38,2,2,0,0,1,.93-.29.47.47,0,0,1,.25.07q.13.08.21.57c.05.32.1.86.15,1.59a3.73,3.73,0,0,0,.23,1.37h0a3.47,3.47,0,0,0,.77-.63c.45-.43,1-1,1.66-1.68,1.24-1.31,2.46-2.51,3.65-3.58a18.33,18.33,0,0,1,2.72-2.13,1.79,1.79,0,0,1,.73-.22,1.27,1.27,0,0,1,.35.08c.15.06.23.26.23.62a19.29,19.29,0,0,1-.76,2.91q-.76,2.51-1.72,5.3l-1.26,3.68q-.9,2.64-1.85,5.49c-.64,1.89-1.13,3.39-1.48,4.48a7,7,0,0,1-.67,1.55C583.19,238,583,238.2,582.86,238.2Z"/><path class="cls-1" d="M582.86,238.2h0a.31.31,0,0,1-.35-.34s0-.15,0-.33a6.93,6.93,0,0,1,.39-1.24c.15-.43.32-.92.5-1.48q1.26-4.16,3.69-11.27c.73-2.19,1.35-4.14,1.84-5.84a15.89,15.89,0,0,0,.59-2.46q0-.09,0-.09a6.86,6.86,0,0,0-1.86,1.45q-1.57,1.46-3.36,3.37a23.2,23.2,0,0,1-3,2.85,1.81,1.81,0,0,1-1,.42.54.54,0,0,1-.47-.27,5.1,5.1,0,0,1-.37-2.42v-.1a5.23,5.23,0,0,0,0-.62c0-.17-.07-.25-.11-.25s-.51.38-1.06,1.14-1.16,1.7-1.84,2.82-1.33,2.26-1.94,3.42a11,11,0,0,1-1.28,2,1.45,1.45,0,0,1-1.05.6c-.1,0-.15-.14-.15-.41a21.27,21.27,0,0,1,.73-3.91c.44-1.8.82-3.26,1.11-4.37s.55-2,.75-2.56a6.09,6.09,0,0,1,.52-1.23,1.07,1.07,0,0,1,.49-.45,1.36,1.36,0,0,1,.42-.08c.15,0,.23.09.23.27a3.17,3.17,0,0,1-.26.91c-.06.17-.12.35-.17.52q-.9,3-1.48,5.59a7.11,7.11,0,0,0-.22,1.18s0,0,0,0h0c.05,0,.13-.07.25-.23a4.25,4.25,0,0,0,.42-.66c.59-1,1.28-2.06,2.08-3.17a14.7,14.7,0,0,1,1.74-2.15,3.78,3.78,0,0,1,.61-.38,2,2,0,0,1,.93-.29.47.47,0,0,1,.25.07q.13.08.21.57c.05.32.1.86.15,1.59a3.73,3.73,0,0,0,.23,1.37h0a3.47,3.47,0,0,0,.77-.63c.45-.43,1-1,1.66-1.68,1.24-1.31,2.46-2.51,3.65-3.58a18.33,18.33,0,0,1,2.72-2.13,1.79,1.79,0,0,1,.73-.22,1.27,1.27,0,0,1,.35.08c.15.06.23.26.23.62a19.29,19.29,0,0,1-.76,2.91q-.76,2.51-1.72,5.3l-1.26,3.68q-.9,2.64-1.85,5.49c-.64,1.89-1.13,3.39-1.48,4.48a7,7,0,0,1-.67,1.55C583.19,238,583,238.2,582.86,238.2Z"/><path class="cls-16" d="M583.11,238.34c-.29.12-.21.09-.25.12.33-.06.3-.14.31-.14Z"/><polygon class="cls-16" points="584.47 235.4 584.47 235.46 584.58 235.01 584.47 235.4"/><path class="cls-16" d="M585.39,232.62c-.15.24-.32,1-.51,1.5l0,.08,0,.24C585,233.83,585.23,233,585.39,232.62Z"/><path class="cls-16" d="M586,231.18c-.06.08.08-.33-.13.34l0-.06Z"/><path class="cls-16" d="M585.92,231.46c-.1.29.08-.19,0,0Z"/><path class="cls-16" d="M586.36,230.1l-.11.39c0-.07.16-.41.13-.28C586.5,229.81,586.46,229.88,586.36,230.1Z"/><path class="cls-16" d="M586.44,229.72l-.06.2A.51.51,0,0,0,586.44,229.72Z"/><path class="cls-16" d="M586.26,230.35l.12-.43a.33.33,0,0,0-.06.2S586.31,230.17,586.26,230.35Z"/><path class="cls-16" d="M586.17,230.59c-.09.21-.19.49-.08.1C585.85,231.43,585.93,231.33,586.17,230.59Z"/><path class="cls-16" d="M585.37,232.45l-.11.29-.06.26C585.23,232.87,585.4,232.44,585.37,232.45Z"/><path class="cls-16" d="M587.21,227.71s-.08.12-.11.14l-.08.29A2.81,2.81,0,0,1,587.21,227.71Z"/><path class="cls-16" d="M587.1,227.85l.12-.43C587.09,227.8,587.08,227.87,587.1,227.85Z"/><polygon class="cls-16" points="586.4 229.63 586.21 230.35 586.44 229.49 586.4 229.63"/><polygon class="cls-16" points="587.76 226.08 587.71 226.33 587.81 225.89 587.76 226.08"/><path class="cls-16" d="M588.12,225c0,.19.13-.23.08,0,.09-.3.16-.56.22-.79C588.35,224.42,588.25,224.68,588.12,225Z"/><path class="cls-16" d="M588.52,223.79l-.1.39C588.45,224.05,588.49,223.92,588.52,223.79Z"/><path class="cls-16" d="M587.47,226.69a1.27,1.27,0,0,0,.15-.32l-.09.15Z"/><path class="cls-16" d="M587.53,226.53h0l.13-.36Z"/><path class="cls-16" d="M587.46,226.73v0A.08.08,0,0,0,587.46,226.73Z"/><path class="cls-16" d="M586.81,228.52c.06-.25.22-.78,0-.29C586.79,228.42,586.9,228.14,586.81,228.52Z"/><path class="cls-16" d="M587.34,226.93l-.16.45s.06-.09,0,0Z"/><polygon class="cls-16" points="587.41 226.7 587.34 226.93 587.4 226.76 587.41 226.7"/><path class="cls-16" d="M588.22,224.56c0-.2.12-.42.2-.66-.09.27-.19.53-.28.78C588.14,224.72,588.12,224.83,588.22,224.56Z"/><path class="cls-16" d="M587.88,225.51v0S587.87,225.52,587.88,225.51Z"/><polygon class="cls-16" points="589.22 221.52 589.2 221.55 589.2 221.56 589.22 221.52"/><path class="cls-16" d="M588.12,224.72a4.33,4.33,0,0,0-.13.42l.15-.46S588.14,224.65,588.12,224.72Z"/><path class="cls-16" d="M588.73,223.13l-.14.32A1.82,1.82,0,0,0,588.73,223.13Z"/><path class="cls-16" d="M587.92,225.41v0C588,225.38,587.94,225.38,587.92,225.41Z"/><path class="cls-16" d="M587.92,225.41l.07-.27-.1.33Z"/><path class="cls-16" d="M589.22,220.71a4,4,0,0,1-.29,1c-.12.44.08.19.27-.17,0,0,0,0,.1-.48-.07.15-.36,1-.27.6a3.62,3.62,0,0,1,.28-.77c-.12.23.18-.78.08-.67l-.15.53S589.28,220.57,589.22,220.71Z"/><path class="cls-16" d="M588.92,222.41l-.06.18c.08-.2.14-.35.26-.62s.09-.38.08-.41l-.3.91Z"/><path class="cls-16" d="M588.58,223.42c0-.16.15-.6,0-.35a5.79,5.79,0,0,0-.2.72c.29-.87-.06.26.17-.36l-.15.47.17-.45v0h0s0,0,0,0v-.06c.09-.25,0,0,0,0v0h0l.28-.88C588.8,222.79,588.72,223,588.58,223.42Z"/><path class="cls-16" d="M586.9,227.74s0,0,0,0S586.94,227.63,586.9,227.74Z"/><path class="cls-16" d="M587.05,227.39a2.14,2.14,0,0,1-.1.32c-.07.18,0,0,0,0s-.12.45,0,.06l0-.06a7,7,0,0,1,.31-.72A1.92,1.92,0,0,0,587.05,227.39Z"/><path class="cls-16" d="M587.81,225.37l.23-.73-.16.36h0C587.76,225.4,587.81,225.32,587.81,225.37Z"/><polygon class="cls-16" points="589.26 221.44 589.27 221.55 589.36 221.11 589.26 221.44"/><polygon class="cls-16" points="589.57 220.49 589.59 220.53 589.65 220.28 589.57 220.49"/><path class="cls-16" d="M572.26,229.33s0,0,.07,0A.07.07,0,0,1,572.26,229.33Z"/><path class="cls-16" d="M572.4,227.93v-.05C572.39,228,572.39,228,572.4,227.93Z"/><path class="cls-16" d="M579.69,218.08c-.36.08-.71.25-.65.26l.11,0A2.43,2.43,0,0,1,579.69,218.08Z"/><path class="cls-16" d="M576.11,217.52l-.05.09,0,.22Z"/><path class="cls-16" d="M576,217.26a2.51,2.51,0,0,0,.11-.34A3.46,3.46,0,0,1,576,217.26Z"/><path class="cls-16" d="M576.88,222.41l.11-.24C576.76,222.52,576.88,222.38,576.88,222.41Z"/><path class="cls-16" d="M588.1,214.81c-.23.17-.4.31-.56.44A3.93,3.93,0,0,0,588.1,214.81Z"/><path class="cls-16" d="M571.85,228.85c0,.14,0,.21,0,.2S571.86,228.82,571.85,228.85Z"/><path class="cls-16" d="M586.93,215.8l.12-.1c.15-.14.3-.29.49-.45A3.89,3.89,0,0,0,586.93,215.8Z"/><path class="cls-16" d="M586.24,226.9l0,.07S586.23,227,586.24,226.9Z"/><path class="cls-16" d="M582.92,235.74l.12-.37Z"/><path class="cls-16" d="M590.81,216.66c0,.21,0,0,0,0Z"/><path class="cls-16" d="M590.36,217.6s0-.08,0-.08A.32.32,0,0,1,590.36,217.6Z"/><path class="cls-16" d="M585.59,217.45h0Z"/><path class="cls-16" d="M590.71,217l.08-.25Z"/><path class="cls-16" d="M590.74,216.93l-.06.17S590.69,217.11,590.74,216.93Z"/><path class="cls-16" d="M590.89,216.38l-.1.33s0-.06,0-.05Z"/><path class="cls-16" d="M585.62,218.46l0,0C585.8,218.27,585.73,218.34,585.62,218.46Z"/><polygon class="cls-16" points="576.26 222.38 576.27 222.36 576.25 222.39 576.26 222.38"/><path class="cls-16" d="M575.87,223a3.38,3.38,0,0,1,.38-.64l-.23.15Z"/><path class="cls-16" d="M574.36,226.77l-.28.45c.24-.59.51-1,.21-.57a19.51,19.51,0,0,1-1,1.88l-.22.25.12-.16a4.41,4.41,0,0,0-.37.44.91.91,0,0,1-.17.18.73.73,0,0,1-.33.16c-.08,0-.13,0-.12-.07s0,0,0,0a.45.45,0,0,1,0-.16v-.33c0-.19,0-.14,0,0,0-.33.08-.68.14-1h0c0-.15,0-.48.06-.64s0,.13,0,.06l.09-.56c.08-.23,0,.25-.08.63.23-.5.06-.47.4-1.59l-.11.54c.15-.33.21-.75.41-1.33-.06.13-.4,1.17-.28.55a6.32,6.32,0,0,0,.17-.73,2.59,2.59,0,0,0,.21-.71l.05,0a4.47,4.47,0,0,0,.1-.67,2.28,2.28,0,0,1,.26-.68c.21-.77-.2.52,0-.4.19-.63.26-1.1.45-1.87.15-.43,0,.09.08-.06l.07-.41c0-.1,0-.06,0,0,.08-.34,0,0,.09-.57,0-.16.38-1.06.57-1.69.08-.15,0,.08,0,.05a2.75,2.75,0,0,1,.33-.72.7.7,0,0,1,.49-.34c.08,0,.15,0,.21,0s.07.12.06.18c0-.15,0-.17.07,0a1.78,1.78,0,0,1-.09.65,3.21,3.21,0,0,0,.16-.38,7.08,7.08,0,0,1-.24.82c0,.1,0,0,0-.13l0,.15c-.11.28-.1.12-.06-.09l.14-.28c0-.21.06-.41,0-.37a1,1,0,0,1-.07.26c0-.05,0-.09,0-.07l-.07.25-.12.16v0c-.14.36-.24.71-.35,1.07-.14.79-.23,1.48-.53,2.71,0-.31-.05-.08-.1-.11.14-.32.22-1,.4-1.59-.09.33-.1.25-.08.16l-.25,1.15s-.1.23-.19.52c.14-.2-.17.86-.26,1.33,0,0,0-.1.11-.66a2.64,2.64,0,0,0-.16.72,4.76,4.76,0,0,1-.17.79c0-.16.06-.26.06-.33a6.29,6.29,0,0,0-.11.74c0,.23-.06.4-.06.31l0-.14,0,.41,0,.23c0,.08.13,0,.16,0a1.32,1.32,0,0,0,.31-.34l.31-.42.33-.52.19-.31a1.78,1.78,0,0,0,.17-.36s0,.15,0,.21l.7-1.54c0,.16.41-.23,0,.44a8.87,8.87,0,0,0,.53-.81c-.09.12-.29.26-.18.09.38-.44.24-.32.7-.85-.14.17-.08-.09.14-.38,0,.05.1,0,0,.15l.46-.77c-.12.18,0,.08.19-.06a5,5,0,0,1,.66-.71,1.63,1.63,0,0,0-.27.22,1.89,1.89,0,0,1,.43-.37l.31-.25a1.58,1.58,0,0,1,.9-.38c-.06,0-.13,0-.12.08s.12,0,.26.08a.18.18,0,0,1,.16.08,2.08,2.08,0,0,1,.18.39,9.27,9.27,0,0,1,.25,1.2v.17l.09.68c-.12-.41-.37-1.61-.53-2.22,0,.36,0,.11,0,.66,0,.21-.07-.3-.09-.46l.11,1.3c.05-.07.15,1,.2,1l-.2-1.43a6.26,6.26,0,0,1,.35,1.78c0,.31-.14-.16-.16-.16a1.7,1.7,0,0,0,.24.62c.23,0,.47-.23.52-.25a1,1,0,0,1-.45.29c.27,0,.61-.42.72-.51a5.9,5.9,0,0,1,.56-.55c.15-.16.51-.41.51-.46-.3.2-.5.1-.37-.11.06,0,.85-.76,1-.91s-.29.47,0,.28a1.22,1.22,0,0,1,.18-.23c.17-.15,0,.1.32-.25,0-.1.72-.7.12-.2.34-.35.38-.35.78-.75-.15.1.27-.45.61-.81,0,0,.08,0,.13-.06l1.78-1.68c.07,0,.42-.32.29-.18.1-.09.17-.19.39-.38.46-.31-.48.42-.12.2a8.24,8.24,0,0,1,.84-.78,6.14,6.14,0,0,0-1,.86,4.39,4.39,0,0,1,1.18-1.2c.62-.47.3-.16.41-.25a3.09,3.09,0,0,1,1.21-.59,1.67,1.67,0,0,1,.52.1.5.5,0,0,1,.22.34,1.45,1.45,0,0,1,0,.43c-.12.5-.1,0-.15.12a1,1,0,0,0-.13-.76c-.09-.08-.21-.07-.31-.11a.58.58,0,0,0-.32,0,1.26,1.26,0,0,1,.54.09,3.51,3.51,0,0,0-.42-.06,1.52,1.52,0,0,0-.42.1,1.09,1.09,0,0,1,.55-.07c.12,0,.3,0,.39.15a1,1,0,0,1,.11.48,11.9,11.9,0,0,1-.5,2c0,.19-.12.52-.06.37l.1-.34c.13-.3-.14.66,0,.23a13,13,0,0,1-.46,1.61l-.09.1a2.86,2.86,0,0,0,.21-.58,11.62,11.62,0,0,0-.41,1.26l.18-.44c-.12.46-.25,1-.45,1.6.14-.24,0-.13.23-.51-.19.32.47-1.44.21-.91.2-.39.26-.7.49-1.22,0,0-.09.18.07-.29V217l0,0v0s0,0,0,0a1.46,1.46,0,0,1-.1.23c0-.25.26-1,.31-1.27s0,.13.05,0l.08-.39c.05,0,.26-.75.11-.07l.16-.61a2.6,2.6,0,0,0,.12-.66,2.52,2.52,0,0,0,0-.37.62.62,0,0,0-.24-.35,1.38,1.38,0,0,0-.59-.14c-.14,0-.19,0,0,0a2.3,2.3,0,0,0-1,.41h0c-.84.54-1.57,1.26-2.44,1.94-.24.23-.46.48-.86.85l-.1,0c-.29.3-.93.85-1,1-.39.25-1.47,1.4-2,1.91l0,0c-.36.35-.69.71-1.11,1.16h0c-.22.26-.75.78-.88.77a2.17,2.17,0,0,1-.08-.44.47.47,0,0,1,0,.17v0l0-.17,0-.39c0-.26-.06-.53-.09-.79a15.43,15.43,0,0,0-.22-1.54.62.62,0,0,0-.66-.36h0a2.25,2.25,0,0,0-.36.06l.3-.05a2.38,2.38,0,0,0-.72.27l-.12,0-.06,0c-.24.13-.17.14,0,.09l-.29.21c-.26,0-.54.51-.78.67a9.07,9.07,0,0,0-.82,1.23s-.07.06,0-.05a4.44,4.44,0,0,0-.49.7l-.12.07-.29.58c-.24.31-.35.44-.17.09-.46.82-.4.65-.78,1.36v-.06a7.76,7.76,0,0,1-.44.71c-.06.07-.15.19-.26.35a.94.94,0,0,1-.09.12s-.11.13-.11,0l.07-.38a2.74,2.74,0,0,1,.09-.39l.17-.64.37-1.3c-.18.28.24-.72.18-.8s.12-.31.07,0c.19-.82.36-1.2.44-1.78.05-.08,0,.18,0,.11a1.59,1.59,0,0,1,.08-.35c0-.07,0,.13,0,.26.2-.83.16-.93.12-1a3.63,3.63,0,0,0,.29-.91c.06-.15.15-.4,0,.14a3.06,3.06,0,0,0,.11-.46.49.49,0,0,0-.11-.38.41.41,0,0,0-.4-.07,2.45,2.45,0,0,0-.36.08.72.72,0,0,0-.26.16c-.13.12-.18.22-.17.23a1.42,1.42,0,0,0-.26.46,7.12,7.12,0,0,0-.48,1.31l.06-.17a5.93,5.93,0,0,1-.28,1v0c-.39,1.16-.14.51-.51,1.66l.06-.06a15,15,0,0,1-.45,1.7l.09-.24c-.07.38-.39,1-.5,1.37a1.26,1.26,0,0,1,0-.24c-.3.95,0,.14-.15.86-.07.13,0-.19-.16.29-.09.24-.25,1.44-.45,2.1.05-.14.11-.28.05.06a9.21,9.21,0,0,0-.32,1.9.65.65,0,0,1,0,.1v.19a1.57,1.57,0,0,0,0,.3c.05.22.31.25.52.18a1.32,1.32,0,0,0,.67-.44,2.89,2.89,0,0,0,.9-1.11c.29-.51.51-1,.57-1l.6-1.09v0a9.15,9.15,0,0,0,.62-1.21c.1-.16,0,0,0,0,.6-1,.62-1.11,1.11-2l.09-.06c.13-.24,1-1.38,1.57-2.34a.67.67,0,0,1-.06.11l.29-.4.16-.19.1-.1s.16-.15.17,0a1,1,0,0,1,0,.24,4.77,4.77,0,0,0,.13,1.47,5.15,5.15,0,0,0,.18.85c-.21-1.1.09.15,0-.31,0,.43.38,1.07.11.59l0-.08c-.05-.11,0,.3.37.54s.81-.09.81,0c1.92-1.17,3.17-2.9,4.66-4.25l-.21.11.5-.49c.14-.12.21-.14-.14.21a3.34,3.34,0,0,0,.57-.64c.71-.67-.22.33,0,.12l.28-.29-.07.06a6.2,6.2,0,0,1,.65-.72c.28-.26.16-.11.27-.22l.16-.16c.21-.21.43-.41.65-.6l-.3.2c.28-.29.63-.55.28-.33.13-.08.35-.26.62-.47l.33-.25.15-.09s.06,0,.08,0v.08c0,.12,0,.23-.06.35l-.13.5c-.07.3-.14.53-.17.62a13.2,13.2,0,0,1-.48,1.7c.06-.16.15-.24,0,.32-.06-.24-.37,1-.6,1.42.18-.38-.48,1.58-.2,1-.16.46-.06,0-.19.36-.3,1.12-.8,2.42-1.23,3.78,0,0,.1-.2,0,.1l-.31.69a2.39,2.39,0,0,1-.21.75c0-.06.09-.16,0,0-.95,2.63-1.72,5.45-2.75,8.1.15-.35.07-.11,0,.17.07-.18,0,0,.07,0l-.43,1.11c0,.23-.41,1.24-.31,1.4,0-.13,0-.27,0-.39,0,.5.35-.66.43-.55.08-.55.56-1.37.75-2.28.08-.18,0,.18,0,.08a5.83,5.83,0,0,1,.3-1v.06c.45-1.4.68-2,1.21-3.54l-.07.1c.11-.33.15-.4.21-.55.06-.41-.31.94-.27.57.23-.42.78-2.38,1-2.65.17-.51-.09.14.08-.38l.07-.13v-.14a1.35,1.35,0,0,1,.23-.5l-.1.32c.17-.43.4-1.24.46-1.39l-.18.5c.44-1.42,1-3.14,1.41-4.53l-.06.1c.3-1.06.29-.83.63-2v0c0-.24.14-.55.24-.86-.07.29.21-.54.12-.15a8,8,0,0,0,.3-1.34l.08-.17a6.91,6.91,0,0,1,.17-.88c-.09.49.15-.36.05.19l.12-.43a4.13,4.13,0,0,0,.11-.53.82.82,0,0,0,0-.38c0-.13-.19-.08-.27-.05a2.28,2.28,0,0,0-.59.36,3.88,3.88,0,0,1-.38.27c-.19.22,0,.05.26-.14l.41-.31c.11-.07.16-.09.07,0,.14-.06,0,0-.19.18l-.55.47a9,9,0,0,0-1.32,1.07l.14-.15c-.28.25-.5.55-.86.85-.15.22-.43.43-.43.53l.64-.67a15.64,15.64,0,0,1-1.29,1.38c0-.06.21-.25.32-.39-.19.17-.33.36-.53.53,0-.1.79-.81,1.15-1.25-.22.17-.72.8-.58.54-.22.36-.71.7-1.15,1.24v-.06c-.08.08-.22.25-.36.39l.21-.29c-.36.42-.76.75-1.11,1.15.76-.81.21-.15.55-.47a19.22,19.22,0,0,1-1.7,1.58c.15-.14.58-.52.36-.28a6.1,6.1,0,0,1-.66.54c-.76.65.15-.06-.16.23s-.36.34-.72.57l0,0a2.51,2.51,0,0,1-.58.22.12.12,0,0,1-.11,0c-.06,0-.17,0-.27-.25a.45.45,0,0,0,.26.19.5.5,0,0,1-.26-.29l.08.06a2.67,2.67,0,0,1-.28-1.22c0,.13-.09-.07-.11-.58,0-.35,0,.2,0-.53a2.13,2.13,0,0,1,0,.66,1.33,1.33,0,0,0,0,.19c0-.39,0-.89,0-1.27,0,.2,0,.26,0,.35l0-.31a3.59,3.59,0,0,0-.06-.39.61.61,0,0,0-.16-.26c-.1-.06-.2,0-.29,0s0,0,.11-.09a.82.82,0,0,0-.34.22c-.11.11-.24.27-.33.38.06-.08-.1-.08.48-.59a2.63,2.63,0,0,0-.53.54l-.3.42c-.06,0-.34.4-.27.28-.33.46-.7,1.2-1.13,1.81l-.13.24a11.34,11.34,0,0,0-1.11,1.84l-.29.38c-.31.57.38-.52-.13.44-.36.67-.19.22-.33.44a12.61,12.61,0,0,1-.81,1.54Zm-1.47-1.21a2.9,2.9,0,0,1-.12.56A1.66,1.66,0,0,1,572.89,225.56Zm2.78-6.94a2.17,2.17,0,0,1,.14-.48Zm15.69-4.25v0C591.38,214,591.38,214.08,591.36,214.37Zm-.16.72c0,.08,0,.07,0,0l.09-.39A1.9,1.9,0,0,0,591.2,215.09Zm-3.77,2-.11.09C587.53,216.93,587.48,217,587.43,217.08Z"/><path class="cls-16" d="M576,217.29s0,0,0,0S576.08,217.17,576,217.29Z"/><path class="cls-16" d="M576.86,222.46v0a0,0,0,0,0,0,0Z"/><path class="cls-16" d="M583.67,219.57a1.57,1.57,0,0,1-.22.18S583.51,219.72,583.67,219.57Z"/><path class="cls-16" d="M590.17,218.76l.13-.44c-.07.21-.1.28-.14.39S590.21,218.62,590.17,218.76Z"/><path class="cls-16" d="M588.68,222.47l-.06.19h0C588.74,222.38,588.78,222.19,588.68,222.47Z"/><path class="cls-16" d="M589.9,219.12a2.43,2.43,0,0,0-.22.61l0-.06C589.72,219.78,589.81,219.45,589.9,219.12Z"/><path class="cls-16" d="M589.66,219.8l-.09.28S589.61,220,589.66,219.8Z"/><path class="cls-16" d="M591,216c-.05.15,0,.11,0,.19S591.18,215.17,591,216Z"/><polygon class="cls-16" points="589.7 219.33 589.78 219.24 589.8 219.05 589.7 219.33"/><path class="cls-16" d="M590.51,216.93l-.16.48s0,.06,0,.14A5,5,0,0,0,590.51,216.93Z"/><path class="cls-16" d="M590.32,217.55c-.05.15-.1.3-.12.39Z"/><polygon class="cls-16" points="589.91 218.66 589.96 218.52 590.08 218.17 589.91 218.66"/><path class="cls-16" d="M589,214.3l-.44.35s.09,0,.25-.17S589.1,214.26,589,214.3Z"/><path class="cls-16" d="M590.54,213.67h-.23v.06A.86.86,0,0,1,590.54,213.67Z"/><path class="cls-16" d="M589.15,214.38s-.62.52-.06.09C589.13,214.42,589.57,214.09,589.15,214.38Z"/><polygon class="cls-16" points="582.95 220.08 583.05 219.98 582.97 219.93 582.95 220.08"/><path class="cls-16" d="M579.41,218.72c.56-.24.11-.15.63-.27.13-.07-.43.09-.3,0C579.4,218.64,579.22,218.76,579.41,218.72Z"/><path class="cls-16" d="M579.74,218.49l.18-.07Z"/><path class="cls-16" d="M582.39,237.24a1.5,1.5,0,0,0-.12.44,1.23,1.23,0,0,1,.08-.29Z"/><path class="cls-16" d="M582.42,238.17a.35.35,0,0,0,.06.14.58.58,0,0,0,.38.05C582.73,238.38,582.45,238.28,582.42,238.17Z"/><path class="cls-16" d="M573.3,224.44v0a2.1,2.1,0,0,0-.11.35Z"/><path class="cls-16" d="M572.45,229.27l-.05,0a.64.64,0,0,0,.14,0Z"/><path class="cls-16" d="M575,225.42l-.31.55C574.9,225.59,575.08,225.4,575,225.42Z"/><path class="cls-15" d="M589.57,245.48h0a.3.3,0,0,1-.34-.34,2.56,2.56,0,0,1,0-.33,9.8,9.8,0,0,1,.39-1.24c.16-.42.32-.92.5-1.48q1.27-4.16,3.69-11.26,1.11-3.3,1.84-5.85a14.91,14.91,0,0,0,.59-2.45q0-.09,0-.09a6.78,6.78,0,0,0-1.86,1.45q-1.58,1.46-3.35,3.36a23.12,23.12,0,0,1-3,2.85,1.78,1.78,0,0,1-1,.42.55.55,0,0,1-.48-.27,5.21,5.21,0,0,1-.37-2.42v-.1a3.72,3.72,0,0,0,0-.62c0-.17-.06-.25-.1-.25s-.51.38-1.06,1.14-1.17,1.7-1.85,2.82-1.33,2.27-1.93,3.43a11.06,11.06,0,0,1-1.28,2c-.36.4-1.2.47-1.2.19a21.8,21.8,0,0,1,.72-3.9c.45-1.81.82-3.26,1.12-4.38s.54-2,.74-2.55a6.12,6.12,0,0,1,.53-1.24,1,1,0,0,1,.49-.44,1.44,1.44,0,0,1,.42-.09c.15,0,.23.09.23.28a3.61,3.61,0,0,1-.26.9l-.18.53q-.88,2.94-1.48,5.58a9.1,9.1,0,0,0-.2,1.22h0c.05,0,.13-.08.25-.24a6.56,6.56,0,0,0,.42-.66c.58-1,1.28-2.05,2.07-3.16a16.52,16.52,0,0,1,1.74-2.16,4.92,4.92,0,0,1,.61-.37,2.14,2.14,0,0,1,.93-.3.51.51,0,0,1,.26.07q.12.08.21.57t.15,1.59a3.93,3.93,0,0,0,.22,1.38h0a3.73,3.73,0,0,0,.77-.64c.45-.42,1-1,1.66-1.68q1.86-2,3.66-3.58a18.38,18.38,0,0,1,2.71-2.13,1.79,1.79,0,0,1,.74-.21,1.18,1.18,0,0,1,.35.07c.15.06.23.26.23.62a20.06,20.06,0,0,1-.76,2.91q-.76,2.5-1.73,5.3l-1.26,3.69c-.6,1.76-1.21,3.58-1.85,5.48s-1.13,3.39-1.48,4.48a6.54,6.54,0,0,1-.67,1.55C589.91,245.31,589.72,245.48,589.57,245.48Z"/><path class="cls-1" d="M589.57,245.48h0a.3.3,0,0,1-.34-.34,2.56,2.56,0,0,1,0-.33,9.8,9.8,0,0,1,.39-1.24c.16-.42.32-.92.5-1.48q1.27-4.16,3.69-11.26,1.11-3.3,1.84-5.85a14.91,14.91,0,0,0,.59-2.45q0-.09,0-.09a6.78,6.78,0,0,0-1.86,1.45q-1.58,1.46-3.35,3.36a23.12,23.12,0,0,1-3,2.85,1.78,1.78,0,0,1-1,.42.55.55,0,0,1-.48-.27,5.21,5.21,0,0,1-.37-2.42v-.1a3.72,3.72,0,0,0,0-.62c0-.17-.06-.25-.1-.25s-.51.38-1.06,1.14-1.17,1.7-1.85,2.82-1.33,2.27-1.93,3.43a11.06,11.06,0,0,1-1.28,2c-.36.4-1.2.47-1.2.19a21.8,21.8,0,0,1,.72-3.9c.45-1.81.82-3.26,1.12-4.38s.54-2,.74-2.55a6.12,6.12,0,0,1,.53-1.24,1,1,0,0,1,.49-.44,1.44,1.44,0,0,1,.42-.09c.15,0,.23.09.23.28a3.61,3.61,0,0,1-.26.9l-.18.53q-.88,2.94-1.48,5.58a9.1,9.1,0,0,0-.2,1.22h0c.05,0,.13-.08.25-.24a6.56,6.56,0,0,0,.42-.66c.58-1,1.28-2.05,2.07-3.16a16.52,16.52,0,0,1,1.74-2.16,4.92,4.92,0,0,1,.61-.37,2.14,2.14,0,0,1,.93-.3.51.51,0,0,1,.26.07q.12.08.21.57t.15,1.59a3.93,3.93,0,0,0,.22,1.38h0a3.73,3.73,0,0,0,.77-.64c.45-.42,1-1,1.66-1.68q1.86-2,3.66-3.58a18.38,18.38,0,0,1,2.71-2.13,1.79,1.79,0,0,1,.74-.21,1.18,1.18,0,0,1,.35.07c.15.06.23.26.23.62a20.06,20.06,0,0,1-.76,2.91q-.76,2.5-1.73,5.3l-1.26,3.69c-.6,1.76-1.21,3.58-1.85,5.48s-1.13,3.39-1.48,4.48a6.54,6.54,0,0,1-.67,1.55C589.91,245.31,589.72,245.48,589.57,245.48Z"/><path class="cls-16" d="M589.82,245.63c-.28.11-.21.08-.25.11.34-.05.3-.14.31-.13S589.82,245.63,589.82,245.63Z"/><polygon class="cls-16" points="591.18 242.7 591.18 242.75 591.29 242.3 591.18 242.7"/><path class="cls-16" d="M592.1,239.92c-.15.24-.32,1-.51,1.49l0,.08,0,.24C591.72,241.13,591.94,240.33,592.1,239.92Z"/><path class="cls-16" d="M592.73,238.48c-.06.08.08-.33-.13.34l0-.06Z"/><path class="cls-16" d="M592.63,238.76c-.1.29.08-.18,0,0Z"/><path class="cls-16" d="M593.07,237.41l-.11.39c0-.08.16-.42.13-.29C593.21,237.11,593.17,237.19,593.07,237.41Z"/><path class="cls-16" d="M593.15,237l-.06.2A.51.51,0,0,0,593.15,237Z"/><path class="cls-16" d="M593,237.66l.12-.43a.28.28,0,0,0-.06.2S593,237.48,593,237.66Z"/><path class="cls-16" d="M592.88,237.9c-.09.21-.19.48-.08.09C592.56,238.73,592.64,238.63,592.88,237.9Z"/><path class="cls-16" d="M592.08,239.75,592,240l-.06.25C591.94,240.16,592.11,239.74,592.08,239.75Z"/><path class="cls-16" d="M593.91,235s-.08.12-.1.14l-.08.29A2.19,2.19,0,0,1,593.91,235Z"/><path class="cls-16" d="M593.81,235.16l.12-.43C593.8,235.11,593.78,235.18,593.81,235.16Z"/><polygon class="cls-16" points="593.1 236.94 592.91 237.65 593.15 236.8 593.1 236.94"/><polygon class="cls-16" points="594.46 233.4 594.41 233.65 594.51 233.21 594.46 233.4"/><path class="cls-16" d="M594.82,232.32c0,.19.13-.23.08,0,.1-.29.16-.55.22-.78A6.07,6.07,0,0,1,594.82,232.32Z"/><path class="cls-16" d="M595.22,231.12l-.1.38C595.16,231.37,595.19,231.25,595.22,231.12Z"/><path class="cls-16" d="M594.18,234a1.55,1.55,0,0,0,.15-.32l-.09.15Z"/><path class="cls-16" d="M594.23,233.85h0l.12-.36Z"/><path class="cls-16" d="M594.16,234.05l0,0A.05.05,0,0,0,594.16,234.05Z"/><path class="cls-16" d="M593.51,235.83c.07-.25.22-.78,0-.29C593.49,235.73,593.61,235.45,593.51,235.83Z"/><path class="cls-16" d="M594.05,234.24l-.16.45s.05-.08,0,.05Z"/><polygon class="cls-16" points="594.11 234.02 594.05 234.24 594.11 234.07 594.11 234.02"/><path class="cls-16" d="M594.92,231.88c.05-.2.12-.42.2-.66l-.27.78S594.83,232.15,594.92,231.88Z"/><path class="cls-16" d="M594.58,232.83l0,0S594.57,232.84,594.58,232.83Z"/><polygon class="cls-16" points="595.92 228.84 595.9 228.88 595.9 228.89 595.92 228.84"/><path class="cls-16" d="M594.82,232a4.33,4.33,0,0,0-.13.42l.16-.46S594.84,232,594.82,232Z"/><path class="cls-16" d="M595.43,230.45l-.14.33A1.85,1.85,0,0,0,595.43,230.45Z"/><path class="cls-16" d="M594.63,232.73v0C594.65,232.7,594.64,232.7,594.63,232.73Z"/><path class="cls-16" d="M594.63,232.73l.06-.27-.09.33Z"/><path class="cls-16" d="M595.92,228a3.82,3.82,0,0,1-.29,1c-.12.45.08.2.27-.16,0,0,0,0,.1-.48-.07.15-.36,1-.27.59a4,4,0,0,1,.28-.76c-.12.23.18-.78.08-.67l-.15.53S596,227.9,595.92,228Z"/><path class="cls-16" d="M595.62,229.74l-.06.18c.08-.21.14-.35.26-.62s.09-.38.08-.41l-.3.91Z"/><path class="cls-16" d="M595.28,230.74c0-.15.15-.6,0-.34a6.34,6.34,0,0,0-.2.71c.29-.87-.06.26.17-.36l-.15.47.17-.44v0h0s0,0,0,0v-.07c.09-.24,0,0,0,0h0l.28-.88C595.5,230.11,595.42,230.33,595.28,230.74Z"/><path class="cls-16" d="M593.61,235.05s0,0,0,0S593.64,234.94,593.61,235.05Z"/><path class="cls-16" d="M593.75,234.7c0,.06,0,.12-.09.33s0,0,0,0-.12.45,0,.06l0-.06c.13-.34.33-.78.31-.72A3.15,3.15,0,0,0,593.75,234.7Z"/><path class="cls-16" d="M594.51,232.69l.23-.73-.16.36h0C594.46,232.72,594.52,232.64,594.51,232.69Z"/><polygon class="cls-16" points="595.97 228.77 595.97 228.88 596.05 228.44 595.97 228.77"/><polygon class="cls-16" points="596.27 227.82 596.29 227.87 596.35 227.61 596.27 227.82"/><path class="cls-16" d="M579,236.4h0Z"/><path class="cls-16" d="M579.15,235v0C579.14,235.05,579.14,235.08,579.15,235Z"/><path class="cls-16" d="M586.53,225.33a1.47,1.47,0,0,0-.67.23l.11,0A2.07,2.07,0,0,1,586.53,225.33Z"/><path class="cls-16" d="M582.76,225l0,.08,0,.23C582.71,225.17,582.73,225.07,582.76,225Z"/><path class="cls-16" d="M582.69,224.69c0-.13.1-.26.14-.39C582.8,224.38,582.76,224.51,582.69,224.69Z"/><path class="cls-16" d="M583.66,229.59l.11-.24C583.54,229.7,583.66,229.56,583.66,229.59Z"/><path class="cls-16" d="M594.88,222c-.23.17-.41.31-.56.44A3.93,3.93,0,0,0,594.88,222Z"/><path class="cls-16" d="M578.58,235.93c0,.14,0,.2,0,.2C578.59,236,578.6,235.9,578.58,235.93Z"/><path class="cls-16" d="M593.7,223l.12-.09c.15-.15.31-.29.5-.45A4.36,4.36,0,0,0,593.7,223Z"/><path class="cls-16" d="M593,234.22l0,.07Z"/><path class="cls-16" d="M589.64,243l.12-.36Z"/><path class="cls-16" d="M597.51,224c-.06.21,0,0,0,0Z"/><path class="cls-16" d="M597.06,224.94a.37.37,0,0,0,0-.08A.32.32,0,0,1,597.06,224.94Z"/><path class="cls-16" d="M592.36,224.67h0S592.39,224.65,592.36,224.67Z"/><path class="cls-16" d="M597.4,224.3l.09-.25Z"/><path class="cls-16" d="M597.43,224.27l0,.17S597.39,224.45,597.43,224.27Z"/><path class="cls-16" d="M597.59,223.72l-.1.33,0-.05Z"/><path class="cls-16" d="M592.4,225.69l0,0C592.57,225.5,592.51,225.57,592.4,225.69Z"/><polygon class="cls-16" points="583.04 229.56 583.06 229.53 583.04 229.56 583.04 229.56"/><path class="cls-16" d="M582.66,230.2a3.38,3.38,0,0,1,.38-.64l-.23.15Z"/><path class="cls-16" d="M581.15,233.94l-.29.44c.25-.58.51-1,.21-.57.07.14-1,1.8-.94,1.89l-.23.26.13-.17a5.51,5.51,0,0,0-.35.43.77.77,0,0,1-.58.25c-.18,0-.17-.14-.11-.07s0-.07,0-.14l0-.33c0-.19,0-.14,0,0,0-.34.09-.68.15-1h0c0-.15.05-.48.07-.64s0,.13,0,.07l.1-.57c.08-.22,0,.25-.08.63.23-.49.06-.47.4-1.58l-.11.53c.14-.32.21-.74.41-1.33-.06.14-.4,1.17-.28.56a6.32,6.32,0,0,0,.17-.73,2.59,2.59,0,0,0,.21-.71l.05,0a4.47,4.47,0,0,0,.1-.67,2,2,0,0,1,.26-.67c.21-.77-.2.51,0-.4.19-.64.26-1.1.46-1.86.15-.44,0,.08.07-.07l.07-.41c0-.09,0-.06,0,0,.08-.33-.05,0,.09-.57a15.73,15.73,0,0,1,.58-1.67c.08-.14,0,.08,0,.05a2.09,2.09,0,0,1,.36-.68.66.66,0,0,1,.18-.14c.06,0,.22-.07.33-.12s.19.2.14.31c0-.14.07-.15.07,0a2.47,2.47,0,0,1-.14.68,3,3,0,0,0,.18-.37l-.24.81c-.05.09,0,0,0-.13l0,.15c-.12.28-.1.12-.06-.1l.13-.28c0-.21.07-.4,0-.37a2.16,2.16,0,0,1-.08.26c0-.05,0-.09,0-.07a1.24,1.24,0,0,0-.06.25l-.13.17v.05c-.13.35-.22.71-.33,1.06-.15.79-.23,1.49-.53,2.71,0-.31-.06-.08-.11-.11.15-.32.23-1,.41-1.59-.09.33-.1.25-.09.17l-.24,1.14s-.1.23-.2.52c.15-.2-.16.86-.26,1.32,0,0,0-.09.12-.65-.23.63-.1.73-.34,1.56,0-.18.06-.28.06-.34-.05.26-.1.55-.14.82s0,.36,0,.3v.08l0,.14s0,0,0,.06a.13.13,0,0,0,.09,0,.8.8,0,0,0,.27-.26c.2-.27.38-.48.61-.85l.4-.67a2.29,2.29,0,0,0,.16-.31.52.52,0,0,1,0,.21l.7-1.54c0,.16.41-.23,0,.44a7.42,7.42,0,0,0,.52-.81c-.09.13-.28.27-.17.09.37-.43.24-.32.7-.84-.14.17-.08-.09.14-.38,0,0,.1,0,0,.15l.47-.77c-.13.19,0,.08.19-.05a3.2,3.2,0,0,1,.68-.68.8.8,0,0,0-.29.2c.34-.3.58-.43.76-.59a1.28,1.28,0,0,1,.9-.32c-.06,0-.12,0-.12.06s.1,0,.21.12.21.23.29.56a7.89,7.89,0,0,1,.26,1.19l0,.17.1.68c-.12-.41-.38-1.6-.52-2.22a5,5,0,0,0,0,.67c0,.2-.07-.3-.09-.46l.1,1.3c.06-.08.15,1,.21,1-.09-.48-.13-1-.2-1.43a7.35,7.35,0,0,1,.36,1.79c.07.29-.14-.11-.15-.12a1.49,1.49,0,0,0,.2.47c.26,0,.58-.34.64-.35a2.16,2.16,0,0,1-.45.36,1.38,1.38,0,0,0,.43-.31l.25-.25a4.9,4.9,0,0,1,.56-.55c.15-.16.51-.41.51-.46-.3.2-.5.1-.37-.11.06-.05.84-.76,1-.91s-.28.47,0,.29c0,0,.12-.18.17-.24s0,.1.32-.25c0-.1.72-.7.13-.2.33-.35.37-.35.78-.74-.16.09.26-.46.6-.81,0,0,.08,0,.12-.06.72-.68,1.1-1,1.79-1.67.07-.05.42-.32.29-.18a4.92,4.92,0,0,1,.39-.38c.45-.31-.48.42-.12.2a8.28,8.28,0,0,1,.84-.78,6.14,6.14,0,0,0-1,.86,4.21,4.21,0,0,1,1.18-1.2c.62-.46.3-.15.4-.24a2.43,2.43,0,0,1,1.24-.53c.14,0,.31,0,.52.15a1,1,0,0,1,.16.78c-.13.49-.1,0-.15.11a1.27,1.27,0,0,0-.08-.77.36.36,0,0,0-.28-.15.81.81,0,0,0-.31-.05,1.37,1.37,0,0,1,.52.13,2.85,2.85,0,0,0-.41-.09,1.33,1.33,0,0,0-.43.07,1,1,0,0,1,.56,0c.12,0,.3,0,.35.2a1.24,1.24,0,0,1,.07.48,14,14,0,0,1-.51,2c0,.19-.12.53-.06.38l.09-.34c.13-.3-.13.65,0,.23a11.56,11.56,0,0,1-.45,1.6l-.09.1a4.1,4.1,0,0,0,.21-.58,9.63,9.63,0,0,0-.41,1.25l.18-.43c-.12.46-.25,1-.45,1.59.14-.24,0-.13.23-.51-.19.32.47-1.43.21-.9.2-.39.26-.7.49-1.22,0,0-.09.18.07-.29v-.11s0,0,0,0a1.46,1.46,0,0,1-.1.23c0-.24.26-1,.31-1.26s0,.12,0,0l.07-.39s.27-.74.12-.06l.15-.61a2.44,2.44,0,0,0,.14-.65,1.05,1.05,0,0,0-.19-.72.53.53,0,0,0-.33-.17l-.26,0c-.14,0-.21,0-.05,0a2,2,0,0,0-1,.37h0c-.84.53-1.57,1.25-2.45,1.93-.23.22-.46.47-.86.84l-.1,0c-.28.3-.92.85-1,1-.38.25-1.46,1.41-2,1.91v.05l-1.1,1.16h0a4.87,4.87,0,0,1-.51.52c-.25.2-.33.31-.44.32a1.4,1.4,0,0,1-.07-.33.7.7,0,0,1,0,.23.74.74,0,0,0,0-.2l0-.38-.09-.78c-.09-.54-.11-1-.19-1.53a.89.89,0,0,0-.21-.36.72.72,0,0,0-.35-.13H587a.31.31,0,0,0-.14,0,1.18,1.18,0,0,0-.37,0l.31,0a1.91,1.91,0,0,0-.74.23H586l-.05,0c-.25.13-.18.13,0,.09l-.3.21a.92.92,0,0,0-.41.26,2.62,2.62,0,0,1-.39.37,9.85,9.85,0,0,0-.83,1.23s-.07.06,0,0a6,6,0,0,0-.5.69l-.11.07-.29.59c-.24.3-.35.43-.17.08-.46.82-.4.65-.78,1.35v-.05c-.14.22-.39.68-.46.74l-.24.31a2.22,2.22,0,0,1-.15.23s-.07.08-.12.08a.88.88,0,0,1,0-.16c0-.14.05-.29.08-.43s.07-.26.15-.56l.41-1.44c-.18.28.24-.72.18-.8s.12-.31.07,0c.19-.8.36-1.19.44-1.76,0-.09,0,.18,0,.1a1.56,1.56,0,0,1,.09-.34c0-.08,0,.12,0,.25.22-.82.16-.92.11-1a4.36,4.36,0,0,0,.3-.91c.06-.14.17-.38,0,.14a3.43,3.43,0,0,0,.13-.41c.07-.19.07-.63-.26-.68a1.18,1.18,0,0,0-.39.06.84.84,0,0,0-.28.09c-.16.1-.22.19-.22.21a1.34,1.34,0,0,0-.3.43,7.54,7.54,0,0,0-.51,1.31l.06-.18a4.81,4.81,0,0,1-.27,1h0c-.38,1.15-.13.51-.51,1.64l.06-.05c.06.13-.31,1-.45,1.7l.09-.24c-.07.37-.39,1-.49,1.36,0,.08,0-.13,0-.24-.3.95,0,.14-.15.86-.06.12,0-.19-.16.29-.09.24-.26,1.44-.45,2.09.05-.14.11-.28.05.06a9.9,9.9,0,0,0-.34,1.89l0,.1a1.43,1.43,0,0,0,0,.48c.11.18.4.19.57.17a1.2,1.2,0,0,0,.71-.32c.51-.15,1.35-2.16,1.45-2.09l.61-1.08v0a8.65,8.65,0,0,0,.62-1.2c.09-.15,0,0,0,0,.59-1,.63-1.11,1.11-2l.09-.06c.13-.23,1-1.38,1.57-2.33a.28.28,0,0,1-.06.11,3.71,3.71,0,0,1,.52-.63s.07-.06.11-.06,0,.08,0,.12v.3a4.54,4.54,0,0,0,.12,1.47,5.23,5.23,0,0,0,.2.85c-.24-1.1.1.14,0-.31,0,.43.46,1,.14.58l0-.08s0,0,0,.14a.69.69,0,0,0,.42.35,1.72,1.72,0,0,0,.79-.12c1.87-1.21,3.15-2.91,4.63-4.27l-.21.12.49-.5c.15-.12.22-.13-.14.22a3.68,3.68,0,0,0,.57-.64c.71-.67-.22.33,0,.12l.28-.3-.07.06a8.41,8.41,0,0,1,.64-.71c.28-.26.17-.11.28-.22a1.59,1.59,0,0,0,.16-.16c.21-.21.43-.4.65-.6l-.3.2c.27-.28.62-.55.28-.32.13-.08.35-.26.61-.47l.32-.23a.71.71,0,0,1,.15-.08c.08,0,0,.1,0,.14s0,.2-.07.36l-.13.5c-.08.31-.14.53-.17.62a13.2,13.2,0,0,1-.48,1.7c.06-.16.15-.24,0,.31-.06-.23-.37,1-.6,1.42.18-.38-.48,1.58-.2,1-.16.46,0,0-.19.36-.3,1.11-.8,2.41-1.23,3.76,0,0,.11-.19,0,.11l-.31.69a2.55,2.55,0,0,1-.2.74c0-.06.09-.16,0,0-.94,2.63-1.71,5.44-2.74,8.08.16-.35.08-.11,0,.17.06-.18,0,0,.06,0l-.43,1.11c0,.22-.41,1.23-.3,1.4,0-.14,0-.27,0-.4-.06.5.34-.65.42-.55.08-.54.57-1.36.75-2.26.08-.19,0,.17,0,.07a4.8,4.8,0,0,1,.29-1v.06c.45-1.39.68-2,1.21-3.53l-.08.11a5.93,5.93,0,0,1,.22-.56c.06-.4-.32.94-.27.57.23-.42.78-2.36,1-2.63.17-.52-.1.13.07-.38l.07-.13v-.14a1.86,1.86,0,0,1,.23-.51l-.09.33c.17-.43.39-1.24.45-1.39l-.18.49c.44-1.41,1-3.12,1.41-4.51l-.06.1c.3-1.06.29-.83.63-2v0c.06-.23.14-.54.25-.86-.07.3.21-.53.12-.14a7,7,0,0,0,.29-1.34l.09-.17a6.56,6.56,0,0,1,.17-.87c-.09.48.15-.36,0,.18.13-.43.49-1.56,0-1.47a1.59,1.59,0,0,0-.57.33,3.51,3.51,0,0,1-.41.27c-.19.23,0,.06.26-.13s.68-.45.5-.34c.13,0,0,0-.19.17l-.57.47a9.81,9.81,0,0,0-1.32,1.07L594,224c-.29.25-.5.55-.86.85-.14.22-.43.42-.43.53l.64-.67c-.36.38-.65.79-1.29,1.38,0-.06.21-.26.33-.39-.2.17-.34.36-.54.53,0-.11.79-.81,1.15-1.25-.22.17-.72.79-.57.54-.22.35-.72.69-1.15,1.23v-.06c-.07.08-.22.26-.36.4l.22-.3c-.37.42-.76.75-1.12,1.14.77-.8.21-.14.56-.46a20.74,20.74,0,0,1-1.7,1.58c.15-.15.58-.52.36-.28a6.12,6.12,0,0,1-.65.54c-.75.66.14-.06-.16.23s-.36.34-.71.59l0,0a4.26,4.26,0,0,1-.58.27.18.18,0,0,1-.11,0,.34.34,0,0,1-.3-.19.37.37,0,0,0,.28.13.4.4,0,0,1-.29-.23l.09,0a2.24,2.24,0,0,1-.32-1.19c0,.14-.09-.06-.11-.57,0-.35,0,.19,0-.53a2,2,0,0,1,0,.65s0,.16.05.19c0-.37,0-.91,0-1.21a3,3,0,0,1,0,.3c-.06-.23,0-1.15-.43-1.07-.17,0,0-.05.12-.05-.23,0-.43.18-.72.51a.44.44,0,0,1,.08-.16,1,1,0,0,1,.46-.4,1.77,1.77,0,0,0-.59.51l-.3.42c-.06,0-.35.39-.28.28-.33.46-.7,1.19-1.13,1.8a2.37,2.37,0,0,1-.13.24l-.58.84c-.18.3-.35.62-.53,1l-.29.38c-.31.57.38-.52-.13.43-.36.68-.19.23-.33.45a13.38,13.38,0,0,1-.81,1.54C581,234.28,581,234.13,581.15,233.94Zm-1.5-1.29a2.75,2.75,0,0,1-.12.56A1.71,1.71,0,0,1,579.65,232.65Zm2.69-6.6a3.14,3.14,0,0,1,.14-.47C582.44,225.72,582.4,225.88,582.34,226.05Zm15.73-4.32v0C598.1,221.31,598.1,221.44,598.07,221.73Zm-.18.71c0,.07,0,.07,0,0a2.56,2.56,0,0,1,.09-.39A2.6,2.6,0,0,0,597.89,222.44Zm-3.7,1.87-.1.09C594.3,224.16,594.25,224.24,594.19,224.31Z"/><path class="cls-16" d="M582.7,224.72a.11.11,0,0,1,0-.05C582.75,224.61,582.75,224.61,582.7,224.72Z"/><path class="cls-16" d="M583.64,229.64v0a0,0,0,0,0,0,0Z"/><path class="cls-16" d="M590.45,226.78l-.21.19S590.29,226.94,590.45,226.78Z"/><path class="cls-16" d="M596.87,226.1l.13-.44c-.07.21-.1.28-.14.38S596.91,226,596.87,226.1Z"/><path class="cls-16" d="M595.38,229.79l-.06.2h0C595.44,229.71,595.48,229.51,595.38,229.79Z"/><path class="cls-16" d="M596.6,226.46a2.08,2.08,0,0,0-.22.6l0-.05C596.42,227.11,596.51,226.78,596.6,226.46Z"/><path class="cls-16" d="M596.36,227.13l-.09.29S596.31,227.3,596.36,227.13Z"/><path class="cls-16" d="M597.68,223.33c0,.14,0,.1,0,.18S597.88,222.52,597.68,223.33Z"/><polygon class="cls-16" points="596.4 226.67 596.48 226.57 596.5 226.39 596.4 226.67"/><path class="cls-16" d="M597.21,224.27l-.16.48s0,.06,0,.14A5,5,0,0,0,597.21,224.27Z"/><path class="cls-16" d="M597,224.89c0,.15-.1.3-.12.39Z"/><polygon class="cls-16" points="596.61 226 596.66 225.85 596.78 225.51 596.61 226"/><path class="cls-16" d="M595.8,221.54l-.44.35c0,.05.09,0,.25-.17S595.87,221.5,595.8,221.54Z"/><path class="cls-16" d="M597.32,221a1,1,0,0,0-.23,0V221A.85.85,0,0,1,597.32,221Z"/><path class="cls-16" d="M595.93,221.61s-.62.52-.06.1C595.9,221.66,596.35,221.33,595.93,221.61Z"/><polygon class="cls-16" points="589.73 227.29 589.83 227.19 589.75 227.14 589.73 227.29"/><path class="cls-16" d="M586.22,226c.57-.21.12-.15.63-.23.13-.06-.42.05-.29,0C586.22,225.87,586,226,586.22,226Z"/><path class="cls-16" d="M586.56,225.73l.18,0Z"/><path class="cls-16" d="M589.1,244.52a2,2,0,0,0-.12.44,1,1,0,0,1,.09-.29Z"/><path class="cls-16" d="M589.13,245.45a.51.51,0,0,0,.07.15.61.61,0,0,0,.37,0C589.45,245.67,589.16,245.57,589.13,245.45Z"/><path class="cls-16" d="M580.06,231.54v0c0,.06,0,.16-.11.35Z"/><path class="cls-16" d="M579.27,236.35h-.08l.16,0Z"/><path class="cls-16" d="M581.78,232.58l-.31.56C581.68,232.76,581.86,232.57,581.78,232.58Z"/></svg>