<svg id="Calque_2" data-name="Calque 2" xmlns="http://www.w3.org/2000/svg" xmlns:xlink="http://www.w3.org/1999/xlink" viewBox="0 0 761.62 761.62"><defs><style>.cls-1,.cls-5{fill:none;}.cls-2{fill:#fff;}.cls-3{clip-path:url(#clip-path);}.cls-4{fill:#13d9e8;}.cls-5{stroke-miterlimit:10;stroke-width:7.62px;stroke:url(#Dégradé_sans_nom_17);}</style><clipPath id="clip-path" transform="translate(-739.19 -190.12)"><circle class="cls-1" cx="1120" cy="570.93" r="377"/></clipPath><linearGradient id="Dégradé_sans_nom_17" y1="380.81" x2="761.62" y2="380.81" gradientUnits="userSpaceOnUse"><stop offset="0" stop-color="#62edff"/><stop offset="1" stop-color="#ffd6f3"/></linearGradient></defs><circle class="cls-2" cx="380.81" cy="380.81" r="377"/><g class="cls-3"><path class="cls-4" d="M1196.25,413.86l-24.38,67.29c-3,8.44-6.29,17.74-13.52,23.57-8,6.48-19.2,6.08-28.56,3.17a103.82,103.82,0,0,1-15.25-6.5c-4.82-2.39-9.64-4.79-14.42-7.28a195.65,195.65,0,0,1-27.42-16.71c-15.3-11.51-28.49-27.62-31.72-47-1.72-10.33.13-21.36-5-30.95a20.39,20.39,0,0,0-10.15-9.26c-4.39-1.89-9.39-2.91-12.74-6.56a7.21,7.21,0,0,1-2.18-5.78c.28-1.89-2.61-2.71-2.89-.8-.72,4.89,2.36,9,6.32,11.48,4.29,2.74,9.58,3.41,13.79,6.29,9.1,6.23,8.57,19.15,9.14,28.83a64.48,64.48,0,0,0,8.51,28.55,87.86,87.86,0,0,0,19,22.65,157.69,157.69,0,0,0,27.45,18.45c4.85,2.66,9.77,5.16,14.7,7.64s10,5.1,15.21,7.29c9.7,4.09,20.94,6.65,31.13,2.72,9.23-3.56,14.53-11.82,18.21-20.58,2.07-4.91,3.79-10,5.61-15l6.26-17.29,12.7-35,3.05-8.42c.65-1.81-2.24-2.6-2.9-.79Z" transform="translate(-739.19 -190.12)"/><path class="cls-4" d="M1029.5,384.42c-2.28-8.39-4.82-17.28-11.39-23.41-5.53-5.16-13.42-7.43-20.45-3.91a13,13,0,0,0-6.73,7.89c-1.27,4.28-.22,8.86,1.4,12.88a100.67,100.67,0,0,0,6.44,12.47q3.57,6.12,7.6,11.94c2.82,4.05,5.72,8.25,9.77,11.17,3.76,2.71,8.83,4,13.27,2.31,1.78-.68,1-3.58-.8-2.89-7.93,3.05-14.25-4.53-18.31-10.21a175.28,175.28,0,0,1-13.18-21.56c-3.15-6.11-6.56-15.23.2-20.28,5.43-4.05,12.73-2.68,17.67,1.43,6.89,5.74,9.36,14.65,11.62,23a1.5,1.5,0,0,0,2.89-.8Z" transform="translate(-739.19 -190.12)"/><path class="cls-4" d="M1016.68,413.88c5.05,6.14,5.45,14.48,5,22.06-.5,8.12-1.78,16.15-2.07,24.29-.56,16.08,1.17,32.59,7.54,47.5a66.75,66.75,0,0,0,31.69,33.9,65.38,65.38,0,0,0,46,4.73,67.24,67.24,0,0,0,37-26c1.08-1.54,2.08-3.14,3-4.77a1.5,1.5,0,0,0-2.59-1.52,63.77,63.77,0,0,1-34.11,28.16,61.94,61.94,0,0,1-44.8-1.77,63.79,63.79,0,0,1-32.5-31.73c-6.71-14.28-8.62-30.43-8.3-46.06.16-8,1.19-15.8,1.9-23.72.67-7.51.78-15.49-2.56-22.44a23.53,23.53,0,0,0-3.07-4.71c-1.23-1.49-3.34.64-2.12,2.12Z" transform="translate(-739.19 -190.12)"/><path class="cls-4" d="M1037.41,371.5c5.38,9,11,18.35,20,24.31a30.12,30.12,0,0,0,13.91,5.1c6,.54,11.91-.91,17.7-2.07l72.8-14.62,72.55-14.56,18.13-3.65c5.46-1.09,11.11-1.91,16.35-3.84,4.68-1.73,9-4.48,11.6-8.81a13.38,13.38,0,0,0,.72-13.38c-5.27-9.88-18.46-9.87-28.1-10.85l-36.77-3.74-8.94-.91c-1.92-.19-1.91,2.81,0,3l35.27,3.59c5.84.59,11.69,1.17,17.53,1.78,5,.53,10.37,1.26,14.57,4.32,3.59,2.6,5.78,6.79,4.62,11.23-1.2,4.61-4.93,8-9.1,10-4.71,2.26-10,3.06-15.11,4.08l-17.41,3.5-69.6,14-69.37,13.93c-5.75,1.16-11.49,2.42-17.28,3.43-5.37.94-10.75,1.17-16-.67-9.57-3.37-16.22-11.7-21.46-20-1.38-2.18-2.7-4.4-4-6.62a1.51,1.51,0,0,0-2.6,1.52Z" transform="translate(-739.19 -190.12)"/><path class="cls-4" d="M1009.6,351.67c1.66-23.05,6.42-46.33,17.7-66.72,9.62-17.39,24-32.36,41.94-41.21a87.89,87.89,0,0,1,27.91-8,119,119,0,0,1,26.54-.77,136,136,0,0,1,14.32,2.48,153.11,153.11,0,0,1,16.84,4.38,83.32,83.32,0,0,1,28.32,15.62,65.54,65.54,0,0,1,18,23.9c4.61,10.91,5.32,22.92,5.24,34.62,0,2.93-.09,5.85-.16,8.78,0,1.88,2.87,1.88,2.92,0,.29-12.21.55-24.67-2.62-36.58a64,64,0,0,0-15.59-27.36,80.42,80.42,0,0,0-26.49-18.43c-10.85-4.7-22.43-7.31-34-9.33a104.46,104.46,0,0,0-26-1c-9.91.76-20,2.32-29.29,5.91-19.26,7.44-35.26,21.71-46.41,38.94-12.69,19.63-18.71,42.75-21.21,65.79-.32,3-.58,6-.8,8.94-.13,1.88,2.78,1.87,2.92,0Z" transform="translate(-739.19 -190.12)"/><path class="cls-4" d="M1039.29,370.31a611.37,611.37,0,0,1,136.32-37.61q19.74-3,39.66-4.78c1.91-.17,1.93-3.17,0-3a613,613,0,0,0-139.12,28.65q-19.05,6.3-37.65,13.85c-1.77.71-1,3.61.79,2.89Z" transform="translate(-739.19 -190.12)"/><path class="cls-4" d="M1039.17,370.88c26.16-5.95,52.32-11.9,78.64-17.06,26.14-5.12,52.45-9.47,79-12.22,15-1.55,30-2.59,45.12-3,1.93-.05,1.94-3.05,0-3a652,652,0,0,0-80.24,7.5c-26.51,4-52.82,9.27-79,15-14.78,3.21-29.52,6.56-44.25,9.91-1.89.43-1.09,3.32.79,2.9Z" transform="translate(-739.19 -190.12)"/><path class="cls-4" d="M1183.17,283.47a143.17,143.17,0,0,0-66.51,27.63c-3.75,2.86-7.87,7.77-4.53,12.54,2.67,3.81,7.94,4.71,12.26,4.82a64.4,64.4,0,0,0,29.85-6.77A67.33,67.33,0,0,0,1178.17,302a57.7,57.7,0,0,0,7.62-13.29c1.71-4.29,2.77-9.53,1.22-14-1.78-5.15-6.63-7.51-11.86-7.42a51.3,51.3,0,0,0-8.79,1.26l-10.3,2-41.18,8L1032,294.57l-10.3,2c-1.89.37-1.09,3.26.8,2.9L1101,284.24l39.22-7.62,19.61-3.8,9.51-1.85a27.08,27.08,0,0,1,7.77-.66,8.25,8.25,0,0,1,6,3.15,10.11,10.11,0,0,1,1.65,5.91c0,4.65-1.85,9-4,13.07a62.21,62.21,0,0,1-19.44,21.63,64.43,64.43,0,0,1-27,10.81c-4.48.66-9.56,1.14-14,.14a9.72,9.72,0,0,1-5.28-2.65c-1.45-1.66-1.15-3.81,0-5.53,1.49-2.14,3.84-3.67,5.93-5.17,2.33-1.68,4.72-3.29,7.15-4.82a141.45,141.45,0,0,1,47.41-19c2.82-.57,5.66-1.05,8.51-1.46,1.9-.27,1.09-3.16-.8-2.89Z" transform="translate(-739.19 -190.12)"/><path class="cls-4" d="M1198.9,412.35a11.21,11.21,0,0,0-9.71,1,14.79,14.79,0,0,0-6.26,8.43c-2.1,6.67-.63,14.25,3,20.1a26.76,26.76,0,0,0,17.09,11.74c7.54,1.74,15.36,1.23,23,1.83,13.93,1.1,26.78,7.47,37.2,16.61,11.1,9.74,19.24,22.18,25.16,35.63,6.67,15.14,10.59,31.32,14.21,47.4L1304,561c.41,1.88,3.31,1.08,2.89-.8-3.47-15.6-7-31.27-12.64-46.24-5.21-13.74-12.27-26.8-22.29-37.64-9.07-9.83-20.48-17.84-33.41-21.62-6.91-2-14-2.41-21.13-2.64-7.32-.24-15.07-.56-21.52-4.44a23.17,23.17,0,0,1-10.6-15.87c-1.09-6.42.89-15.18,8.14-16.9a7.72,7.72,0,0,1,4.7.36c1.8.71,2.58-2.19.8-2.89Z" transform="translate(-739.19 -190.12)"/><path class="cls-4" d="M1018.23,416.15c8.23,16.63,3.58,35.87,1.74,53.37-.92,8.79-1.15,17.7.81,26.37a63.78,63.78,0,0,0,8.17,19.7,67.29,67.29,0,0,0,32.2,27,62.56,62.56,0,0,0,42.06.77,66.45,66.45,0,0,0,33.88-24.85q1.53-2.2,2.85-4.54a1.5,1.5,0,0,0-2.59-1.51,62.11,62.11,0,0,1-31.07,26.61c-12.89,5.12-27.34,6.15-40.63,1.93a63.22,63.22,0,0,1-32.55-24.56,62.25,62.25,0,0,1-8.78-18.78c-2.22-8.09-2.37-16.43-1.67-24.75,1.45-17.38,6.26-35.46.54-52.58a46.85,46.85,0,0,0-2.37-5.72c-.86-1.73-3.45-.21-2.59,1.51Z" transform="translate(-739.19 -190.12)"/><path class="cls-4" d="M1014.46,411.51l3.5,5a1.59,1.59,0,0,0,.9.69,1.49,1.49,0,0,0,1.15-.15,1.51,1.51,0,0,0,.54-2.05l-3.5-5a1.5,1.5,0,0,0-2-.54,1.52,1.52,0,0,0-.54,2.05Z" transform="translate(-739.19 -190.12)"/><path class="cls-4" d="M1024.83,432.56c-3.9,10.85-7.92,21.66-11.66,32.57-3.48,10.14-6.4,20.74-6,31.56.7,18.3,10.28,35.63,24.14,47.33,15,12.64,34.59,18.69,54,19.33s39.72-3.83,55.87-15c15.42-10.62,26.64-27.78,27.82-46.74a51.12,51.12,0,0,0-.06-6.89c-.14-1.91-3.14-1.93-3,0,1.37,18.19-7.66,35.87-21.45,47.38-14.59,12.19-33.92,17.69-52.68,18.23-19,.54-38.4-4.06-54-15.12-14.24-10.08-24.78-26-27.16-43.41-1.38-10,.46-20,3.39-29.64,3.18-10.46,7.18-20.69,10.88-31l2.83-7.87c.65-1.82-2.25-2.61-2.9-.8Z" transform="translate(-739.19 -190.12)"/><path class="cls-4" d="M1240.44,499.85a68,68,0,0,0-31.25,46,64.2,64.2,0,0,0-.79,16.32c.15,1.91,3.15,1.93,3,0a65.1,65.1,0,0,1,18.36-50.1,61.13,61.13,0,0,1,12.19-9.66,1.5,1.5,0,0,0-1.51-2.59Z" transform="translate(-739.19 -190.12)"/><path class="cls-4" d="M1267.73,494.36c-1,5.4-4.91,9.32-9.19,12.47-4.63,3.43-9.67,6.25-14.2,9.83a80,80,0,0,0-22.25,27.84,79,79,0,0,0-6.46,19.38c-.37,1.88,2.53,2.69,2.89.8A77.24,77.24,0,0,1,1246,519.14c4.45-3.57,9.46-6.33,14-9.72,4.87-3.59,9.4-8.08,10.57-14.26.35-1.89-2.54-2.7-2.9-.8Z" transform="translate(-739.19 -190.12)"/><path class="cls-4" d="M929.43,523.66,930,548.4c.18,8.13.21,16.28.59,24.4a178.4,178.4,0,0,0,7.74,44.5,181.51,181.51,0,0,0,9.25,23.81c.75,1.6,3.1.44,2.74-1.15-1.74-7.73-.52-15.68.76-23.38L955,593l7.94-47.61,4.5-27-2.94-.39-.82,97.39-.82,97.4-.45,54.44a1.5,1.5,0,0,0,3,0l.81-97.4.82-97.39.46-54.44c0-1.64-2.67-2.11-3-.4q-8.07,48.35-16.13,96.69c-1.46,8.73-3,17.65-1,26.43l2.74-1.16A176.29,176.29,0,0,1,936.37,597a172.59,172.59,0,0,1-2.71-22.32c-.45-7.9-.45-15.84-.63-23.76l-.6-27.21c0-1.93-3-1.94-3,0Z" transform="translate(-739.19 -190.12)"/><path class="cls-4" d="M968.75,570.29l137.32-2.09,136.62-2.08,77.07-1.17c1.93,0,1.94-3,0-3L1182.44,564l-136.62,2.08-77.07,1.17c-1.93,0-1.94,3,0,3Z" transform="translate(-739.19 -190.12)"/><path class="cls-4" d="M1317.78,564.76l89.55,2.17c7.29.17,14.58.27,21.87.54,6.4.24,13,.91,18.58,4.4,11,7,14,21,14,33,0,7.29-.6,14.59-1.06,21.86l-1.4,22.25-2.79,44.49L1451,782.86l-5.64,89.8-.68,10.86c-.12,1.93,2.88,1.92,3,0l5.74-91.39,5.7-90.68,2.83-45.12c.95-15.07,2.15-30.15,2.79-45.24.55-12.77-.6-26.47-9.33-36.56a27.53,27.53,0,0,0-15-8.83c-6.59-1.47-13.48-1.3-20.2-1.46L1329,562l-11.19-.27c-1.93,0-1.93,3,0,3Z" transform="translate(-739.19 -190.12)"/><path class="cls-4" d="M962.64,768.43l-1.2,64.65-.6,32.8c-.16,8.28-.53,16.85,1.85,24.89,2.18,7.33,6.94,13.3,14,16.32,7.52,3.19,16,3.15,24,3l64.87-1.15,130.24-2.3,129.75-2.3,64.88-1.14c10.73-.19,21.53,0,32.25-.66,8.37-.48,17-2.56,22.27-9.65a15.43,15.43,0,0,0,3.1-10.25c-.14-1.92-3.14-1.93-3,0,.68,9.65-8.86,15-17.15,16.37-5,.8-10.14.7-15.2.79l-15.49.28-62.94,1.11-124.91,2.21-125.88,2.22-62.46,1.11c-9.63.17-19.34.73-29,.32-8.06-.35-16.69-2-22.12-8.53-5.24-6.29-6.09-15.08-6.22-22.95-.17-9.65.27-19.34.44-29l1.16-62.72.29-15.44c0-1.93-3-1.93-3,0Z" transform="translate(-739.19 -190.12)"/><path class="cls-4" d="M951.08,445.56c-3.83,11-14.7,17.6-25,21.79-11.63,4.74-24,7.93-33.93,16.06-9.12,7.52-15.27,18-20.58,28.36-6.1,11.93-11.87,24.05-17.69,36.12-12,24.9-23.63,50-33.79,75.74s-18.78,51.88-24.79,78.79c-6.31,28.3-9.74,57.13-12.84,85.93-.38,3.54-.75,7.08-1.13,10.63l2.8-.76c-10-16.88-7.21-40,6.62-53.94a1.5,1.5,0,0,0-2.12-2.12c-14.76,14.89-17.81,39.54-7.09,57.57a1.51,1.51,0,0,0,2.79-.75c3.07-28.89,6.14-57.82,11.86-86.32A504.75,504.75,0,0,1,819.7,633c9.84-25.91,21.3-51.17,33.24-76.17,5.91-12.35,11.94-24.65,18-36.94,5.22-10.63,10.62-21.56,18.92-30.18A52.16,52.16,0,0,1,904.71,479c5.8-2.82,11.94-4.85,18-7.11,10.43-3.93,21.18-9,27.74-18.45a28.92,28.92,0,0,0,3.56-7.09c.64-1.83-2.26-2.61-2.89-.8Z" transform="translate(-739.19 -190.12)"/><path class="cls-4" d="M847.22,563.31c2.8,2.48,6.84,1.68,9.46-.67,3-2.64,3.58-6.91,4.93-10.42a29.57,29.57,0,0,1,15.45-16.08c1.76-.79.23-3.38-1.52-2.59a32.46,32.46,0,0,0-15.1,14.1,31.62,31.62,0,0,0-2.11,4.85,46.54,46.54,0,0,1-1.86,5.28,7.06,7.06,0,0,1-3.27,3.62,3.55,3.55,0,0,1-3.85-.21c-1.44-1.28-3.57.84-2.13,2.12Z" transform="translate(-739.19 -190.12)"/><path class="cls-4" d="M929.1,762.45c4.28-3.62,3.14-10.38-.24-14.19-4.24-4.78-11.2-6.29-16.82-8.81a116.33,116.33,0,0,1-31.77-21.1,114.48,114.48,0,0,1-14.44-16.27l-1.7,2.21a91.6,91.6,0,0,1,25.5,11.45,90.31,90.31,0,0,1,11,8.38c3.49,3.12,6.63,6.92,10.83,9.11,3.73,1.94,8.66,2.48,12.22-.14,3.35-2.47,4.45-6.93,4-10.91-.52-4.83-2.61-9.32-3.41-14.1a44.77,44.77,0,0,1-.23-12.82,45.42,45.42,0,0,1,12-25.67c1.34-1.4-.78-3.53-2.12-2.12a48.77,48.77,0,0,0-11.29,46.84c1.26,4.26,3.13,8.93,1.45,13.35-1.61,4.24-6.23,5-10.09,3.47-4.27-1.66-7.37-5.56-10.67-8.57a94.35,94.35,0,0,0-38.43-21.16c-1.17-.33-2.49,1.1-1.69,2.2a119.73,119.73,0,0,0,26.07,26.1,117.61,117.61,0,0,0,15.77,9.72c2.62,1.35,5.3,2.59,8,3.73s5.79,2.18,8.54,3.55,5.58,3.33,6.69,6.39c.92,2.51.8,5.42-1.35,7.24-1.48,1.25.65,3.37,2.12,2.12Z" transform="translate(-739.19 -190.12)"/><path class="cls-4" d="M938.93,667.77a51.76,51.76,0,0,0-6.74-24.16l-2.06,2,9.64,4.86c1.72.87,3.24-1.72,1.51-2.59l-9.63-4.86a1.51,1.51,0,0,0-2,2,48.57,48.57,0,0,1,6.33,22.65c.06,1.92,3.06,1.93,3,0Z" transform="translate(-739.19 -190.12)"/><path class="cls-4" d="M962.52,766c-11.55-8.55-27.14-11-40.9-7.09a44.69,44.69,0,0,0-11.21,4.93c-1.64,1-.13,3.61,1.52,2.59A44.82,44.82,0,0,1,951,763a42.21,42.21,0,0,1,10,5.54c1.55,1.15,3-1.45,1.52-2.59Z" transform="translate(-739.19 -190.12)"/><path class="cls-4" d="M961.07,831.17c-25.92-7-52.42,2.14-78.63.49a64.91,64.91,0,0,1-21.29-4.73,1.55,1.55,0,0,0-2,.53,1.52,1.52,0,0,0,.54,2.06c25.1,10.65,52.51,2.1,78.59,2a82.67,82.67,0,0,1,22,2.58,1.51,1.51,0,0,0,.8-2.9Z" transform="translate(-739.19 -190.12)"/><path class="cls-4" d="M861.62,829.25a17.62,17.62,0,0,0,15.2-2.31,17.31,17.31,0,0,0,7.71-13.49c.45-6.23-1.6-12.32-1.25-18.54a13.58,13.58,0,0,1,3.34-8.4c2.32-2.63,5-5,7.5-7.44,5.22-5.1,10.69-10.61,18-12.29,1.88-.43,1.08-3.32-.8-2.89-6.29,1.43-11.43,5.51-16,9.84-2.56,2.4-5,4.89-7.56,7.34s-4.81,4.62-6.14,7.73c-4.51,10.52,4.82,24-3.65,33.24a15.05,15.05,0,0,1-15.57,4.32c-1.83-.62-2.62,2.28-.79,2.89Z" transform="translate(-739.19 -190.12)"/><path class="cls-4" d="M888.67,795.67l-28,25.51c-1.43,1.31.7,3.42,2.12,2.12l28-25.51c1.43-1.31-.7-3.42-2.13-2.12Z" transform="translate(-739.19 -190.12)"/><path class="cls-4" d="M860.08,820a67.07,67.07,0,0,1-53.3-6.54A63.47,63.47,0,0,1,794.52,804c-1.38-1.36-3.5.76-2.13,2.12a70.07,70.07,0,0,0,52.47,19.6,66.93,66.93,0,0,0,16-2.85c1.84-.57,1.06-3.47-.79-2.89Z" transform="translate(-739.19 -190.12)"/><path class="cls-4" d="M845,735.86c-2.62,3.32-2.69,7.54-1,11.32,1.85,4.19,5.57,6.84,9.83,8.23,4.83,1.59,10.09,1.59,15.12,1.73q8.91.24,17.84.07,10-.19,20-.91c1.92-.14,1.93-3.14,0-3q-16.07,1.14-32.19,1a137.15,137.15,0,0,1-14.76-.61c-4.14-.49-8.63-1.71-11.46-5-2.41-2.79-3.78-7.52-1.29-10.68,1.19-1.5-.92-3.64-2.12-2.12Z" transform="translate(-739.19 -190.12)"/><path class="cls-4" d="M890.07,743.85a184.21,184.21,0,0,1-23.9-12.53,77.29,77.29,0,0,1-10.17-7c-2.69-2.35-5.13-5.3-5.2-9,0-1.93-3-1.94-3,0,.16,8.55,8.94,13.63,15.3,17.67a183.84,183.84,0,0,0,25.45,13.51c1.76.76,3.29-1.82,1.52-2.59Z" transform="translate(-739.19 -190.12)"/></g><circle class="cls-5" cx="380.81" cy="380.81" r="377"/></svg>