<svg id="Calque_3" data-name="Calque 3" xmlns="http://www.w3.org/2000/svg" viewBox="0 0 190 190"><defs><style>.cls-1{fill:#fff;}.cls-2{fill:#62edff;}</style></defs><polygon class="cls-1" points="142.27 13.12 47.73 13.12 0.45 95 47.73 176.88 142.27 176.88 189.55 95 142.27 13.12"/><path class="cls-2" d="M117.9,121a27.94,27.94,0,0,0,.48-13.28l14.24-4.22a40.3,40.3,0,0,1,2.15,17.66Z"/><path class="cls-2" d="M117.75,105,131,99.47s-6.2-12.4-13.52-16.86l-7.88,9.23A30.05,30.05,0,0,1,117.75,105Z"/><polygon class="cls-2" points="107.64 90.11 105.27 88.53 107.95 77.49 113.87 80.41 107.64 90.11"/><polygon class="cls-2" points="95.49 84.67 100.06 75.36 93.68 74.81 93.2 84.2 95.49 84.67"/><path class="cls-2" d="M90.21,84l-.48-8.83s-11.2.79-19.16,7.57l3.78,5.44A39.55,39.55,0,0,1,90.21,84Z"/><path class="cls-2" d="M71.51,89.8s-8,7.33-10.65,13.33l-3.94-1.5s3.55-10.26,11-16.57Z"/><path class="cls-2" d="M59.44,106.2S57,115.51,57.63,121H55.89s-2.2-5.36.32-15.69"/><path class="cls-2" d="M105.67,69.05,84.84,111.17s-2.84,6.39,3.08,9.15S96.67,116,96.67,116l10.81-46.06S107.16,68.19,105.67,69.05ZM90.28,117.88a3.47,3.47,0,1,1,3.47-3.47A3.48,3.48,0,0,1,90.28,117.88Z"/></svg>