<svg id="Calque_3" data-name="Calque 3" xmlns="http://www.w3.org/2000/svg" viewBox="0 0 190 190"><defs><style>.cls-1{fill:#fff;}.cls-2{fill:#62edff;}</style></defs><polygon class="cls-1" points="142.27 13.12 47.73 13.12 0.45 95 47.73 176.88 142.27 176.88 189.55 95 142.27 13.12"/><path class="cls-2" d="M67.22,93.51H56.9A1.9,1.9,0,0,0,55,95.4v21.71A1.89,1.89,0,0,0,56.9,119H67.22a1.89,1.89,0,0,0,1.9-1.89V95.4A1.9,1.9,0,0,0,67.22,93.51ZM60.45,95h3.22v1.29H60.45Zm1.61,23.16a1.3,1.3,0,1,1,1.29-1.29A1.29,1.29,0,0,1,62.06,118.12Zm5.53-3.23h-11V97.62h11Z"/><path class="cls-2" d="M71.42,102.38v6.94h34.94v-6.94Zm17.47,5.25a1.78,1.78,0,1,1,1.77-1.78A1.78,1.78,0,0,1,88.89,107.63Z"/><polygon class="cls-2" points="98.35 117.71 80.44 117.71 83.5 111.74 95.52 111.74 98.35 117.71"/><path class="cls-2" d="M131.57,81.81H112a3.42,3.42,0,0,0-3.42,3.43v29a3.42,3.42,0,0,0,3.42,3.43h19.53A3.43,3.43,0,0,0,135,114.2v-29A3.43,3.43,0,0,0,131.57,81.81Zm-9.76,34.61a1.78,1.78,0,1,1,1.77-1.77A1.78,1.78,0,0,1,121.81,116.42Zm11.82-4.6H110.31V84.07h23.32Z"/><path class="cls-2" d="M118.44,72.85A1.85,1.85,0,0,0,116.58,71H62.2a1.85,1.85,0,0,0-1.85,1.85V89.23a1.85,1.85,0,0,0,1.85,1.86h0a1.86,1.86,0,0,0,1.86-1.86V76.32a1.85,1.85,0,0,1,1.85-1.85h46.85a1.85,1.85,0,0,1,1.86,1.85v1.53a1.86,1.86,0,0,0,1.86,1.86h.08a1.85,1.85,0,0,0,1.85-1.86V74.47h0Z"/></svg>